<?xml version="1.0" encoding="utf-8" standalone="no"?>
<!DOCTYPE svg PUBLIC "-//W3C//DTD SVG 1.1//EN"
  "http://www.w3.org/Graphics/SVG/1.1/DTD/svg11.dtd">
<svg xmlns:xlink="http://www.w3.org/1999/xlink" width="230.350625pt" height="207.11875pt" viewBox="0 0 230.350625 207.11875" xmlns="http://www.w3.org/2000/svg" version="1.1">
 <metadata>
  <rdf:RDF xmlns:dc="http://purl.org/dc/elements/1.1/" xmlns:cc="http://creativecommons.org/ns#" xmlns:rdf="http://www.w3.org/1999/02/22-rdf-syntax-ns#">
   <cc:Work>
    <dc:type rdf:resource="http://purl.org/dc/dcmitype/StillImage"/>
    <dc:date>2024-07-12T12:09:12.294382</dc:date>
    <dc:format>image/svg+xml</dc:format>
    <dc:creator>
     <cc:Agent>
      <dc:title>Matplotlib v3.9.1, https://matplotlib.org/</dc:title>
     </cc:Agent>
    </dc:creator>
   </cc:Work>
  </rdf:RDF>
 </metadata>
 <defs>
  <style type="text/css">*{stroke-linejoin: round; stroke-linecap: butt}</style>
 </defs>
 <g id="figure_1">
  <g id="patch_1">
   <path d="M 0 207.11875 
L 230.350625 207.11875 
L 230.350625 0 
L 0 0 
z
" style="fill: #ffffff"/>
  </g>
  <g id="axes_1">
   <g id="patch_2">
    <path d="M 24.790625 169.92 
L 226.750625 169.92 
L 226.750625 3.6 
L 24.790625 3.6 
z
" style="fill: #ffffff"/>
   </g>
   <g id="matplotlib.axis_1">
    <g id="xtick_1">
     <g id="line2d_1">
      <defs>
       <path id="m11b096aefe" d="M 0 0 
L 0 -6 
" style="stroke: #000000"/>
      </defs>
      <g>
       <use xlink:href="#m11b096aefe" x="47.863025" y="169.92" style="stroke: #000000"/>
      </g>
     </g>
     <g id="line2d_2">
      <defs>
       <path id="m20417cb9ea" d="M 0 0 
L 0 6 
" style="stroke: #000000"/>
      </defs>
      <g>
       <use xlink:href="#m20417cb9ea" x="47.863025" y="3.6" style="stroke: #000000"/>
      </g>
     </g>
     <g id="text_1">
      <!-- 15 -->
      <g transform="translate(40.228025 182.538125) scale(0.12 -0.12)">
       <defs>
        <path id="DejaVuSans-31" d="M 794 531 
L 1825 531 
L 1825 4091 
L 703 3866 
L 703 4441 
L 1819 4666 
L 2450 4666 
L 2450 531 
L 3481 531 
L 3481 0 
L 794 0 
L 794 531 
z
" transform="scale(0.015625)"/>
        <path id="DejaVuSans-35" d="M 691 4666 
L 3169 4666 
L 3169 4134 
L 1269 4134 
L 1269 2991 
Q 1406 3038 1543 3061 
Q 1681 3084 1819 3084 
Q 2600 3084 3056 2656 
Q 3513 2228 3513 1497 
Q 3513 744 3044 326 
Q 2575 -91 1722 -91 
Q 1428 -91 1123 -41 
Q 819 9 494 109 
L 494 744 
Q 775 591 1075 516 
Q 1375 441 1709 441 
Q 2250 441 2565 725 
Q 2881 1009 2881 1497 
Q 2881 1984 2565 2268 
Q 2250 2553 1709 2553 
Q 1456 2553 1204 2497 
Q 953 2441 691 2322 
L 691 4666 
z
" transform="scale(0.015625)"/>
       </defs>
       <use xlink:href="#DejaVuSans-31"/>
       <use xlink:href="#DejaVuSans-35" x="63.623047"/>
      </g>
     </g>
    </g>
    <g id="xtick_2">
     <g id="line2d_3">
      <g>
       <use xlink:href="#m11b096aefe" x="75.681206" y="169.92" style="stroke: #000000"/>
      </g>
     </g>
     <g id="line2d_4">
      <g>
       <use xlink:href="#m20417cb9ea" x="75.681206" y="3.6" style="stroke: #000000"/>
      </g>
     </g>
     <g id="text_2">
      <!-- 20 -->
      <g transform="translate(68.046206 182.538125) scale(0.12 -0.12)">
       <defs>
        <path id="DejaVuSans-32" d="M 1228 531 
L 3431 531 
L 3431 0 
L 469 0 
L 469 531 
Q 828 903 1448 1529 
Q 2069 2156 2228 2338 
Q 2531 2678 2651 2914 
Q 2772 3150 2772 3378 
Q 2772 3750 2511 3984 
Q 2250 4219 1831 4219 
Q 1534 4219 1204 4116 
Q 875 4013 500 3803 
L 500 4441 
Q 881 4594 1212 4672 
Q 1544 4750 1819 4750 
Q 2544 4750 2975 4387 
Q 3406 4025 3406 3419 
Q 3406 3131 3298 2873 
Q 3191 2616 2906 2266 
Q 2828 2175 2409 1742 
Q 1991 1309 1228 531 
z
" transform="scale(0.015625)"/>
        <path id="DejaVuSans-30" d="M 2034 4250 
Q 1547 4250 1301 3770 
Q 1056 3291 1056 2328 
Q 1056 1369 1301 889 
Q 1547 409 2034 409 
Q 2525 409 2770 889 
Q 3016 1369 3016 2328 
Q 3016 3291 2770 3770 
Q 2525 4250 2034 4250 
z
M 2034 4750 
Q 2819 4750 3233 4129 
Q 3647 3509 3647 2328 
Q 3647 1150 3233 529 
Q 2819 -91 2034 -91 
Q 1250 -91 836 529 
Q 422 1150 422 2328 
Q 422 3509 836 4129 
Q 1250 4750 2034 4750 
z
" transform="scale(0.015625)"/>
       </defs>
       <use xlink:href="#DejaVuSans-32"/>
       <use xlink:href="#DejaVuSans-30" x="63.623047"/>
      </g>
     </g>
    </g>
    <g id="xtick_3">
     <g id="line2d_5">
      <g>
       <use xlink:href="#m11b096aefe" x="103.499388" y="169.92" style="stroke: #000000"/>
      </g>
     </g>
     <g id="line2d_6">
      <g>
       <use xlink:href="#m20417cb9ea" x="103.499388" y="3.6" style="stroke: #000000"/>
      </g>
     </g>
     <g id="text_3">
      <!-- 25 -->
      <g transform="translate(95.864388 182.538125) scale(0.12 -0.12)">
       <use xlink:href="#DejaVuSans-32"/>
       <use xlink:href="#DejaVuSans-35" x="63.623047"/>
      </g>
     </g>
    </g>
    <g id="xtick_4">
     <g id="line2d_7">
      <g>
       <use xlink:href="#m11b096aefe" x="131.31757" y="169.92" style="stroke: #000000"/>
      </g>
     </g>
     <g id="line2d_8">
      <g>
       <use xlink:href="#m20417cb9ea" x="131.31757" y="3.6" style="stroke: #000000"/>
      </g>
     </g>
     <g id="text_4">
      <!-- 30 -->
      <g transform="translate(123.68257 182.538125) scale(0.12 -0.12)">
       <defs>
        <path id="DejaVuSans-33" d="M 2597 2516 
Q 3050 2419 3304 2112 
Q 3559 1806 3559 1356 
Q 3559 666 3084 287 
Q 2609 -91 1734 -91 
Q 1441 -91 1130 -33 
Q 819 25 488 141 
L 488 750 
Q 750 597 1062 519 
Q 1375 441 1716 441 
Q 2309 441 2620 675 
Q 2931 909 2931 1356 
Q 2931 1769 2642 2001 
Q 2353 2234 1838 2234 
L 1294 2234 
L 1294 2753 
L 1863 2753 
Q 2328 2753 2575 2939 
Q 2822 3125 2822 3475 
Q 2822 3834 2567 4026 
Q 2313 4219 1838 4219 
Q 1578 4219 1281 4162 
Q 984 4106 628 3988 
L 628 4550 
Q 988 4650 1302 4700 
Q 1616 4750 1894 4750 
Q 2613 4750 3031 4423 
Q 3450 4097 3450 3541 
Q 3450 3153 3228 2886 
Q 3006 2619 2597 2516 
z
" transform="scale(0.015625)"/>
       </defs>
       <use xlink:href="#DejaVuSans-33"/>
       <use xlink:href="#DejaVuSans-30" x="63.623047"/>
      </g>
     </g>
    </g>
    <g id="xtick_5">
     <g id="line2d_9">
      <g>
       <use xlink:href="#m11b096aefe" x="159.135752" y="169.92" style="stroke: #000000"/>
      </g>
     </g>
     <g id="line2d_10">
      <g>
       <use xlink:href="#m20417cb9ea" x="159.135752" y="3.6" style="stroke: #000000"/>
      </g>
     </g>
     <g id="text_5">
      <!-- 35 -->
      <g transform="translate(151.500752 182.538125) scale(0.12 -0.12)">
       <use xlink:href="#DejaVuSans-33"/>
       <use xlink:href="#DejaVuSans-35" x="63.623047"/>
      </g>
     </g>
    </g>
    <g id="xtick_6">
     <g id="line2d_11">
      <g>
       <use xlink:href="#m11b096aefe" x="186.953933" y="169.92" style="stroke: #000000"/>
      </g>
     </g>
     <g id="line2d_12">
      <g>
       <use xlink:href="#m20417cb9ea" x="186.953933" y="3.6" style="stroke: #000000"/>
      </g>
     </g>
     <g id="text_6">
      <!-- 40 -->
      <g transform="translate(179.318933 182.538125) scale(0.12 -0.12)">
       <defs>
        <path id="DejaVuSans-34" d="M 2419 4116 
L 825 1625 
L 2419 1625 
L 2419 4116 
z
M 2253 4666 
L 3047 4666 
L 3047 1625 
L 3713 1625 
L 3713 1100 
L 3047 1100 
L 3047 0 
L 2419 0 
L 2419 1100 
L 313 1100 
L 313 1709 
L 2253 4666 
z
" transform="scale(0.015625)"/>
       </defs>
       <use xlink:href="#DejaVuSans-34"/>
       <use xlink:href="#DejaVuSans-30" x="63.623047"/>
      </g>
     </g>
    </g>
    <g id="xtick_7">
     <g id="line2d_13">
      <g>
       <use xlink:href="#m11b096aefe" x="214.772115" y="169.92" style="stroke: #000000"/>
      </g>
     </g>
     <g id="line2d_14">
      <g>
       <use xlink:href="#m20417cb9ea" x="214.772115" y="3.6" style="stroke: #000000"/>
      </g>
     </g>
     <g id="text_7">
      <!-- 45 -->
      <g transform="translate(207.137115 182.538125) scale(0.12 -0.12)">
       <use xlink:href="#DejaVuSans-34"/>
       <use xlink:href="#DejaVuSans-35" x="63.623047"/>
      </g>
     </g>
    </g>
    <g id="xtick_8">
     <g id="line2d_15">
      <defs>
       <path id="m4904e69ee6" d="M 0 0 
L 0 -3 
" style="stroke: #000000"/>
      </defs>
      <g>
       <use xlink:href="#m4904e69ee6" x="26.999389" y="169.92" style="stroke: #000000"/>
      </g>
     </g>
     <g id="line2d_16">
      <defs>
       <path id="m00a135f2b4" d="M 0 0 
L 0 3 
" style="stroke: #000000"/>
      </defs>
      <g>
       <use xlink:href="#m00a135f2b4" x="26.999389" y="3.6" style="stroke: #000000"/>
      </g>
     </g>
    </g>
    <g id="xtick_9">
     <g id="line2d_17">
      <g>
       <use xlink:href="#m4904e69ee6" x="33.953934" y="169.92" style="stroke: #000000"/>
      </g>
     </g>
     <g id="line2d_18">
      <g>
       <use xlink:href="#m00a135f2b4" x="33.953934" y="3.6" style="stroke: #000000"/>
      </g>
     </g>
    </g>
    <g id="xtick_10">
     <g id="line2d_19">
      <g>
       <use xlink:href="#m4904e69ee6" x="40.90848" y="169.92" style="stroke: #000000"/>
      </g>
     </g>
     <g id="line2d_20">
      <g>
       <use xlink:href="#m00a135f2b4" x="40.90848" y="3.6" style="stroke: #000000"/>
      </g>
     </g>
    </g>
    <g id="xtick_11">
     <g id="line2d_21">
      <g>
       <use xlink:href="#m4904e69ee6" x="54.81757" y="169.92" style="stroke: #000000"/>
      </g>
     </g>
     <g id="line2d_22">
      <g>
       <use xlink:href="#m00a135f2b4" x="54.81757" y="3.6" style="stroke: #000000"/>
      </g>
     </g>
    </g>
    <g id="xtick_12">
     <g id="line2d_23">
      <g>
       <use xlink:href="#m4904e69ee6" x="61.772116" y="169.92" style="stroke: #000000"/>
      </g>
     </g>
     <g id="line2d_24">
      <g>
       <use xlink:href="#m00a135f2b4" x="61.772116" y="3.6" style="stroke: #000000"/>
      </g>
     </g>
    </g>
    <g id="xtick_13">
     <g id="line2d_25">
      <g>
       <use xlink:href="#m4904e69ee6" x="68.726661" y="169.92" style="stroke: #000000"/>
      </g>
     </g>
     <g id="line2d_26">
      <g>
       <use xlink:href="#m00a135f2b4" x="68.726661" y="3.6" style="stroke: #000000"/>
      </g>
     </g>
    </g>
    <g id="xtick_14">
     <g id="line2d_27">
      <g>
       <use xlink:href="#m4904e69ee6" x="82.635751" y="169.92" style="stroke: #000000"/>
      </g>
     </g>
     <g id="line2d_28">
      <g>
       <use xlink:href="#m00a135f2b4" x="82.635751" y="3.6" style="stroke: #000000"/>
      </g>
     </g>
    </g>
    <g id="xtick_15">
     <g id="line2d_29">
      <g>
       <use xlink:href="#m4904e69ee6" x="89.590297" y="169.92" style="stroke: #000000"/>
      </g>
     </g>
     <g id="line2d_30">
      <g>
       <use xlink:href="#m00a135f2b4" x="89.590297" y="3.6" style="stroke: #000000"/>
      </g>
     </g>
    </g>
    <g id="xtick_16">
     <g id="line2d_31">
      <g>
       <use xlink:href="#m4904e69ee6" x="96.544842" y="169.92" style="stroke: #000000"/>
      </g>
     </g>
     <g id="line2d_32">
      <g>
       <use xlink:href="#m00a135f2b4" x="96.544842" y="3.6" style="stroke: #000000"/>
      </g>
     </g>
    </g>
    <g id="xtick_17">
     <g id="line2d_33">
      <g>
       <use xlink:href="#m4904e69ee6" x="110.453933" y="169.92" style="stroke: #000000"/>
      </g>
     </g>
     <g id="line2d_34">
      <g>
       <use xlink:href="#m00a135f2b4" x="110.453933" y="3.6" style="stroke: #000000"/>
      </g>
     </g>
    </g>
    <g id="xtick_18">
     <g id="line2d_35">
      <g>
       <use xlink:href="#m4904e69ee6" x="117.408478" y="169.92" style="stroke: #000000"/>
      </g>
     </g>
     <g id="line2d_36">
      <g>
       <use xlink:href="#m00a135f2b4" x="117.408478" y="3.6" style="stroke: #000000"/>
      </g>
     </g>
    </g>
    <g id="xtick_19">
     <g id="line2d_37">
      <g>
       <use xlink:href="#m4904e69ee6" x="124.363023" y="169.92" style="stroke: #000000"/>
      </g>
     </g>
     <g id="line2d_38">
      <g>
       <use xlink:href="#m00a135f2b4" x="124.363023" y="3.6" style="stroke: #000000"/>
      </g>
     </g>
    </g>
    <g id="xtick_20">
     <g id="line2d_39">
      <g>
       <use xlink:href="#m4904e69ee6" x="138.272114" y="169.92" style="stroke: #000000"/>
      </g>
     </g>
     <g id="line2d_40">
      <g>
       <use xlink:href="#m00a135f2b4" x="138.272114" y="3.6" style="stroke: #000000"/>
      </g>
     </g>
    </g>
    <g id="xtick_21">
     <g id="line2d_41">
      <g>
       <use xlink:href="#m4904e69ee6" x="145.226659" y="169.92" style="stroke: #000000"/>
      </g>
     </g>
     <g id="line2d_42">
      <g>
       <use xlink:href="#m00a135f2b4" x="145.226659" y="3.6" style="stroke: #000000"/>
      </g>
     </g>
    </g>
    <g id="xtick_22">
     <g id="line2d_43">
      <g>
       <use xlink:href="#m4904e69ee6" x="152.181205" y="169.92" style="stroke: #000000"/>
      </g>
     </g>
     <g id="line2d_44">
      <g>
       <use xlink:href="#m00a135f2b4" x="152.181205" y="3.6" style="stroke: #000000"/>
      </g>
     </g>
    </g>
    <g id="xtick_23">
     <g id="line2d_45">
      <g>
       <use xlink:href="#m4904e69ee6" x="166.090295" y="169.92" style="stroke: #000000"/>
      </g>
     </g>
     <g id="line2d_46">
      <g>
       <use xlink:href="#m00a135f2b4" x="166.090295" y="3.6" style="stroke: #000000"/>
      </g>
     </g>
    </g>
    <g id="xtick_24">
     <g id="line2d_47">
      <g>
       <use xlink:href="#m4904e69ee6" x="173.044841" y="169.92" style="stroke: #000000"/>
      </g>
     </g>
     <g id="line2d_48">
      <g>
       <use xlink:href="#m00a135f2b4" x="173.044841" y="3.6" style="stroke: #000000"/>
      </g>
     </g>
    </g>
    <g id="xtick_25">
     <g id="line2d_49">
      <g>
       <use xlink:href="#m4904e69ee6" x="179.999386" y="169.92" style="stroke: #000000"/>
      </g>
     </g>
     <g id="line2d_50">
      <g>
       <use xlink:href="#m00a135f2b4" x="179.999386" y="3.6" style="stroke: #000000"/>
      </g>
     </g>
    </g>
    <g id="xtick_26">
     <g id="line2d_51">
      <g>
       <use xlink:href="#m4904e69ee6" x="193.908477" y="169.92" style="stroke: #000000"/>
      </g>
     </g>
     <g id="line2d_52">
      <g>
       <use xlink:href="#m00a135f2b4" x="193.908477" y="3.6" style="stroke: #000000"/>
      </g>
     </g>
    </g>
    <g id="xtick_27">
     <g id="line2d_53">
      <g>
       <use xlink:href="#m4904e69ee6" x="200.863022" y="169.92" style="stroke: #000000"/>
      </g>
     </g>
     <g id="line2d_54">
      <g>
       <use xlink:href="#m00a135f2b4" x="200.863022" y="3.6" style="stroke: #000000"/>
      </g>
     </g>
    </g>
    <g id="xtick_28">
     <g id="line2d_55">
      <g>
       <use xlink:href="#m4904e69ee6" x="207.817567" y="169.92" style="stroke: #000000"/>
      </g>
     </g>
     <g id="line2d_56">
      <g>
       <use xlink:href="#m00a135f2b4" x="207.817567" y="3.6" style="stroke: #000000"/>
      </g>
     </g>
    </g>
    <g id="xtick_29">
     <g id="line2d_57">
      <g>
       <use xlink:href="#m4904e69ee6" x="221.726658" y="169.92" style="stroke: #000000"/>
      </g>
     </g>
     <g id="line2d_58">
      <g>
       <use xlink:href="#m00a135f2b4" x="221.726658" y="3.6" style="stroke: #000000"/>
      </g>
     </g>
    </g>
    <g id="text_8">
     <!-- 2011-Aug-25 15:25 -->
     <g transform="translate(72.048125 200.19125) scale(0.16 -0.16)">
      <defs>
       <path id="DejaVuSans-2d" d="M 313 2009 
L 1997 2009 
L 1997 1497 
L 313 1497 
L 313 2009 
z
" transform="scale(0.015625)"/>
       <path id="DejaVuSans-41" d="M 2188 4044 
L 1331 1722 
L 3047 1722 
L 2188 4044 
z
M 1831 4666 
L 2547 4666 
L 4325 0 
L 3669 0 
L 3244 1197 
L 1141 1197 
L 716 0 
L 50 0 
L 1831 4666 
z
" transform="scale(0.015625)"/>
       <path id="DejaVuSans-75" d="M 544 1381 
L 544 3500 
L 1119 3500 
L 1119 1403 
Q 1119 906 1312 657 
Q 1506 409 1894 409 
Q 2359 409 2629 706 
Q 2900 1003 2900 1516 
L 2900 3500 
L 3475 3500 
L 3475 0 
L 2900 0 
L 2900 538 
Q 2691 219 2414 64 
Q 2138 -91 1772 -91 
Q 1169 -91 856 284 
Q 544 659 544 1381 
z
M 1991 3584 
L 1991 3584 
z
" transform="scale(0.015625)"/>
       <path id="DejaVuSans-67" d="M 2906 1791 
Q 2906 2416 2648 2759 
Q 2391 3103 1925 3103 
Q 1463 3103 1205 2759 
Q 947 2416 947 1791 
Q 947 1169 1205 825 
Q 1463 481 1925 481 
Q 2391 481 2648 825 
Q 2906 1169 2906 1791 
z
M 3481 434 
Q 3481 -459 3084 -895 
Q 2688 -1331 1869 -1331 
Q 1566 -1331 1297 -1286 
Q 1028 -1241 775 -1147 
L 775 -588 
Q 1028 -725 1275 -790 
Q 1522 -856 1778 -856 
Q 2344 -856 2625 -561 
Q 2906 -266 2906 331 
L 2906 616 
Q 2728 306 2450 153 
Q 2172 0 1784 0 
Q 1141 0 747 490 
Q 353 981 353 1791 
Q 353 2603 747 3093 
Q 1141 3584 1784 3584 
Q 2172 3584 2450 3431 
Q 2728 3278 2906 2969 
L 2906 3500 
L 3481 3500 
L 3481 434 
z
" transform="scale(0.015625)"/>
       <path id="DejaVuSans-20" transform="scale(0.015625)"/>
       <path id="DejaVuSans-3a" d="M 750 794 
L 1409 794 
L 1409 0 
L 750 0 
L 750 794 
z
M 750 3309 
L 1409 3309 
L 1409 2516 
L 750 2516 
L 750 3309 
z
" transform="scale(0.015625)"/>
      </defs>
      <use xlink:href="#DejaVuSans-32"/>
      <use xlink:href="#DejaVuSans-30" x="63.623047"/>
      <use xlink:href="#DejaVuSans-31" x="127.246094"/>
      <use xlink:href="#DejaVuSans-31" x="190.869141"/>
      <use xlink:href="#DejaVuSans-2d" x="254.492188"/>
      <use xlink:href="#DejaVuSans-41" x="288.326172"/>
      <use xlink:href="#DejaVuSans-75" x="356.734375"/>
      <use xlink:href="#DejaVuSans-67" x="420.113281"/>
      <use xlink:href="#DejaVuSans-2d" x="483.589844"/>
      <use xlink:href="#DejaVuSans-32" x="519.673828"/>
      <use xlink:href="#DejaVuSans-35" x="583.296875"/>
      <use xlink:href="#DejaVuSans-20" x="646.919922"/>
      <use xlink:href="#DejaVuSans-31" x="678.707031"/>
      <use xlink:href="#DejaVuSans-35" x="742.330078"/>
      <use xlink:href="#DejaVuSans-3a" x="805.953125"/>
      <use xlink:href="#DejaVuSans-32" x="839.644531"/>
      <use xlink:href="#DejaVuSans-35" x="903.267578"/>
     </g>
    </g>
   </g>
   <g id="matplotlib.axis_2">
    <g id="ytick_1">
     <g id="line2d_59">
      <defs>
       <path id="mc8b110a043" d="M 0 0 
L 6 0 
" style="stroke: #000000"/>
      </defs>
      <g>
       <use xlink:href="#mc8b110a043" x="24.790625" y="138.809766" style="stroke: #000000"/>
      </g>
     </g>
     <g id="line2d_60">
      <defs>
       <path id="mb84448a0ff" d="M 0 0 
L -6 0 
" style="stroke: #000000"/>
      </defs>
      <g>
       <use xlink:href="#mb84448a0ff" x="226.750625" y="138.809766" style="stroke: #000000"/>
      </g>
     </g>
     <g id="text_9">
      <!-- −2 -->
      <g transform="translate(3.6 143.368829) scale(0.12 -0.12)">
       <defs>
        <path id="DejaVuSans-2212" d="M 678 2272 
L 4684 2272 
L 4684 1741 
L 678 1741 
L 678 2272 
z
" transform="scale(0.015625)"/>
       </defs>
       <use xlink:href="#DejaVuSans-2212"/>
       <use xlink:href="#DejaVuSans-32" x="83.789062"/>
      </g>
     </g>
    </g>
    <g id="ytick_2">
     <g id="line2d_61">
      <g>
       <use xlink:href="#mc8b110a043" x="24.790625" y="92.058044" style="stroke: #000000"/>
      </g>
     </g>
     <g id="line2d_62">
      <g>
       <use xlink:href="#mb84448a0ff" x="226.750625" y="92.058044" style="stroke: #000000"/>
      </g>
     </g>
     <g id="text_10">
      <!-- 0 -->
      <g transform="translate(13.655625 96.617106) scale(0.12 -0.12)">
       <use xlink:href="#DejaVuSans-30"/>
      </g>
     </g>
    </g>
    <g id="ytick_3">
     <g id="line2d_63">
      <g>
       <use xlink:href="#mc8b110a043" x="24.790625" y="45.306321" style="stroke: #000000"/>
      </g>
     </g>
     <g id="line2d_64">
      <g>
       <use xlink:href="#mb84448a0ff" x="226.750625" y="45.306321" style="stroke: #000000"/>
      </g>
     </g>
     <g id="text_11">
      <!-- 2 -->
      <g transform="translate(13.655625 49.865384) scale(0.12 -0.12)">
       <use xlink:href="#DejaVuSans-32"/>
      </g>
     </g>
    </g>
    <g id="ytick_4">
     <g id="line2d_65">
      <defs>
       <path id="m44e9003547" d="M 0 0 
L 3 0 
" style="stroke: #000000"/>
      </defs>
      <g>
       <use xlink:href="#m44e9003547" x="24.790625" y="162.185627" style="stroke: #000000"/>
      </g>
     </g>
     <g id="line2d_66">
      <defs>
       <path id="me8938074cd" d="M 0 0 
L -3 0 
" style="stroke: #000000"/>
      </defs>
      <g>
       <use xlink:href="#me8938074cd" x="226.750625" y="162.185627" style="stroke: #000000"/>
      </g>
     </g>
    </g>
    <g id="ytick_5">
     <g id="line2d_67">
      <g>
       <use xlink:href="#m44e9003547" x="24.790625" y="150.497697" style="stroke: #000000"/>
      </g>
     </g>
     <g id="line2d_68">
      <g>
       <use xlink:href="#me8938074cd" x="226.750625" y="150.497697" style="stroke: #000000"/>
      </g>
     </g>
    </g>
    <g id="ytick_6">
     <g id="line2d_69">
      <g>
       <use xlink:href="#m44e9003547" x="24.790625" y="127.121836" style="stroke: #000000"/>
      </g>
     </g>
     <g id="line2d_70">
      <g>
       <use xlink:href="#me8938074cd" x="226.750625" y="127.121836" style="stroke: #000000"/>
      </g>
     </g>
    </g>
    <g id="ytick_7">
     <g id="line2d_71">
      <g>
       <use xlink:href="#m44e9003547" x="24.790625" y="115.433905" style="stroke: #000000"/>
      </g>
     </g>
     <g id="line2d_72">
      <g>
       <use xlink:href="#me8938074cd" x="226.750625" y="115.433905" style="stroke: #000000"/>
      </g>
     </g>
    </g>
    <g id="ytick_8">
     <g id="line2d_73">
      <g>
       <use xlink:href="#m44e9003547" x="24.790625" y="103.745974" style="stroke: #000000"/>
      </g>
     </g>
     <g id="line2d_74">
      <g>
       <use xlink:href="#me8938074cd" x="226.750625" y="103.745974" style="stroke: #000000"/>
      </g>
     </g>
    </g>
    <g id="ytick_9">
     <g id="line2d_75">
      <g>
       <use xlink:href="#m44e9003547" x="24.790625" y="80.370113" style="stroke: #000000"/>
      </g>
     </g>
     <g id="line2d_76">
      <g>
       <use xlink:href="#me8938074cd" x="226.750625" y="80.370113" style="stroke: #000000"/>
      </g>
     </g>
    </g>
    <g id="ytick_10">
     <g id="line2d_77">
      <g>
       <use xlink:href="#m44e9003547" x="24.790625" y="68.682182" style="stroke: #000000"/>
      </g>
     </g>
     <g id="line2d_78">
      <g>
       <use xlink:href="#me8938074cd" x="226.750625" y="68.682182" style="stroke: #000000"/>
      </g>
     </g>
    </g>
    <g id="ytick_11">
     <g id="line2d_79">
      <g>
       <use xlink:href="#m44e9003547" x="24.790625" y="56.994252" style="stroke: #000000"/>
      </g>
     </g>
     <g id="line2d_80">
      <g>
       <use xlink:href="#me8938074cd" x="226.750625" y="56.994252" style="stroke: #000000"/>
      </g>
     </g>
    </g>
    <g id="ytick_12">
     <g id="line2d_81">
      <g>
       <use xlink:href="#m44e9003547" x="24.790625" y="33.618391" style="stroke: #000000"/>
      </g>
     </g>
     <g id="line2d_82">
      <g>
       <use xlink:href="#me8938074cd" x="226.750625" y="33.618391" style="stroke: #000000"/>
      </g>
     </g>
    </g>
    <g id="ytick_13">
     <g id="line2d_83">
      <g>
       <use xlink:href="#m44e9003547" x="24.790625" y="21.93046" style="stroke: #000000"/>
      </g>
     </g>
     <g id="line2d_84">
      <g>
       <use xlink:href="#me8938074cd" x="226.750625" y="21.93046" style="stroke: #000000"/>
      </g>
     </g>
    </g>
    <g id="ytick_14">
     <g id="line2d_85">
      <g>
       <use xlink:href="#m44e9003547" x="24.790625" y="10.242529" style="stroke: #000000"/>
      </g>
     </g>
     <g id="line2d_86">
      <g>
       <use xlink:href="#me8938074cd" x="226.750625" y="10.242529" style="stroke: #000000"/>
      </g>
     </g>
    </g>
   </g>
   <g id="line2d_87">
    <path d="M 33.970624 157.957971 
L 39.534261 158.137139 
L 45.097897 156.960633 
L 50.661533 155.864702 
L 56.225169 153.477804 
L 61.788806 152.204207 
L 67.352443 152.329663 
L 72.91608 151.193017 
L 78.479715 149.707318 
L 84.043352 148.520981 
L 89.606988 150.515448 
L 95.170625 153.338562 
L 100.734261 156.202633 
L 106.297897 154.819384 
L 111.861533 152.241613 
L 117.42517 147.662305 
L 122.988806 137.336561 
L 128.552443 120.859359 
L 134.116078 103.509888 
L 139.679715 82.901588 
L 145.243351 60.188169 
L 150.806988 42.571399 
L 156.370624 31.847848 
L 161.93426 26.175322 
L 167.497896 22.910826 
L 173.061533 21.871271 
L 178.62517 21.462565 
L 184.188806 22.412197 
L 189.752442 24.389985 
L 195.316079 27.264405 
L 200.879716 28.158065 
L 206.443352 21.074702 
L 212.006989 19.913922 
L 217.570624 20.675507 
" clip-path="url(#pe45a357b85)" style="fill: none; stroke: #0000ff; stroke-width: 2; stroke-linecap: square"/>
   </g>
   <g id="line2d_88">
    <path d="M 33.970624 124.910482 
L 39.534261 121.515491 
L 45.097897 122.474751 
L 50.661533 123.886517 
L 56.225169 127.292852 
L 61.788806 129.885434 
L 67.352443 132.327023 
L 72.91608 132.170614 
L 78.479715 136.9134 
L 84.043352 139.245017 
L 89.606988 136.534621 
L 95.170625 133.384572 
L 100.734261 130.155713 
L 106.297897 129.306497 
L 111.861533 133.716543 
L 117.42517 139.42798 
L 122.988806 144.502881 
L 128.552443 153.790906 
L 134.116078 160.962311 
L 139.679715 162.36 
L 145.243351 156.572983 
L 150.806988 146.301751 
L 156.370624 137.616518 
L 161.93426 132.77245 
L 167.497896 128.792 
L 173.061533 127.002269 
L 178.62517 128.137052 
L 184.188806 127.552667 
L 189.752442 128.532148 
L 195.316079 133.678204 
L 200.879716 133.044284 
L 206.443352 126.002866 
L 212.006989 126.004851 
L 217.570624 127.455211 
" clip-path="url(#pe45a357b85)" style="fill: none; stroke: #008000; stroke-width: 2; stroke-linecap: square"/>
   </g>
   <g id="line2d_89">
    <path d="M 33.970624 105.837424 
L 39.534261 109.097337 
L 45.097897 109.490521 
L 50.661533 110.132625 
L 56.225169 111.079063 
L 61.788806 110.949221 
L 67.352443 112.177638 
L 72.91608 113.049423 
L 78.479715 109.957515 
L 84.043352 105.444376 
L 89.606988 102.042713 
L 95.170625 99.830614 
L 100.734261 102.797497 
L 106.297897 106.984233 
L 111.861533 108.80208 
L 117.42517 108.682535 
L 122.988806 112.238819 
L 128.552443 112.542117 
L 134.116078 107.755657 
L 139.679715 105.080601 
L 145.243351 106.269461 
L 150.806988 108.911315 
L 156.370624 108.853404 
L 161.93426 105.226684 
L 167.497896 103.640943 
L 173.061533 105.035754 
L 178.62517 107.715089 
L 184.188806 111.982363 
L 189.752442 115.927675 
L 195.316079 116.837877 
L 200.879716 118.140029 
L 206.443352 104.256627 
L 212.006989 97.165062 
L 217.570624 93.403877 
" clip-path="url(#pe45a357b85)" style="fill: none; stroke: #ff0000; stroke-width: 2; stroke-linecap: square"/>
   </g>
   <g id="line2d_90">
    <path d="M 33.970624 17.145064 
L 39.534261 17.730891 
L 45.097897 18.292107 
L 50.661533 18.498327 
L 56.225169 18.73903 
L 61.788806 18.536965 
L 67.352443 16.831341 
L 72.91608 17.582535 
L 78.479715 16.852772 
L 84.043352 17.265881 
L 89.606988 17.928916 
L 95.170625 17.737141 
L 100.734261 16.683667 
L 106.297897 17.564928 
L 111.861533 16.97239 
L 117.42517 17.14397 
L 122.988806 19.892478 
L 128.552443 20.92395 
L 134.116078 20.466439 
L 139.679715 19.976196 
L 145.243351 18.710715 
L 150.806988 16.723188 
L 156.370624 14.708665 
L 161.93426 13.498455 
L 167.497896 12.907019 
L 173.061533 12.586647 
L 178.62517 11.246167 
L 184.188806 11.389643 
L 189.752442 11.565276 
L 195.316079 11.16 
L 200.879716 11.787569 
L 206.443352 12.435866 
L 212.006989 12.162852 
L 217.570624 12.369668 
" clip-path="url(#pe45a357b85)" style="fill: none; stroke: #000000; stroke-width: 2; stroke-linecap: square"/>
   </g>
   <g id="patch_3">
    <path d="M 24.790625 169.92 
L 24.790625 3.6 
" style="fill: none; stroke: #000000; stroke-linejoin: miter; stroke-linecap: square"/>
   </g>
   <g id="patch_4">
    <path d="M 226.750625 169.92 
L 226.750625 3.6 
" style="fill: none; stroke: #000000; stroke-linejoin: miter; stroke-linecap: square"/>
   </g>
   <g id="patch_5">
    <path d="M 24.790625 169.92 
L 226.750624 169.92 
" style="fill: none; stroke: #000000; stroke-linejoin: miter; stroke-linecap: square"/>
   </g>
   <g id="patch_6">
    <path d="M 24.790625 3.6 
L 226.750624 3.6 
" style="fill: none; stroke: #000000; stroke-linejoin: miter; stroke-linecap: square"/>
   </g>
  </g>
 </g>
 <defs>
  <clipPath id="pe45a357b85">
   <rect x="24.790625" y="3.6" width="201.96" height="166.32"/>
  </clipPath>
 </defs>
</svg>
