<?xml version="1.0" encoding="utf-8" standalone="no"?>
<!DOCTYPE svg PUBLIC "-//W3C//DTD SVG 1.1//EN"
  "http://www.w3.org/Graphics/SVG/1.1/DTD/svg11.dtd">
<svg xmlns:xlink="http://www.w3.org/1999/xlink" width="382.131766pt" height="387.994687pt" viewBox="0 0 382.131766 387.994687" xmlns="http://www.w3.org/2000/svg" version="1.1">
 <metadata>
  <rdf:RDF xmlns:dc="http://purl.org/dc/elements/1.1/" xmlns:cc="http://creativecommons.org/ns#" xmlns:rdf="http://www.w3.org/1999/02/22-rdf-syntax-ns#">
   <cc:Work>
    <dc:type rdf:resource="http://purl.org/dc/dcmitype/StillImage"/>
    <dc:date>2024-01-20T10:18:09.881014</dc:date>
    <dc:format>image/svg+xml</dc:format>
    <dc:creator>
     <cc:Agent>
      <dc:title>Matplotlib v3.7.3, https://matplotlib.org/</dc:title>
     </cc:Agent>
    </dc:creator>
   </cc:Work>
  </rdf:RDF>
 </metadata>
 <defs>
  <style type="text/css">*{stroke-linejoin: round; stroke-linecap: butt}</style>
 </defs>
 <g id="figure_1">
  <g id="patch_1">
   <path d="M 0 387.994687 
L 382.131766 387.994687 
L 382.131766 0 
L 0 0 
z
" style="fill: #ffffff"/>
  </g>
  <g id="axes_1">
   <g id="patch_2">
    <path d="M 42.642187 350.438437 
L 374.931766 350.438437 
L 374.931766 17.798437 
L 42.642187 17.798437 
z
" style="fill: #ffffff"/>
   </g>
   <g id="patch_3">
    <path d="M 209.094173 195.314657 
C 210.117138 195.314657 211.098344 194.908228 211.82169 194.184882 
C 212.545036 193.461536 212.951464 192.480331 212.951464 191.457365 
C 212.951464 190.4344 212.545036 189.453194 211.82169 188.729848 
C 211.098344 188.006502 210.117138 187.600074 209.094173 187.600074 
C 208.071207 187.600074 207.090002 188.006502 206.366656 188.729848 
C 205.64331 189.453194 205.236881 190.4344 205.236881 191.457365 
C 205.236881 192.480331 205.64331 193.461536 206.366656 194.184882 
C 207.090002 194.908228 208.071207 195.314657 209.094173 195.314657 
z
" clip-path="url(#p42d180bfca)" style="fill: #ffcc00"/>
   </g>
   <g id="matplotlib.axis_1">
    <g id="xtick_1">
     <g id="line2d_1">
      <defs>
       <path id="mad81d87069" d="M 0 0 
L 0 3.5 
" style="stroke: #000000; stroke-width: 0.8"/>
      </defs>
      <g>
       <use xlink:href="#mad81d87069" x="53.662687" y="350.438437" style="stroke: #000000; stroke-width: 0.8"/>
      </g>
     </g>
     <g id="text_1">
      <!-- −8 -->
      <g transform="translate(46.291593 365.036875) scale(0.1 -0.1)">
       <defs>
        <path id="DejaVuSans-2212" d="M 678 2272 
L 4684 2272 
L 4684 1741 
L 678 1741 
L 678 2272 
z
" transform="scale(0.015625)"/>
        <path id="DejaVuSans-38" d="M 2034 2216 
Q 1584 2216 1326 1975 
Q 1069 1734 1069 1313 
Q 1069 891 1326 650 
Q 1584 409 2034 409 
Q 2484 409 2743 651 
Q 3003 894 3003 1313 
Q 3003 1734 2745 1975 
Q 2488 2216 2034 2216 
z
M 1403 2484 
Q 997 2584 770 2862 
Q 544 3141 544 3541 
Q 544 4100 942 4425 
Q 1341 4750 2034 4750 
Q 2731 4750 3128 4425 
Q 3525 4100 3525 3541 
Q 3525 3141 3298 2862 
Q 3072 2584 2669 2484 
Q 3125 2378 3379 2068 
Q 3634 1759 3634 1313 
Q 3634 634 3220 271 
Q 2806 -91 2034 -91 
Q 1263 -91 848 271 
Q 434 634 434 1313 
Q 434 1759 690 2068 
Q 947 2378 1403 2484 
z
M 1172 3481 
Q 1172 3119 1398 2916 
Q 1625 2713 2034 2713 
Q 2441 2713 2670 2916 
Q 2900 3119 2900 3481 
Q 2900 3844 2670 4047 
Q 2441 4250 2034 4250 
Q 1625 4250 1398 4047 
Q 1172 3844 1172 3481 
z
" transform="scale(0.015625)"/>
       </defs>
       <use xlink:href="#DejaVuSans-2212"/>
       <use xlink:href="#DejaVuSans-38" x="83.789062"/>
      </g>
     </g>
    </g>
    <g id="xtick_2">
     <g id="line2d_2">
      <g>
       <use xlink:href="#mad81d87069" x="92.520558" y="350.438437" style="stroke: #000000; stroke-width: 0.8"/>
      </g>
     </g>
     <g id="text_2">
      <!-- −6 -->
      <g transform="translate(85.149465 365.036875) scale(0.1 -0.1)">
       <defs>
        <path id="DejaVuSans-36" d="M 2113 2584 
Q 1688 2584 1439 2293 
Q 1191 2003 1191 1497 
Q 1191 994 1439 701 
Q 1688 409 2113 409 
Q 2538 409 2786 701 
Q 3034 994 3034 1497 
Q 3034 2003 2786 2293 
Q 2538 2584 2113 2584 
z
M 3366 4563 
L 3366 3988 
Q 3128 4100 2886 4159 
Q 2644 4219 2406 4219 
Q 1781 4219 1451 3797 
Q 1122 3375 1075 2522 
Q 1259 2794 1537 2939 
Q 1816 3084 2150 3084 
Q 2853 3084 3261 2657 
Q 3669 2231 3669 1497 
Q 3669 778 3244 343 
Q 2819 -91 2113 -91 
Q 1303 -91 875 529 
Q 447 1150 447 2328 
Q 447 3434 972 4092 
Q 1497 4750 2381 4750 
Q 2619 4750 2861 4703 
Q 3103 4656 3366 4563 
z
" transform="scale(0.015625)"/>
       </defs>
       <use xlink:href="#DejaVuSans-2212"/>
       <use xlink:href="#DejaVuSans-36" x="83.789062"/>
      </g>
     </g>
    </g>
    <g id="xtick_3">
     <g id="line2d_3">
      <g>
       <use xlink:href="#mad81d87069" x="131.37843" y="350.438437" style="stroke: #000000; stroke-width: 0.8"/>
      </g>
     </g>
     <g id="text_3">
      <!-- −4 -->
      <g transform="translate(124.007336 365.036875) scale(0.1 -0.1)">
       <defs>
        <path id="DejaVuSans-34" d="M 2419 4116 
L 825 1625 
L 2419 1625 
L 2419 4116 
z
M 2253 4666 
L 3047 4666 
L 3047 1625 
L 3713 1625 
L 3713 1100 
L 3047 1100 
L 3047 0 
L 2419 0 
L 2419 1100 
L 313 1100 
L 313 1709 
L 2253 4666 
z
" transform="scale(0.015625)"/>
       </defs>
       <use xlink:href="#DejaVuSans-2212"/>
       <use xlink:href="#DejaVuSans-34" x="83.789062"/>
      </g>
     </g>
    </g>
    <g id="xtick_4">
     <g id="line2d_4">
      <g>
       <use xlink:href="#mad81d87069" x="170.236301" y="350.438437" style="stroke: #000000; stroke-width: 0.8"/>
      </g>
     </g>
     <g id="text_4">
      <!-- −2 -->
      <g transform="translate(162.865208 365.036875) scale(0.1 -0.1)">
       <defs>
        <path id="DejaVuSans-32" d="M 1228 531 
L 3431 531 
L 3431 0 
L 469 0 
L 469 531 
Q 828 903 1448 1529 
Q 2069 2156 2228 2338 
Q 2531 2678 2651 2914 
Q 2772 3150 2772 3378 
Q 2772 3750 2511 3984 
Q 2250 4219 1831 4219 
Q 1534 4219 1204 4116 
Q 875 4013 500 3803 
L 500 4441 
Q 881 4594 1212 4672 
Q 1544 4750 1819 4750 
Q 2544 4750 2975 4387 
Q 3406 4025 3406 3419 
Q 3406 3131 3298 2873 
Q 3191 2616 2906 2266 
Q 2828 2175 2409 1742 
Q 1991 1309 1228 531 
z
" transform="scale(0.015625)"/>
       </defs>
       <use xlink:href="#DejaVuSans-2212"/>
       <use xlink:href="#DejaVuSans-32" x="83.789062"/>
      </g>
     </g>
    </g>
    <g id="xtick_5">
     <g id="line2d_5">
      <g>
       <use xlink:href="#mad81d87069" x="209.094173" y="350.438437" style="stroke: #000000; stroke-width: 0.8"/>
      </g>
     </g>
     <g id="text_5">
      <!-- 0 -->
      <g transform="translate(205.912923 365.036875) scale(0.1 -0.1)">
       <defs>
        <path id="DejaVuSans-30" d="M 2034 4250 
Q 1547 4250 1301 3770 
Q 1056 3291 1056 2328 
Q 1056 1369 1301 889 
Q 1547 409 2034 409 
Q 2525 409 2770 889 
Q 3016 1369 3016 2328 
Q 3016 3291 2770 3770 
Q 2525 4250 2034 4250 
z
M 2034 4750 
Q 2819 4750 3233 4129 
Q 3647 3509 3647 2328 
Q 3647 1150 3233 529 
Q 2819 -91 2034 -91 
Q 1250 -91 836 529 
Q 422 1150 422 2328 
Q 422 3509 836 4129 
Q 1250 4750 2034 4750 
z
" transform="scale(0.015625)"/>
       </defs>
       <use xlink:href="#DejaVuSans-30"/>
      </g>
     </g>
    </g>
    <g id="xtick_6">
     <g id="line2d_6">
      <g>
       <use xlink:href="#mad81d87069" x="247.952044" y="350.438437" style="stroke: #000000; stroke-width: 0.8"/>
      </g>
     </g>
     <g id="text_6">
      <!-- 2 -->
      <g transform="translate(244.770794 365.036875) scale(0.1 -0.1)">
       <use xlink:href="#DejaVuSans-32"/>
      </g>
     </g>
    </g>
    <g id="xtick_7">
     <g id="line2d_7">
      <g>
       <use xlink:href="#mad81d87069" x="286.809916" y="350.438437" style="stroke: #000000; stroke-width: 0.8"/>
      </g>
     </g>
     <g id="text_7">
      <!-- 4 -->
      <g transform="translate(283.628666 365.036875) scale(0.1 -0.1)">
       <use xlink:href="#DejaVuSans-34"/>
      </g>
     </g>
    </g>
    <g id="xtick_8">
     <g id="line2d_8">
      <g>
       <use xlink:href="#mad81d87069" x="325.667787" y="350.438437" style="stroke: #000000; stroke-width: 0.8"/>
      </g>
     </g>
     <g id="text_8">
      <!-- 6 -->
      <g transform="translate(322.486537 365.036875) scale(0.1 -0.1)">
       <use xlink:href="#DejaVuSans-36"/>
      </g>
     </g>
    </g>
    <g id="xtick_9">
     <g id="line2d_9">
      <g>
       <use xlink:href="#mad81d87069" x="364.525659" y="350.438437" style="stroke: #000000; stroke-width: 0.8"/>
      </g>
     </g>
     <g id="text_9">
      <!-- 8 -->
      <g transform="translate(361.344409 365.036875) scale(0.1 -0.1)">
       <use xlink:href="#DejaVuSans-38"/>
      </g>
     </g>
    </g>
    <g id="text_10">
     <!-- $x$ (km) -->
     <g transform="translate(192.536977 378.715) scale(0.1 -0.1)">
      <defs>
       <path id="DejaVuSans-Oblique-78" d="M 3841 3500 
L 2234 1784 
L 3219 0 
L 2559 0 
L 1819 1388 
L 531 0 
L -166 0 
L 1556 1844 
L 641 3500 
L 1300 3500 
L 1972 2234 
L 3144 3500 
L 3841 3500 
z
" transform="scale(0.015625)"/>
       <path id="DejaVuSans-20" transform="scale(0.015625)"/>
       <path id="DejaVuSans-28" d="M 1984 4856 
Q 1566 4138 1362 3434 
Q 1159 2731 1159 2009 
Q 1159 1288 1364 580 
Q 1569 -128 1984 -844 
L 1484 -844 
Q 1016 -109 783 600 
Q 550 1309 550 2009 
Q 550 2706 781 3412 
Q 1013 4119 1484 4856 
L 1984 4856 
z
" transform="scale(0.015625)"/>
       <path id="DejaVuSans-6b" d="M 581 4863 
L 1159 4863 
L 1159 1991 
L 2875 3500 
L 3609 3500 
L 1753 1863 
L 3688 0 
L 2938 0 
L 1159 1709 
L 1159 0 
L 581 0 
L 581 4863 
z
" transform="scale(0.015625)"/>
       <path id="DejaVuSans-6d" d="M 3328 2828 
Q 3544 3216 3844 3400 
Q 4144 3584 4550 3584 
Q 5097 3584 5394 3201 
Q 5691 2819 5691 2113 
L 5691 0 
L 5113 0 
L 5113 2094 
Q 5113 2597 4934 2840 
Q 4756 3084 4391 3084 
Q 3944 3084 3684 2787 
Q 3425 2491 3425 1978 
L 3425 0 
L 2847 0 
L 2847 2094 
Q 2847 2600 2669 2842 
Q 2491 3084 2119 3084 
Q 1678 3084 1418 2786 
Q 1159 2488 1159 1978 
L 1159 0 
L 581 0 
L 581 3500 
L 1159 3500 
L 1159 2956 
Q 1356 3278 1631 3431 
Q 1906 3584 2284 3584 
Q 2666 3584 2933 3390 
Q 3200 3197 3328 2828 
z
" transform="scale(0.015625)"/>
       <path id="DejaVuSans-29" d="M 513 4856 
L 1013 4856 
Q 1481 4119 1714 3412 
Q 1947 2706 1947 2009 
Q 1947 1309 1714 600 
Q 1481 -109 1013 -844 
L 513 -844 
Q 928 -128 1133 580 
Q 1338 1288 1338 2009 
Q 1338 2731 1133 3434 
Q 928 4138 513 4856 
z
" transform="scale(0.015625)"/>
      </defs>
      <use xlink:href="#DejaVuSans-Oblique-78" transform="translate(0 0.015625)"/>
      <use xlink:href="#DejaVuSans-20" transform="translate(59.179688 0.015625)"/>
      <use xlink:href="#DejaVuSans-28" transform="translate(90.966797 0.015625)"/>
      <use xlink:href="#DejaVuSans-6b" transform="translate(129.980469 0.015625)"/>
      <use xlink:href="#DejaVuSans-6d" transform="translate(187.890625 0.015625)"/>
      <use xlink:href="#DejaVuSans-29" transform="translate(285.302734 0.015625)"/>
     </g>
    </g>
    <g id="text_11">
     <!-- 1e8 -->
     <g transform="translate(356.053641 377.715) scale(0.1 -0.1)">
      <defs>
       <path id="DejaVuSans-31" d="M 794 531 
L 1825 531 
L 1825 4091 
L 703 3866 
L 703 4441 
L 1819 4666 
L 2450 4666 
L 2450 531 
L 3481 531 
L 3481 0 
L 794 0 
L 794 531 
z
" transform="scale(0.015625)"/>
       <path id="DejaVuSans-65" d="M 3597 1894 
L 3597 1613 
L 953 1613 
Q 991 1019 1311 708 
Q 1631 397 2203 397 
Q 2534 397 2845 478 
Q 3156 559 3463 722 
L 3463 178 
Q 3153 47 2828 -22 
Q 2503 -91 2169 -91 
Q 1331 -91 842 396 
Q 353 884 353 1716 
Q 353 2575 817 3079 
Q 1281 3584 2069 3584 
Q 2775 3584 3186 3129 
Q 3597 2675 3597 1894 
z
M 3022 2063 
Q 3016 2534 2758 2815 
Q 2500 3097 2075 3097 
Q 1594 3097 1305 2825 
Q 1016 2553 972 2059 
L 3022 2063 
z
" transform="scale(0.015625)"/>
      </defs>
      <use xlink:href="#DejaVuSans-31"/>
      <use xlink:href="#DejaVuSans-65" x="63.623047"/>
      <use xlink:href="#DejaVuSans-38" x="125.146484"/>
     </g>
    </g>
   </g>
   <g id="matplotlib.axis_2">
    <g id="ytick_1">
     <g id="line2d_10">
      <defs>
       <path id="mebc8e34caa" d="M 0 0 
L -3.5 0 
" style="stroke: #000000; stroke-width: 0.8"/>
      </defs>
      <g>
       <use xlink:href="#mebc8e34caa" x="42.642187" y="346.888851" style="stroke: #000000; stroke-width: 0.8"/>
      </g>
     </g>
     <g id="text_12">
      <!-- −8 -->
      <g transform="translate(20.9 350.68807) scale(0.1 -0.1)">
       <use xlink:href="#DejaVuSans-2212"/>
       <use xlink:href="#DejaVuSans-38" x="83.789062"/>
      </g>
     </g>
    </g>
    <g id="ytick_2">
     <g id="line2d_11">
      <g>
       <use xlink:href="#mebc8e34caa" x="42.642187" y="308.03098" style="stroke: #000000; stroke-width: 0.8"/>
      </g>
     </g>
     <g id="text_13">
      <!-- −6 -->
      <g transform="translate(20.9 311.830198) scale(0.1 -0.1)">
       <use xlink:href="#DejaVuSans-2212"/>
       <use xlink:href="#DejaVuSans-36" x="83.789062"/>
      </g>
     </g>
    </g>
    <g id="ytick_3">
     <g id="line2d_12">
      <g>
       <use xlink:href="#mebc8e34caa" x="42.642187" y="269.173108" style="stroke: #000000; stroke-width: 0.8"/>
      </g>
     </g>
     <g id="text_14">
      <!-- −4 -->
      <g transform="translate(20.9 272.972327) scale(0.1 -0.1)">
       <use xlink:href="#DejaVuSans-2212"/>
       <use xlink:href="#DejaVuSans-34" x="83.789062"/>
      </g>
     </g>
    </g>
    <g id="ytick_4">
     <g id="line2d_13">
      <g>
       <use xlink:href="#mebc8e34caa" x="42.642187" y="230.315237" style="stroke: #000000; stroke-width: 0.8"/>
      </g>
     </g>
     <g id="text_15">
      <!-- −2 -->
      <g transform="translate(20.9 234.114455) scale(0.1 -0.1)">
       <use xlink:href="#DejaVuSans-2212"/>
       <use xlink:href="#DejaVuSans-32" x="83.789062"/>
      </g>
     </g>
    </g>
    <g id="ytick_5">
     <g id="line2d_14">
      <g>
       <use xlink:href="#mebc8e34caa" x="42.642187" y="191.457365" style="stroke: #000000; stroke-width: 0.8"/>
      </g>
     </g>
     <g id="text_16">
      <!-- 0 -->
      <g transform="translate(29.279687 195.256584) scale(0.1 -0.1)">
       <use xlink:href="#DejaVuSans-30"/>
      </g>
     </g>
    </g>
    <g id="ytick_6">
     <g id="line2d_15">
      <g>
       <use xlink:href="#mebc8e34caa" x="42.642187" y="152.599494" style="stroke: #000000; stroke-width: 0.8"/>
      </g>
     </g>
     <g id="text_17">
      <!-- 2 -->
      <g transform="translate(29.279687 156.398713) scale(0.1 -0.1)">
       <use xlink:href="#DejaVuSans-32"/>
      </g>
     </g>
    </g>
    <g id="ytick_7">
     <g id="line2d_16">
      <g>
       <use xlink:href="#mebc8e34caa" x="42.642187" y="113.741622" style="stroke: #000000; stroke-width: 0.8"/>
      </g>
     </g>
     <g id="text_18">
      <!-- 4 -->
      <g transform="translate(29.279687 117.540841) scale(0.1 -0.1)">
       <use xlink:href="#DejaVuSans-34"/>
      </g>
     </g>
    </g>
    <g id="ytick_8">
     <g id="line2d_17">
      <g>
       <use xlink:href="#mebc8e34caa" x="42.642187" y="74.883751" style="stroke: #000000; stroke-width: 0.8"/>
      </g>
     </g>
     <g id="text_19">
      <!-- 6 -->
      <g transform="translate(29.279687 78.68297) scale(0.1 -0.1)">
       <use xlink:href="#DejaVuSans-36"/>
      </g>
     </g>
    </g>
    <g id="ytick_9">
     <g id="line2d_18">
      <g>
       <use xlink:href="#mebc8e34caa" x="42.642187" y="36.025879" style="stroke: #000000; stroke-width: 0.8"/>
      </g>
     </g>
     <g id="text_20">
      <!-- 8 -->
      <g transform="translate(29.279687 39.825098) scale(0.1 -0.1)">
       <use xlink:href="#DejaVuSans-38"/>
      </g>
     </g>
    </g>
    <g id="text_21">
     <!-- $y$ (km) -->
     <g transform="translate(14.8 200.368437) rotate(-90) scale(0.1 -0.1)">
      <defs>
       <path id="DejaVuSans-Oblique-79" d="M 1588 -325 
Q 1188 -997 936 -1164 
Q 684 -1331 294 -1331 
L -159 -1331 
L -63 -850 
L 269 -850 
Q 509 -850 678 -719 
Q 847 -588 1056 -206 
L 1234 128 
L 459 3500 
L 1069 3500 
L 1650 819 
L 3256 3500 
L 3859 3500 
L 1588 -325 
z
" transform="scale(0.015625)"/>
      </defs>
      <use xlink:href="#DejaVuSans-Oblique-79" transform="translate(0 0.015625)"/>
      <use xlink:href="#DejaVuSans-20" transform="translate(59.179688 0.015625)"/>
      <use xlink:href="#DejaVuSans-28" transform="translate(90.966797 0.015625)"/>
      <use xlink:href="#DejaVuSans-6b" transform="translate(129.980469 0.015625)"/>
      <use xlink:href="#DejaVuSans-6d" transform="translate(187.890625 0.015625)"/>
      <use xlink:href="#DejaVuSans-29" transform="translate(285.302734 0.015625)"/>
     </g>
    </g>
    <g id="text_22">
     <!-- 1e8 -->
     <g transform="translate(42.642187 14.798437) scale(0.1 -0.1)">
      <use xlink:href="#DejaVuSans-31"/>
      <use xlink:href="#DejaVuSans-65" x="63.623047"/>
      <use xlink:href="#DejaVuSans-38" x="125.146484"/>
     </g>
    </g>
   </g>
   <g id="line2d_19">
    <path d="M 183.919676 206.805388 
L 185.274955 208.795853 
L 186.790722 210.668747 
L 188.457662 212.411891 
L 190.265785 214.013008 
L 192.203674 215.459825 
L 194.257726 216.740938 
L 196.413036 217.847366 
L 198.655064 218.771924 
L 200.969438 219.508 
L 203.341193 220.049317 
L 205.754074 220.390223 
L 208.190166 220.526953 
L 210.631582 220.458605 
L 213.061523 220.185739 
L 215.463615 219.709532 
L 217.821223 219.031795 
L 220.116854 218.155506 
L 222.332454 217.08624 
L 224.451427 215.832133 
L 226.458836 214.402216 
L 228.340577 212.805979 
L 230.082755 211.053544 
L 231.671295 209.156502 
L 233.093011 207.129033 
L 234.337268 204.98685 
L 235.395427 202.745749 
L 236.260028 200.421468 
L 236.924146 198.030042 
L 237.381445 195.588876 
L 237.627736 193.117098 
L 237.661754 190.633901 
L 237.484165 188.15759 
L 237.09675 185.705629 
L 236.501796 183.295318 
L 235.702777 180.944854 
L 234.70584 178.672718 
L 233.519595 176.496048 
L 232.153995 174.430229 
L 230.619501 172.489138 
L 228.926715 170.686237 
L 227.087693 169.035204 
L 225.11679 167.548592 
L 223.029757 166.236723 
L 220.842717 165.107703 
L 218.571345 164.167973 
L 216.231066 163.423684 
L 213.838674 162.880512 
L 211.412265 162.542133 
L 208.970106 162.409777 
L 206.529771 162.482541 
L 204.1075 162.758316 
L 201.719174 163.235043 
L 199.381652 163.909644 
L 197.111952 164.776833 
L 194.926221 165.829196 
L 192.839022 167.057752 
L 190.863147 168.453181 
L 189.011202 170.006474 
L 187.296186 171.707296 
L 185.730306 173.543413 
L 184.324157 175.501087 
L 183.086202 177.565893 
L 182.023257 179.724017 
L 181.142205 181.961939 
L 180.449666 184.264826 
L 179.950824 186.616532 
L 179.648797 189.000191 
L 179.544455 191.399302 
L 179.637605 193.798652 
L 179.928201 196.183141 
L 180.415369 198.536681 
L 181.096457 200.842581 
L 181.96656 203.084327 
L 183.018906 205.246823 
L 183.923493 206.808515 
L 183.923493 206.808515 
" clip-path="url(#p42d180bfca)" style="fill: none; stroke-dasharray: 1.5,2.475; stroke-dashoffset: 0; stroke: #2a7bd1; stroke-width: 1.5"/>
   </g>
   <g id="line2d_20">
    <defs>
     <path id="mf9023e6c1e" d="M 0 1.5 
C 0.397805 1.5 0.77937 1.341951 1.06066 1.06066 
C 1.341951 0.77937 1.5 0.397805 1.5 0 
C 1.5 -0.397805 1.341951 -0.77937 1.06066 -1.06066 
C 0.77937 -1.341951 0.397805 -1.5 0 -1.5 
C -0.397805 -1.5 -0.77937 -1.341951 -1.06066 -1.06066 
C -1.341951 -0.77937 -1.5 -0.397805 -1.5 0 
C -1.5 0.397805 -1.341951 0.77937 -1.06066 1.06066 
C -0.77937 1.341951 -0.397805 1.5 0 1.5 
z
" style="stroke: #2a7bd1"/>
    </defs>
    <g clip-path="url(#p42d180bfca)">
     <use xlink:href="#mf9023e6c1e" x="183.919676" y="206.805388" style="fill: #2a7bd1; stroke: #2a7bd1"/>
    </g>
   </g>
   <g id="line2d_21">
    <path d="M 168.241711 179.425096 
L 167.756494 182.291751 
L 167.459088 185.200014 
L 167.354059 188.137157 
L 167.445072 191.089864 
L 167.734805 194.044293 
L 168.224873 196.986164 
L 168.915753 199.900843 
L 169.806714 202.773449 
L 170.895769 205.588974 
L 172.179634 208.332407 
L 173.653699 210.988873 
L 175.312025 213.543775 
L 177.147354 215.98294 
L 179.151145 218.292768 
L 181.31362 220.460372 
L 183.623846 222.473723 
L 186.069816 224.321773 
L 188.638572 225.994573 
L 191.316316 227.483371 
L 194.088561 228.780697 
L 196.940266 229.88042 
L 199.855996 230.777793 
L 202.820073 231.469471 
L 205.816733 231.953509 
L 208.830267 232.22934 
L 211.845169 232.297736 
L 214.846265 232.160752 
L 217.818827 231.821654 
L 220.748681 231.284835 
L 223.622299 230.555731 
L 226.426868 229.640716 
L 229.150354 228.547007 
L 231.781547 227.282559 
L 234.31009 225.855965 
L 236.726502 224.276357 
L 239.022182 222.553312 
L 241.189407 220.696761 
L 243.221324 218.716906 
L 245.111929 216.624143 
L 246.856041 214.428992 
L 248.449279 212.142032 
L 249.888023 209.773846 
L 251.169382 207.334971 
L 252.29116 204.835853 
L 253.53605 201.427799 
L 254.492603 197.954987 
L 255.160655 194.440815 
L 255.541691 190.907993 
L 255.638704 187.378471 
L 255.456068 183.8734 
L 254.999413 180.413101 
L 254.275521 177.017045 
L 253.292226 173.703847 
L 252.058329 170.491265 
L 250.58352 167.3962 
L 248.878318 164.434705 
L 246.954009 161.621991 
L 244.822605 158.972438 
L 242.496799 156.499599 
L 239.98994 154.216206 
L 237.316004 152.13417 
L 234.489573 150.264582 
L 231.525824 148.617705 
L 228.440514 147.202962 
L 225.249975 146.028918 
L 221.971103 145.103255 
L 218.621357 144.432743 
L 215.218751 144.0232 
L 211.781844 143.879444 
L 208.329735 144.005242 
L 204.882041 144.40324 
L 201.458884 145.0749 
L 198.080853 146.020409 
L 194.768972 147.2386 
L 191.544644 148.726849 
L 188.429587 150.480972 
L 185.445749 152.49512 
L 183.307261 154.171853 
L 181.26432 155.986683 
L 179.326211 157.935074 
L 177.502144 160.011836 
L 175.801208 162.211106 
L 174.232324 164.526324 
L 172.804183 166.950215 
L 171.525191 169.474776 
L 170.403398 172.091267 
L 169.446425 174.790204 
L 168.66139 177.561369 
L 168.236807 179.443565 
L 168.236807 179.443565 
" clip-path="url(#p42d180bfca)" style="fill: none; stroke-dasharray: 1.5,2.475; stroke-dashoffset: 0; stroke: #cc653f; stroke-width: 1.5"/>
   </g>
   <g id="line2d_22">
    <defs>
     <path id="m575426040a" d="M 0 1.5 
C 0.397805 1.5 0.77937 1.341951 1.06066 1.06066 
C 1.341951 0.77937 1.5 0.397805 1.5 0 
C 1.5 -0.397805 1.341951 -0.77937 1.06066 -1.06066 
C 0.77937 -1.341951 0.397805 -1.5 0 -1.5 
C -0.397805 -1.5 -0.77937 -1.341951 -1.06066 -1.06066 
C -1.341951 -0.77937 -1.5 -0.397805 -1.5 0 
C -1.5 0.397805 -1.341951 0.77937 -1.06066 1.06066 
C -0.77937 1.341951 -0.397805 1.5 0 1.5 
z
" style="stroke: #cc653f"/>
    </defs>
    <g clip-path="url(#p42d180bfca)">
     <use xlink:href="#m575426040a" x="168.241711" y="179.425096" style="fill: #cc653f; stroke: #cc653f"/>
    </g>
   </g>
   <g id="line2d_23">
    <path d="M 248.934302 38.364195 
L 243.045992 36.863926 
L 237.105213 35.602562 
L 231.121202 34.581709 
L 225.103232 33.802654 
L 219.060599 33.266365 
L 213.002617 32.973485 
L 206.938606 32.924339 
L 200.877889 33.118933 
L 194.829779 33.556951 
L 188.803577 34.237761 
L 182.808556 35.16041 
L 176.853962 36.323627 
L 170.948997 37.725822 
L 165.102817 39.365089 
L 159.324524 41.239203 
L 153.623153 43.34562 
L 148.007665 45.68148 
L 142.486943 48.243605 
L 137.069776 51.028501 
L 131.764855 54.032356 
L 126.580761 57.251042 
L 121.525956 60.680115 
L 116.608774 64.314814 
L 111.83741 68.150067 
L 107.21991 72.180486 
L 102.764159 76.40037 
L 98.47787 80.803709 
L 94.368576 85.384181 
L 90.443614 90.135159 
L 86.710113 95.049711 
L 83.174986 100.1206 
L 79.844911 105.340294 
L 76.726323 110.700962 
L 73.825399 116.194486 
L 71.148042 121.81246 
L 68.69987 127.546198 
L 66.486201 133.386739 
L 64.512037 139.324856 
L 62.782051 145.351063 
L 61.300571 151.455622 
L 60.071566 157.628555 
L 59.098632 163.859653 
L 58.384972 170.138487 
L 57.933388 176.454423 
L 57.746259 182.796632 
L 57.825534 189.154108 
L 58.172711 195.515681 
L 58.788827 201.870038 
L 59.674441 208.205736 
L 60.829627 214.511226 
L 62.253953 220.77487 
L 63.94648 226.984966 
L 65.905741 233.12977 
L 68.12974 239.197518 
L 70.615937 245.176456 
L 73.361244 251.054861 
L 76.362022 256.821074 
L 79.614069 262.463523 
L 83.112625 267.970757 
L 86.852365 273.331474 
L 90.827406 278.534553 
L 95.031303 283.569083 
L 99.457059 288.424398 
L 104.097129 293.090106 
L 108.943431 297.556125 
L 113.987356 301.812712 
L 119.219781 305.850496 
L 124.631087 309.66051 
L 130.211175 313.23422 
L 135.949488 316.56356 
L 141.835033 319.640955 
L 147.856406 322.459351 
L 154.001821 325.012246 
L 160.259134 327.293706 
L 166.61588 329.298397 
L 173.059303 331.0216 
L 179.576392 332.459232 
L 186.153914 333.607863 
L 192.778454 334.46473 
L 199.436455 335.027748 
L 206.114252 335.295518 
L 212.798118 335.267336 
L 219.474299 334.943194 
L 226.12906 334.323781 
L 232.748721 333.410483 
L 239.319699 332.205374 
L 245.828548 330.711209 
L 252.261997 328.931418 
L 258.60699 326.870087 
L 264.85072 324.531944 
L 270.980667 321.922343 
L 276.984629 319.047241 
L 282.850757 315.913175 
L 288.567583 312.527244 
L 294.12405 308.897071 
L 299.509535 305.030789 
L 304.713877 300.937001 
L 309.727395 296.624755 
L 314.540909 292.103513 
L 319.145758 287.383118 
L 323.533811 282.473761 
L 327.697483 277.385949 
L 331.629742 272.130474 
L 335.324119 266.718378 
L 338.774714 261.160921 
L 341.976196 255.469547 
L 344.923806 249.655858 
L 347.61336 243.731575 
L 350.041241 237.708514 
L 352.204399 231.598554 
L 354.100343 225.413609 
L 355.727136 219.165598 
L 357.083385 212.866424 
L 358.168233 206.527944 
L 358.981347 200.161947 
L 359.522904 193.780132 
L 359.793586 187.394082 
L 359.794558 181.015251 
L 359.527458 174.65494 
L 358.994384 168.324277 
L 358.197877 162.034209 
L 357.140907 155.795476 
L 355.826854 149.618605 
L 354.259499 143.513894 
L 352.443001 137.491398 
L 350.381889 131.560921 
L 348.081037 125.732006 
L 345.545657 120.013922 
L 342.78128 114.415661 
L 339.793737 108.94593 
L 336.589152 103.613139 
L 333.173921 98.425404 
L 329.554698 93.390534 
L 325.738383 88.516032 
L 321.732108 83.809088 
L 317.543221 79.27658 
L 313.179275 74.925064 
L 308.648015 70.76078 
L 303.957363 66.789645 
L 299.115409 63.017253 
L 294.130399 59.448873 
L 289.010721 56.08945 
L 283.764894 52.943603 
L 278.401561 50.015625 
L 272.929474 47.309481 
L 267.357488 44.828813 
L 261.694545 42.576933 
L 255.94967 40.556831 
L 250.131962 38.771168 
L 247.198655 37.966994 
L 247.198655 37.966994 
" clip-path="url(#p42d180bfca)" style="fill: none; stroke-dasharray: 1.5,2.475; stroke-dashoffset: 0; stroke: #bf8f5c; stroke-width: 1.5"/>
   </g>
   <g id="line2d_24">
    <defs>
     <path id="m37ac4c7ab7" d="M 0 1.5 
C 0.397805 1.5 0.77937 1.341951 1.06066 1.06066 
C 1.341951 0.77937 1.5 0.397805 1.5 0 
C 1.5 -0.397805 1.341951 -0.77937 1.06066 -1.06066 
C 0.77937 -1.341951 0.397805 -1.5 0 -1.5 
C -0.397805 -1.5 -0.77937 -1.341951 -1.06066 -1.06066 
C -1.341951 -0.77937 -1.5 -0.397805 -1.5 0 
C -1.5 0.397805 -1.341951 0.77937 -1.06066 1.06066 
C -0.77937 1.341951 -0.397805 1.5 0 1.5 
z
" style="stroke: #bf8f5c"/>
    </defs>
    <g clip-path="url(#p42d180bfca)">
     <use xlink:href="#m37ac4c7ab7" x="248.934302" y="38.364195" style="fill: #bf8f5c; stroke: #bf8f5c"/>
    </g>
   </g>
   <g id="line2d_25">
    <path d="M 183.946975 206.717673 
L 193.811174 216.80243 
L 206.133516 222.856155 
L 218.918365 224.738801 
L 230.772227 223.245071 
L 241.047139 219.35747 
L 249.557853 213.891124 
L 256.334269 207.441728 
L 261.488416 200.429997 
L 265.153753 193.154354 
L 267.461109 185.831239 
L 268.53043 178.62269 
L 268.468669 171.654656 
L 267.370548 165.02925 
L 265.320298 158.833117 
L 262.393699 153.143335 
L 258.660175 148.031771 
L 254.31587 143.669939 
L 249.396061 140.106582 
L 243.855929 137.333206 
L 237.756495 135.43017 
L 231.164818 134.489701 
L 224.159266 134.619593 
L 216.837754 135.947905 
L 209.330657 138.628425 
L 201.822052 142.846204 
L 194.585898 148.820338 
L 188.048959 156.794864 
L 182.897525 166.986504 
L 180.23057 179.409071 
L 181.62251 193.396948 
L 188.492738 206.8475 
L 200.301795 216.553545 
L 214.495793 220.405164 
L 229.304113 217.87327 
L 241.888132 212.261035 
L 252.130145 205.088255 
L 260.392727 197.254817 
L 267.072735 189.22593 
L 272.49225 181.236609 
L 276.895387 173.40595 
L 280.465497 165.793905 
L 283.341671 158.429406 
L 285.63081 151.324752 
L 287.417113 144.483041 
L 288.767717 137.902377 
L 289.736845 131.578205 
L 290.369007 125.504605 
L 290.701207 119.675064 
L 290.764559 114.082918 
L 290.585508 108.721614 
L 290.186741 103.584856 
L 289.587894 98.666687 
L 288.806103 93.961527 
L 287.856438 89.464184 
L 286.752246 85.169858 
L 285.505431 81.074127 
L 284.126688 77.172938 
L 282.625654 73.46262 
L 281.010873 69.940086 
L 279.290713 66.601985 
L 277.472648 63.445581 
L 275.563656 60.468438 
L 273.570331 57.668411 
L 271.498986 55.043641 
L 269.355781 52.592561 
L 267.14688 50.313911 
L 264.878659 48.206765 
L 262.558021 46.270615 
L 260.192985 44.505479 
L 257.793928 42.912013 
L 255.376019 41.492255 
L 252.966525 40.251165 
L 250.634061 39.203114 
L 249.011535 38.489488 
" clip-path="url(#p42d180bfca)" style="fill: none; stroke: #1f77b4; stroke-width: 1.5; stroke-linecap: square"/>
   </g>
   <g id="patch_4">
    <path d="M 42.642187 350.438437 
L 42.642187 17.798438 
" style="fill: none; stroke: #000000; stroke-width: 0.8; stroke-linejoin: miter; stroke-linecap: square"/>
   </g>
   <g id="patch_5">
    <path d="M 374.931766 350.438437 
L 374.931766 17.798438 
" style="fill: none; stroke: #000000; stroke-width: 0.8; stroke-linejoin: miter; stroke-linecap: square"/>
   </g>
   <g id="patch_6">
    <path d="M 42.642187 350.438437 
L 374.931766 350.438437 
" style="fill: none; stroke: #000000; stroke-width: 0.8; stroke-linejoin: miter; stroke-linecap: square"/>
   </g>
   <g id="patch_7">
    <path d="M 42.642187 17.798437 
L 374.931766 17.798437 
" style="fill: none; stroke: #000000; stroke-width: 0.8; stroke-linejoin: miter; stroke-linecap: square"/>
   </g>
   <g id="legend_1">
    <g id="patch_8">
     <path d="M 49.642187 84.510937 
L 136.651562 84.510937 
Q 138.651562 84.510937 138.651562 82.510937 
L 138.651562 24.798437 
Q 138.651562 22.798437 136.651562 22.798437 
L 49.642187 22.798437 
Q 47.642187 22.798437 47.642187 24.798437 
L 47.642187 82.510937 
Q 47.642187 84.510937 49.642187 84.510937 
z
" style="fill: #ffffff; opacity: 0.8; stroke: #cccccc; stroke-linejoin: miter"/>
    </g>
    <g id="line2d_26">
     <path d="M 51.642187 30.896875 
L 61.642187 30.896875 
L 71.642187 30.896875 
" style="fill: none; stroke-dasharray: 1.5,2.475; stroke-dashoffset: 0; stroke: #2a7bd1; stroke-width: 1.5"/>
    </g>
    <g id="text_23">
     <!-- Earth -->
     <g transform="translate(79.642187 34.396875) scale(0.1 -0.1)">
      <defs>
       <path id="DejaVuSans-45" d="M 628 4666 
L 3578 4666 
L 3578 4134 
L 1259 4134 
L 1259 2753 
L 3481 2753 
L 3481 2222 
L 1259 2222 
L 1259 531 
L 3634 531 
L 3634 0 
L 628 0 
L 628 4666 
z
" transform="scale(0.015625)"/>
       <path id="DejaVuSans-61" d="M 2194 1759 
Q 1497 1759 1228 1600 
Q 959 1441 959 1056 
Q 959 750 1161 570 
Q 1363 391 1709 391 
Q 2188 391 2477 730 
Q 2766 1069 2766 1631 
L 2766 1759 
L 2194 1759 
z
M 3341 1997 
L 3341 0 
L 2766 0 
L 2766 531 
Q 2569 213 2275 61 
Q 1981 -91 1556 -91 
Q 1019 -91 701 211 
Q 384 513 384 1019 
Q 384 1609 779 1909 
Q 1175 2209 1959 2209 
L 2766 2209 
L 2766 2266 
Q 2766 2663 2505 2880 
Q 2244 3097 1772 3097 
Q 1472 3097 1187 3025 
Q 903 2953 641 2809 
L 641 3341 
Q 956 3463 1253 3523 
Q 1550 3584 1831 3584 
Q 2591 3584 2966 3190 
Q 3341 2797 3341 1997 
z
" transform="scale(0.015625)"/>
       <path id="DejaVuSans-72" d="M 2631 2963 
Q 2534 3019 2420 3045 
Q 2306 3072 2169 3072 
Q 1681 3072 1420 2755 
Q 1159 2438 1159 1844 
L 1159 0 
L 581 0 
L 581 3500 
L 1159 3500 
L 1159 2956 
Q 1341 3275 1631 3429 
Q 1922 3584 2338 3584 
Q 2397 3584 2469 3576 
Q 2541 3569 2628 3553 
L 2631 2963 
z
" transform="scale(0.015625)"/>
       <path id="DejaVuSans-74" d="M 1172 4494 
L 1172 3500 
L 2356 3500 
L 2356 3053 
L 1172 3053 
L 1172 1153 
Q 1172 725 1289 603 
Q 1406 481 1766 481 
L 2356 481 
L 2356 0 
L 1766 0 
Q 1100 0 847 248 
Q 594 497 594 1153 
L 594 3053 
L 172 3053 
L 172 3500 
L 594 3500 
L 594 4494 
L 1172 4494 
z
" transform="scale(0.015625)"/>
       <path id="DejaVuSans-68" d="M 3513 2113 
L 3513 0 
L 2938 0 
L 2938 2094 
Q 2938 2591 2744 2837 
Q 2550 3084 2163 3084 
Q 1697 3084 1428 2787 
Q 1159 2491 1159 1978 
L 1159 0 
L 581 0 
L 581 4863 
L 1159 4863 
L 1159 2956 
Q 1366 3272 1645 3428 
Q 1925 3584 2291 3584 
Q 2894 3584 3203 3211 
Q 3513 2838 3513 2113 
z
" transform="scale(0.015625)"/>
      </defs>
      <use xlink:href="#DejaVuSans-45"/>
      <use xlink:href="#DejaVuSans-61" x="63.183594"/>
      <use xlink:href="#DejaVuSans-72" x="124.462891"/>
      <use xlink:href="#DejaVuSans-74" x="165.576172"/>
      <use xlink:href="#DejaVuSans-68" x="204.785156"/>
     </g>
    </g>
    <g id="line2d_27">
     <path d="M 51.642187 45.575 
L 61.642187 45.575 
L 71.642187 45.575 
" style="fill: none; stroke-dasharray: 1.5,2.475; stroke-dashoffset: 0; stroke: #cc653f; stroke-width: 1.5"/>
    </g>
    <g id="text_24">
     <!-- Mars -->
     <g transform="translate(79.642187 49.075) scale(0.1 -0.1)">
      <defs>
       <path id="DejaVuSans-4d" d="M 628 4666 
L 1569 4666 
L 2759 1491 
L 3956 4666 
L 4897 4666 
L 4897 0 
L 4281 0 
L 4281 4097 
L 3078 897 
L 2444 897 
L 1241 4097 
L 1241 0 
L 628 0 
L 628 4666 
z
" transform="scale(0.015625)"/>
       <path id="DejaVuSans-73" d="M 2834 3397 
L 2834 2853 
Q 2591 2978 2328 3040 
Q 2066 3103 1784 3103 
Q 1356 3103 1142 2972 
Q 928 2841 928 2578 
Q 928 2378 1081 2264 
Q 1234 2150 1697 2047 
L 1894 2003 
Q 2506 1872 2764 1633 
Q 3022 1394 3022 966 
Q 3022 478 2636 193 
Q 2250 -91 1575 -91 
Q 1294 -91 989 -36 
Q 684 19 347 128 
L 347 722 
Q 666 556 975 473 
Q 1284 391 1588 391 
Q 1994 391 2212 530 
Q 2431 669 2431 922 
Q 2431 1156 2273 1281 
Q 2116 1406 1581 1522 
L 1381 1569 
Q 847 1681 609 1914 
Q 372 2147 372 2553 
Q 372 3047 722 3315 
Q 1072 3584 1716 3584 
Q 2034 3584 2315 3537 
Q 2597 3491 2834 3397 
z
" transform="scale(0.015625)"/>
      </defs>
      <use xlink:href="#DejaVuSans-4d"/>
      <use xlink:href="#DejaVuSans-61" x="86.279297"/>
      <use xlink:href="#DejaVuSans-72" x="147.558594"/>
      <use xlink:href="#DejaVuSans-73" x="188.671875"/>
     </g>
    </g>
    <g id="line2d_28">
     <path d="M 51.642187 60.253125 
L 61.642187 60.253125 
L 71.642187 60.253125 
" style="fill: none; stroke-dasharray: 1.5,2.475; stroke-dashoffset: 0; stroke: #bf8f5c; stroke-width: 1.5"/>
    </g>
    <g id="text_25">
     <!-- Jupiter -->
     <g transform="translate(79.642187 63.753125) scale(0.1 -0.1)">
      <defs>
       <path id="DejaVuSans-4a" d="M 628 4666 
L 1259 4666 
L 1259 325 
Q 1259 -519 939 -900 
Q 619 -1281 -91 -1281 
L -331 -1281 
L -331 -750 
L -134 -750 
Q 284 -750 456 -515 
Q 628 -281 628 325 
L 628 4666 
z
" transform="scale(0.015625)"/>
       <path id="DejaVuSans-75" d="M 544 1381 
L 544 3500 
L 1119 3500 
L 1119 1403 
Q 1119 906 1312 657 
Q 1506 409 1894 409 
Q 2359 409 2629 706 
Q 2900 1003 2900 1516 
L 2900 3500 
L 3475 3500 
L 3475 0 
L 2900 0 
L 2900 538 
Q 2691 219 2414 64 
Q 2138 -91 1772 -91 
Q 1169 -91 856 284 
Q 544 659 544 1381 
z
M 1991 3584 
L 1991 3584 
z
" transform="scale(0.015625)"/>
       <path id="DejaVuSans-70" d="M 1159 525 
L 1159 -1331 
L 581 -1331 
L 581 3500 
L 1159 3500 
L 1159 2969 
Q 1341 3281 1617 3432 
Q 1894 3584 2278 3584 
Q 2916 3584 3314 3078 
Q 3713 2572 3713 1747 
Q 3713 922 3314 415 
Q 2916 -91 2278 -91 
Q 1894 -91 1617 61 
Q 1341 213 1159 525 
z
M 3116 1747 
Q 3116 2381 2855 2742 
Q 2594 3103 2138 3103 
Q 1681 3103 1420 2742 
Q 1159 2381 1159 1747 
Q 1159 1113 1420 752 
Q 1681 391 2138 391 
Q 2594 391 2855 752 
Q 3116 1113 3116 1747 
z
" transform="scale(0.015625)"/>
       <path id="DejaVuSans-69" d="M 603 3500 
L 1178 3500 
L 1178 0 
L 603 0 
L 603 3500 
z
M 603 4863 
L 1178 4863 
L 1178 4134 
L 603 4134 
L 603 4863 
z
" transform="scale(0.015625)"/>
      </defs>
      <use xlink:href="#DejaVuSans-4a"/>
      <use xlink:href="#DejaVuSans-75" x="29.492188"/>
      <use xlink:href="#DejaVuSans-70" x="92.871094"/>
      <use xlink:href="#DejaVuSans-69" x="156.347656"/>
      <use xlink:href="#DejaVuSans-74" x="184.130859"/>
      <use xlink:href="#DejaVuSans-65" x="223.339844"/>
      <use xlink:href="#DejaVuSans-72" x="284.863281"/>
     </g>
    </g>
    <g id="line2d_29">
     <path d="M 51.642187 74.93125 
L 61.642187 74.93125 
L 71.642187 74.93125 
" style="fill: none; stroke: #1f77b4; stroke-width: 1.5; stroke-linecap: square"/>
    </g>
    <g id="text_26">
     <!-- Juno cruise -->
     <g transform="translate(79.642187 78.43125) scale(0.1 -0.1)">
      <defs>
       <path id="DejaVuSans-6e" d="M 3513 2113 
L 3513 0 
L 2938 0 
L 2938 2094 
Q 2938 2591 2744 2837 
Q 2550 3084 2163 3084 
Q 1697 3084 1428 2787 
Q 1159 2491 1159 1978 
L 1159 0 
L 581 0 
L 581 3500 
L 1159 3500 
L 1159 2956 
Q 1366 3272 1645 3428 
Q 1925 3584 2291 3584 
Q 2894 3584 3203 3211 
Q 3513 2838 3513 2113 
z
" transform="scale(0.015625)"/>
       <path id="DejaVuSans-6f" d="M 1959 3097 
Q 1497 3097 1228 2736 
Q 959 2375 959 1747 
Q 959 1119 1226 758 
Q 1494 397 1959 397 
Q 2419 397 2687 759 
Q 2956 1122 2956 1747 
Q 2956 2369 2687 2733 
Q 2419 3097 1959 3097 
z
M 1959 3584 
Q 2709 3584 3137 3096 
Q 3566 2609 3566 1747 
Q 3566 888 3137 398 
Q 2709 -91 1959 -91 
Q 1206 -91 779 398 
Q 353 888 353 1747 
Q 353 2609 779 3096 
Q 1206 3584 1959 3584 
z
" transform="scale(0.015625)"/>
       <path id="DejaVuSans-63" d="M 3122 3366 
L 3122 2828 
Q 2878 2963 2633 3030 
Q 2388 3097 2138 3097 
Q 1578 3097 1268 2742 
Q 959 2388 959 1747 
Q 959 1106 1268 751 
Q 1578 397 2138 397 
Q 2388 397 2633 464 
Q 2878 531 3122 666 
L 3122 134 
Q 2881 22 2623 -34 
Q 2366 -91 2075 -91 
Q 1284 -91 818 406 
Q 353 903 353 1747 
Q 353 2603 823 3093 
Q 1294 3584 2113 3584 
Q 2378 3584 2631 3529 
Q 2884 3475 3122 3366 
z
" transform="scale(0.015625)"/>
      </defs>
      <use xlink:href="#DejaVuSans-4a"/>
      <use xlink:href="#DejaVuSans-75" x="29.492188"/>
      <use xlink:href="#DejaVuSans-6e" x="92.871094"/>
      <use xlink:href="#DejaVuSans-6f" x="156.25"/>
      <use xlink:href="#DejaVuSans-20" x="217.431641"/>
      <use xlink:href="#DejaVuSans-63" x="249.21875"/>
      <use xlink:href="#DejaVuSans-72" x="304.199219"/>
      <use xlink:href="#DejaVuSans-75" x="345.3125"/>
      <use xlink:href="#DejaVuSans-69" x="408.691406"/>
      <use xlink:href="#DejaVuSans-73" x="436.474609"/>
      <use xlink:href="#DejaVuSans-65" x="488.574219"/>
     </g>
    </g>
   </g>
  </g>
 </g>
 <defs>
  <clipPath id="p42d180bfca">
   <rect x="42.642187" y="17.798437" width="332.289578" height="332.64"/>
  </clipPath>
 </defs>
</svg>
