<?xml version="1.0" encoding="utf-8" standalone="no"?>
<!DOCTYPE svg PUBLIC "-//W3C//DTD SVG 1.1//EN"
  "http://www.w3.org/Graphics/SVG/1.1/DTD/svg11.dtd">
<svg xmlns:xlink="http://www.w3.org/1999/xlink" width="797.071125pt" height="300.126638pt" viewBox="0 0 797.071125 300.126638" xmlns="http://www.w3.org/2000/svg" version="1.1">
 <metadata>
  <rdf:RDF xmlns:dc="http://purl.org/dc/elements/1.1/" xmlns:cc="http://creativecommons.org/ns#" xmlns:rdf="http://www.w3.org/1999/02/22-rdf-syntax-ns#">
   <cc:Work>
    <dc:type rdf:resource="http://purl.org/dc/dcmitype/StillImage"/>
    <dc:date>2024-01-20T13:33:38.011342</dc:date>
    <dc:format>image/svg+xml</dc:format>
    <dc:creator>
     <cc:Agent>
      <dc:title>Matplotlib v3.7.3, https://matplotlib.org/</dc:title>
     </cc:Agent>
    </dc:creator>
   </cc:Work>
  </rdf:RDF>
 </metadata>
 <defs>
  <style type="text/css">*{stroke-linejoin: round; stroke-linecap: butt}</style>
 </defs>
 <g id="figure_1">
  <g id="patch_1">
   <path d="M 0 300.126638 
L 797.071125 300.126638 
L 797.071125 0 
L 0 0 
z
" style="fill: #ffffff"/>
  </g>
  <g id="axes_1">
   <g id="patch_2">
    <path d="M 59.071125 138.125931 
L 793.471125 138.125931 
L 793.471125 4.212888 
L 59.071125 4.212888 
z
" style="fill: #ffffff"/>
   </g>
   <g id="matplotlib.axis_1">
    <g id="xtick_1">
     <g id="line2d_1">
      <defs>
       <path id="m8e0b89c85d" d="M 0 0 
L 0 -6 
" style="stroke: #000000"/>
      </defs>
      <g>
       <use xlink:href="#m8e0b89c85d" x="149.019681" y="138.125931" style="stroke: #000000"/>
      </g>
     </g>
     <g id="line2d_2">
      <defs>
       <path id="m9f08b7a02f" d="M 0 0 
L 0 6 
" style="stroke: #000000"/>
      </defs>
      <g>
       <use xlink:href="#m9f08b7a02f" x="149.019681" y="4.212888" style="stroke: #000000"/>
      </g>
     </g>
    </g>
    <g id="xtick_2">
     <g id="line2d_3">
      <g>
       <use xlink:href="#m8e0b89c85d" x="285.226431" y="138.125931" style="stroke: #000000"/>
      </g>
     </g>
     <g id="line2d_4">
      <g>
       <use xlink:href="#m9f08b7a02f" x="285.226431" y="4.212888" style="stroke: #000000"/>
      </g>
     </g>
    </g>
    <g id="xtick_3">
     <g id="line2d_5">
      <g>
       <use xlink:href="#m8e0b89c85d" x="421.061031" y="138.125931" style="stroke: #000000"/>
      </g>
     </g>
     <g id="line2d_6">
      <g>
       <use xlink:href="#m9f08b7a02f" x="421.061031" y="4.212888" style="stroke: #000000"/>
      </g>
     </g>
    </g>
    <g id="xtick_4">
     <g id="line2d_7">
      <g>
       <use xlink:href="#m8e0b89c85d" x="556.895631" y="138.125931" style="stroke: #000000"/>
      </g>
     </g>
     <g id="line2d_8">
      <g>
       <use xlink:href="#m9f08b7a02f" x="556.895631" y="4.212888" style="stroke: #000000"/>
      </g>
     </g>
    </g>
    <g id="xtick_5">
     <g id="line2d_9">
      <g>
       <use xlink:href="#m8e0b89c85d" x="692.730231" y="138.125931" style="stroke: #000000"/>
      </g>
     </g>
     <g id="line2d_10">
      <g>
       <use xlink:href="#m9f08b7a02f" x="692.730231" y="4.212888" style="stroke: #000000"/>
      </g>
     </g>
    </g>
    <g id="xtick_6">
     <g id="line2d_11">
      <defs>
       <path id="me87bfcd85d" d="M 0 0 
L 0 -3 
" style="stroke: #000000"/>
      </defs>
      <g>
       <use xlink:href="#me87bfcd85d" x="81.102381" y="138.125931" style="stroke: #000000"/>
      </g>
     </g>
     <g id="line2d_12">
      <defs>
       <path id="mbd4d75787d" d="M 0 0 
L 0 3 
" style="stroke: #000000"/>
      </defs>
      <g>
       <use xlink:href="#mbd4d75787d" x="81.102381" y="4.212888" style="stroke: #000000"/>
      </g>
     </g>
    </g>
    <g id="xtick_7">
     <g id="line2d_13">
      <g>
       <use xlink:href="#me87bfcd85d" x="115.061031" y="138.125931" style="stroke: #000000"/>
      </g>
     </g>
     <g id="line2d_14">
      <g>
       <use xlink:href="#mbd4d75787d" x="115.061031" y="4.212888" style="stroke: #000000"/>
      </g>
     </g>
    </g>
    <g id="xtick_8">
     <g id="line2d_15">
      <g>
       <use xlink:href="#me87bfcd85d" x="182.978331" y="138.125931" style="stroke: #000000"/>
      </g>
     </g>
     <g id="line2d_16">
      <g>
       <use xlink:href="#mbd4d75787d" x="182.978331" y="4.212888" style="stroke: #000000"/>
      </g>
     </g>
    </g>
    <g id="xtick_9">
     <g id="line2d_17">
      <g>
       <use xlink:href="#me87bfcd85d" x="216.936981" y="138.125931" style="stroke: #000000"/>
      </g>
     </g>
     <g id="line2d_18">
      <g>
       <use xlink:href="#mbd4d75787d" x="216.936981" y="4.212888" style="stroke: #000000"/>
      </g>
     </g>
    </g>
    <g id="xtick_10">
     <g id="line2d_19">
      <g>
       <use xlink:href="#me87bfcd85d" x="250.895631" y="138.125931" style="stroke: #000000"/>
      </g>
     </g>
     <g id="line2d_20">
      <g>
       <use xlink:href="#mbd4d75787d" x="250.895631" y="4.212888" style="stroke: #000000"/>
      </g>
     </g>
    </g>
    <g id="xtick_11">
     <g id="line2d_21">
      <g>
       <use xlink:href="#me87bfcd85d" x="284.854281" y="138.125931" style="stroke: #000000"/>
      </g>
     </g>
     <g id="line2d_22">
      <g>
       <use xlink:href="#mbd4d75787d" x="284.854281" y="4.212888" style="stroke: #000000"/>
      </g>
     </g>
    </g>
    <g id="xtick_12">
     <g id="line2d_23">
      <g>
       <use xlink:href="#me87bfcd85d" x="318.812931" y="138.125931" style="stroke: #000000"/>
      </g>
     </g>
     <g id="line2d_24">
      <g>
       <use xlink:href="#mbd4d75787d" x="318.812931" y="4.212888" style="stroke: #000000"/>
      </g>
     </g>
    </g>
    <g id="xtick_13">
     <g id="line2d_25">
      <g>
       <use xlink:href="#me87bfcd85d" x="352.771581" y="138.125931" style="stroke: #000000"/>
      </g>
     </g>
     <g id="line2d_26">
      <g>
       <use xlink:href="#mbd4d75787d" x="352.771581" y="4.212888" style="stroke: #000000"/>
      </g>
     </g>
    </g>
    <g id="xtick_14">
     <g id="line2d_27">
      <g>
       <use xlink:href="#me87bfcd85d" x="386.730231" y="138.125931" style="stroke: #000000"/>
      </g>
     </g>
     <g id="line2d_28">
      <g>
       <use xlink:href="#mbd4d75787d" x="386.730231" y="4.212888" style="stroke: #000000"/>
      </g>
     </g>
    </g>
    <g id="xtick_15">
     <g id="line2d_29">
      <g>
       <use xlink:href="#me87bfcd85d" x="420.688881" y="138.125931" style="stroke: #000000"/>
      </g>
     </g>
     <g id="line2d_30">
      <g>
       <use xlink:href="#mbd4d75787d" x="420.688881" y="4.212888" style="stroke: #000000"/>
      </g>
     </g>
    </g>
    <g id="xtick_16">
     <g id="line2d_31">
      <g>
       <use xlink:href="#me87bfcd85d" x="454.647531" y="138.125931" style="stroke: #000000"/>
      </g>
     </g>
     <g id="line2d_32">
      <g>
       <use xlink:href="#mbd4d75787d" x="454.647531" y="4.212888" style="stroke: #000000"/>
      </g>
     </g>
    </g>
    <g id="xtick_17">
     <g id="line2d_33">
      <g>
       <use xlink:href="#me87bfcd85d" x="488.606181" y="138.125931" style="stroke: #000000"/>
      </g>
     </g>
     <g id="line2d_34">
      <g>
       <use xlink:href="#mbd4d75787d" x="488.606181" y="4.212888" style="stroke: #000000"/>
      </g>
     </g>
    </g>
    <g id="xtick_18">
     <g id="line2d_35">
      <g>
       <use xlink:href="#me87bfcd85d" x="522.564831" y="138.125931" style="stroke: #000000"/>
      </g>
     </g>
     <g id="line2d_36">
      <g>
       <use xlink:href="#mbd4d75787d" x="522.564831" y="4.212888" style="stroke: #000000"/>
      </g>
     </g>
    </g>
    <g id="xtick_19">
     <g id="line2d_37">
      <g>
       <use xlink:href="#me87bfcd85d" x="556.523481" y="138.125931" style="stroke: #000000"/>
      </g>
     </g>
     <g id="line2d_38">
      <g>
       <use xlink:href="#mbd4d75787d" x="556.523481" y="4.212888" style="stroke: #000000"/>
      </g>
     </g>
    </g>
    <g id="xtick_20">
     <g id="line2d_39">
      <g>
       <use xlink:href="#me87bfcd85d" x="590.482131" y="138.125931" style="stroke: #000000"/>
      </g>
     </g>
     <g id="line2d_40">
      <g>
       <use xlink:href="#mbd4d75787d" x="590.482131" y="4.212888" style="stroke: #000000"/>
      </g>
     </g>
    </g>
    <g id="xtick_21">
     <g id="line2d_41">
      <g>
       <use xlink:href="#me87bfcd85d" x="624.440781" y="138.125931" style="stroke: #000000"/>
      </g>
     </g>
     <g id="line2d_42">
      <g>
       <use xlink:href="#mbd4d75787d" x="624.440781" y="4.212888" style="stroke: #000000"/>
      </g>
     </g>
    </g>
    <g id="xtick_22">
     <g id="line2d_43">
      <g>
       <use xlink:href="#me87bfcd85d" x="658.399431" y="138.125931" style="stroke: #000000"/>
      </g>
     </g>
     <g id="line2d_44">
      <g>
       <use xlink:href="#mbd4d75787d" x="658.399431" y="4.212888" style="stroke: #000000"/>
      </g>
     </g>
    </g>
    <g id="xtick_23">
     <g id="line2d_45">
      <g>
       <use xlink:href="#me87bfcd85d" x="692.358082" y="138.125931" style="stroke: #000000"/>
      </g>
     </g>
     <g id="line2d_46">
      <g>
       <use xlink:href="#mbd4d75787d" x="692.358082" y="4.212888" style="stroke: #000000"/>
      </g>
     </g>
    </g>
    <g id="xtick_24">
     <g id="line2d_47">
      <g>
       <use xlink:href="#me87bfcd85d" x="726.316732" y="138.125931" style="stroke: #000000"/>
      </g>
     </g>
     <g id="line2d_48">
      <g>
       <use xlink:href="#mbd4d75787d" x="726.316732" y="4.212888" style="stroke: #000000"/>
      </g>
     </g>
    </g>
    <g id="xtick_25">
     <g id="line2d_49">
      <g>
       <use xlink:href="#me87bfcd85d" x="760.275382" y="138.125931" style="stroke: #000000"/>
      </g>
     </g>
     <g id="line2d_50">
      <g>
       <use xlink:href="#mbd4d75787d" x="760.275382" y="4.212888" style="stroke: #000000"/>
      </g>
     </g>
    </g>
   </g>
   <g id="matplotlib.axis_2">
    <g id="ytick_1">
     <g id="line2d_51">
      <defs>
       <path id="m7953b85ad8" d="M 0 0 
L 6 0 
" style="stroke: #000000"/>
      </defs>
      <g>
       <use xlink:href="#m7953b85ad8" x="59.071125" y="122.334097" style="stroke: #000000"/>
      </g>
     </g>
     <g id="line2d_52">
      <defs>
       <path id="m3528f083a5" d="M 0 0 
L -6 0 
" style="stroke: #000000"/>
      </defs>
      <g>
       <use xlink:href="#m3528f083a5" x="793.471125" y="122.334097" style="stroke: #000000"/>
      </g>
     </g>
     <g id="text_1">
      <!-- $\mathdefault{300}$ -->
      <g transform="translate(32.651125 126.893159) scale(0.12 -0.12)">
       <defs>
        <path id="DejaVuSans-33" d="M 2597 2516 
Q 3050 2419 3304 2112 
Q 3559 1806 3559 1356 
Q 3559 666 3084 287 
Q 2609 -91 1734 -91 
Q 1441 -91 1130 -33 
Q 819 25 488 141 
L 488 750 
Q 750 597 1062 519 
Q 1375 441 1716 441 
Q 2309 441 2620 675 
Q 2931 909 2931 1356 
Q 2931 1769 2642 2001 
Q 2353 2234 1838 2234 
L 1294 2234 
L 1294 2753 
L 1863 2753 
Q 2328 2753 2575 2939 
Q 2822 3125 2822 3475 
Q 2822 3834 2567 4026 
Q 2313 4219 1838 4219 
Q 1578 4219 1281 4162 
Q 984 4106 628 3988 
L 628 4550 
Q 988 4650 1302 4700 
Q 1616 4750 1894 4750 
Q 2613 4750 3031 4423 
Q 3450 4097 3450 3541 
Q 3450 3153 3228 2886 
Q 3006 2619 2597 2516 
z
" transform="scale(0.015625)"/>
        <path id="DejaVuSans-30" d="M 2034 4250 
Q 1547 4250 1301 3770 
Q 1056 3291 1056 2328 
Q 1056 1369 1301 889 
Q 1547 409 2034 409 
Q 2525 409 2770 889 
Q 3016 1369 3016 2328 
Q 3016 3291 2770 3770 
Q 2525 4250 2034 4250 
z
M 2034 4750 
Q 2819 4750 3233 4129 
Q 3647 3509 3647 2328 
Q 3647 1150 3233 529 
Q 2819 -91 2034 -91 
Q 1250 -91 836 529 
Q 422 1150 422 2328 
Q 422 3509 836 4129 
Q 1250 4750 2034 4750 
z
" transform="scale(0.015625)"/>
       </defs>
       <use xlink:href="#DejaVuSans-33" transform="translate(0 0.78125)"/>
       <use xlink:href="#DejaVuSans-30" transform="translate(63.623047 0.78125)"/>
       <use xlink:href="#DejaVuSans-30" transform="translate(127.246094 0.78125)"/>
      </g>
     </g>
    </g>
    <g id="ytick_2">
     <g id="line2d_53">
      <g>
       <use xlink:href="#m7953b85ad8" x="59.071125" y="93.790338" style="stroke: #000000"/>
      </g>
     </g>
     <g id="line2d_54">
      <g>
       <use xlink:href="#m3528f083a5" x="793.471125" y="93.790338" style="stroke: #000000"/>
      </g>
     </g>
     <g id="text_2">
      <!-- $\mathdefault{400}$ -->
      <g transform="translate(32.651125 98.349401) scale(0.12 -0.12)">
       <defs>
        <path id="DejaVuSans-34" d="M 2419 4116 
L 825 1625 
L 2419 1625 
L 2419 4116 
z
M 2253 4666 
L 3047 4666 
L 3047 1625 
L 3713 1625 
L 3713 1100 
L 3047 1100 
L 3047 0 
L 2419 0 
L 2419 1100 
L 313 1100 
L 313 1709 
L 2253 4666 
z
" transform="scale(0.015625)"/>
       </defs>
       <use xlink:href="#DejaVuSans-34" transform="translate(0 0.78125)"/>
       <use xlink:href="#DejaVuSans-30" transform="translate(63.623047 0.78125)"/>
       <use xlink:href="#DejaVuSans-30" transform="translate(127.246094 0.78125)"/>
      </g>
     </g>
    </g>
    <g id="ytick_3">
     <g id="line2d_55">
      <g>
       <use xlink:href="#m7953b85ad8" x="59.071125" y="65.24658" style="stroke: #000000"/>
      </g>
     </g>
     <g id="line2d_56">
      <g>
       <use xlink:href="#m3528f083a5" x="793.471125" y="65.24658" style="stroke: #000000"/>
      </g>
     </g>
     <g id="text_3">
      <!-- $\mathdefault{500}$ -->
      <g transform="translate(32.651125 69.805642) scale(0.12 -0.12)">
       <defs>
        <path id="DejaVuSans-35" d="M 691 4666 
L 3169 4666 
L 3169 4134 
L 1269 4134 
L 1269 2991 
Q 1406 3038 1543 3061 
Q 1681 3084 1819 3084 
Q 2600 3084 3056 2656 
Q 3513 2228 3513 1497 
Q 3513 744 3044 326 
Q 2575 -91 1722 -91 
Q 1428 -91 1123 -41 
Q 819 9 494 109 
L 494 744 
Q 775 591 1075 516 
Q 1375 441 1709 441 
Q 2250 441 2565 725 
Q 2881 1009 2881 1497 
Q 2881 1984 2565 2268 
Q 2250 2553 1709 2553 
Q 1456 2553 1204 2497 
Q 953 2441 691 2322 
L 691 4666 
z
" transform="scale(0.015625)"/>
       </defs>
       <use xlink:href="#DejaVuSans-35" transform="translate(0 0.78125)"/>
       <use xlink:href="#DejaVuSans-30" transform="translate(63.623047 0.78125)"/>
       <use xlink:href="#DejaVuSans-30" transform="translate(127.246094 0.78125)"/>
      </g>
     </g>
    </g>
    <g id="ytick_4">
     <g id="line2d_57">
      <g>
       <use xlink:href="#m7953b85ad8" x="59.071125" y="36.702821" style="stroke: #000000"/>
      </g>
     </g>
     <g id="line2d_58">
      <g>
       <use xlink:href="#m3528f083a5" x="793.471125" y="36.702821" style="stroke: #000000"/>
      </g>
     </g>
     <g id="text_4">
      <!-- $\mathdefault{600}$ -->
      <g transform="translate(32.651125 41.261884) scale(0.12 -0.12)">
       <defs>
        <path id="DejaVuSans-36" d="M 2113 2584 
Q 1688 2584 1439 2293 
Q 1191 2003 1191 1497 
Q 1191 994 1439 701 
Q 1688 409 2113 409 
Q 2538 409 2786 701 
Q 3034 994 3034 1497 
Q 3034 2003 2786 2293 
Q 2538 2584 2113 2584 
z
M 3366 4563 
L 3366 3988 
Q 3128 4100 2886 4159 
Q 2644 4219 2406 4219 
Q 1781 4219 1451 3797 
Q 1122 3375 1075 2522 
Q 1259 2794 1537 2939 
Q 1816 3084 2150 3084 
Q 2853 3084 3261 2657 
Q 3669 2231 3669 1497 
Q 3669 778 3244 343 
Q 2819 -91 2113 -91 
Q 1303 -91 875 529 
Q 447 1150 447 2328 
Q 447 3434 972 4092 
Q 1497 4750 2381 4750 
Q 2619 4750 2861 4703 
Q 3103 4656 3366 4563 
z
" transform="scale(0.015625)"/>
       </defs>
       <use xlink:href="#DejaVuSans-36" transform="translate(0 0.78125)"/>
       <use xlink:href="#DejaVuSans-30" transform="translate(63.623047 0.78125)"/>
       <use xlink:href="#DejaVuSans-30" transform="translate(127.246094 0.78125)"/>
      </g>
     </g>
    </g>
    <g id="ytick_5">
     <g id="line2d_59">
      <g>
       <use xlink:href="#m7953b85ad8" x="59.071125" y="8.159063" style="stroke: #000000"/>
      </g>
     </g>
     <g id="line2d_60">
      <g>
       <use xlink:href="#m3528f083a5" x="793.471125" y="8.159063" style="stroke: #000000"/>
      </g>
     </g>
     <g id="text_5">
      <!-- $\mathdefault{700}$ -->
      <g transform="translate(32.651125 12.718125) scale(0.12 -0.12)">
       <defs>
        <path id="DejaVuSans-37" d="M 525 4666 
L 3525 4666 
L 3525 4397 
L 1831 0 
L 1172 0 
L 2766 4134 
L 525 4134 
L 525 4666 
z
" transform="scale(0.015625)"/>
       </defs>
       <use xlink:href="#DejaVuSans-37" transform="translate(0 0.78125)"/>
       <use xlink:href="#DejaVuSans-30" transform="translate(63.623047 0.78125)"/>
       <use xlink:href="#DejaVuSans-30" transform="translate(127.246094 0.78125)"/>
      </g>
     </g>
    </g>
    <g id="ytick_6">
     <g id="line2d_61">
      <defs>
       <path id="m93d07a652a" d="M 0 0 
L 3 0 
" style="stroke: #000000"/>
      </defs>
      <g>
       <use xlink:href="#m93d07a652a" x="59.071125" y="133.7516" style="stroke: #000000"/>
      </g>
     </g>
     <g id="line2d_62">
      <defs>
       <path id="m0a1f4d1e7a" d="M 0 0 
L -3 0 
" style="stroke: #000000"/>
      </defs>
      <g>
       <use xlink:href="#m0a1f4d1e7a" x="793.471125" y="133.7516" style="stroke: #000000"/>
      </g>
     </g>
    </g>
    <g id="ytick_7">
     <g id="line2d_63">
      <g>
       <use xlink:href="#m93d07a652a" x="59.071125" y="128.042849" style="stroke: #000000"/>
      </g>
     </g>
     <g id="line2d_64">
      <g>
       <use xlink:href="#m0a1f4d1e7a" x="793.471125" y="128.042849" style="stroke: #000000"/>
      </g>
     </g>
    </g>
    <g id="ytick_8">
     <g id="line2d_65">
      <g>
       <use xlink:href="#m93d07a652a" x="59.071125" y="116.625345" style="stroke: #000000"/>
      </g>
     </g>
     <g id="line2d_66">
      <g>
       <use xlink:href="#m0a1f4d1e7a" x="793.471125" y="116.625345" style="stroke: #000000"/>
      </g>
     </g>
    </g>
    <g id="ytick_9">
     <g id="line2d_67">
      <g>
       <use xlink:href="#m93d07a652a" x="59.071125" y="110.916593" style="stroke: #000000"/>
      </g>
     </g>
     <g id="line2d_68">
      <g>
       <use xlink:href="#m0a1f4d1e7a" x="793.471125" y="110.916593" style="stroke: #000000"/>
      </g>
     </g>
    </g>
    <g id="ytick_10">
     <g id="line2d_69">
      <g>
       <use xlink:href="#m93d07a652a" x="59.071125" y="105.207842" style="stroke: #000000"/>
      </g>
     </g>
     <g id="line2d_70">
      <g>
       <use xlink:href="#m0a1f4d1e7a" x="793.471125" y="105.207842" style="stroke: #000000"/>
      </g>
     </g>
    </g>
    <g id="ytick_11">
     <g id="line2d_71">
      <g>
       <use xlink:href="#m93d07a652a" x="59.071125" y="99.49909" style="stroke: #000000"/>
      </g>
     </g>
     <g id="line2d_72">
      <g>
       <use xlink:href="#m0a1f4d1e7a" x="793.471125" y="99.49909" style="stroke: #000000"/>
      </g>
     </g>
    </g>
    <g id="ytick_12">
     <g id="line2d_73">
      <g>
       <use xlink:href="#m93d07a652a" x="59.071125" y="88.081587" style="stroke: #000000"/>
      </g>
     </g>
     <g id="line2d_74">
      <g>
       <use xlink:href="#m0a1f4d1e7a" x="793.471125" y="88.081587" style="stroke: #000000"/>
      </g>
     </g>
    </g>
    <g id="ytick_13">
     <g id="line2d_75">
      <g>
       <use xlink:href="#m93d07a652a" x="59.071125" y="82.372835" style="stroke: #000000"/>
      </g>
     </g>
     <g id="line2d_76">
      <g>
       <use xlink:href="#m0a1f4d1e7a" x="793.471125" y="82.372835" style="stroke: #000000"/>
      </g>
     </g>
    </g>
    <g id="ytick_14">
     <g id="line2d_77">
      <g>
       <use xlink:href="#m93d07a652a" x="59.071125" y="76.664083" style="stroke: #000000"/>
      </g>
     </g>
     <g id="line2d_78">
      <g>
       <use xlink:href="#m0a1f4d1e7a" x="793.471125" y="76.664083" style="stroke: #000000"/>
      </g>
     </g>
    </g>
    <g id="ytick_15">
     <g id="line2d_79">
      <g>
       <use xlink:href="#m93d07a652a" x="59.071125" y="70.955331" style="stroke: #000000"/>
      </g>
     </g>
     <g id="line2d_80">
      <g>
       <use xlink:href="#m0a1f4d1e7a" x="793.471125" y="70.955331" style="stroke: #000000"/>
      </g>
     </g>
    </g>
    <g id="ytick_16">
     <g id="line2d_81">
      <g>
       <use xlink:href="#m93d07a652a" x="59.071125" y="59.537828" style="stroke: #000000"/>
      </g>
     </g>
     <g id="line2d_82">
      <g>
       <use xlink:href="#m0a1f4d1e7a" x="793.471125" y="59.537828" style="stroke: #000000"/>
      </g>
     </g>
    </g>
    <g id="ytick_17">
     <g id="line2d_83">
      <g>
       <use xlink:href="#m93d07a652a" x="59.071125" y="53.829076" style="stroke: #000000"/>
      </g>
     </g>
     <g id="line2d_84">
      <g>
       <use xlink:href="#m0a1f4d1e7a" x="793.471125" y="53.829076" style="stroke: #000000"/>
      </g>
     </g>
    </g>
    <g id="ytick_18">
     <g id="line2d_85">
      <g>
       <use xlink:href="#m93d07a652a" x="59.071125" y="48.120325" style="stroke: #000000"/>
      </g>
     </g>
     <g id="line2d_86">
      <g>
       <use xlink:href="#m0a1f4d1e7a" x="793.471125" y="48.120325" style="stroke: #000000"/>
      </g>
     </g>
    </g>
    <g id="ytick_19">
     <g id="line2d_87">
      <g>
       <use xlink:href="#m93d07a652a" x="59.071125" y="42.411573" style="stroke: #000000"/>
      </g>
     </g>
     <g id="line2d_88">
      <g>
       <use xlink:href="#m0a1f4d1e7a" x="793.471125" y="42.411573" style="stroke: #000000"/>
      </g>
     </g>
    </g>
    <g id="ytick_20">
     <g id="line2d_89">
      <g>
       <use xlink:href="#m93d07a652a" x="59.071125" y="30.994069" style="stroke: #000000"/>
      </g>
     </g>
     <g id="line2d_90">
      <g>
       <use xlink:href="#m0a1f4d1e7a" x="793.471125" y="30.994069" style="stroke: #000000"/>
      </g>
     </g>
    </g>
    <g id="ytick_21">
     <g id="line2d_91">
      <g>
       <use xlink:href="#m93d07a652a" x="59.071125" y="25.285318" style="stroke: #000000"/>
      </g>
     </g>
     <g id="line2d_92">
      <g>
       <use xlink:href="#m0a1f4d1e7a" x="793.471125" y="25.285318" style="stroke: #000000"/>
      </g>
     </g>
    </g>
    <g id="ytick_22">
     <g id="line2d_93">
      <g>
       <use xlink:href="#m93d07a652a" x="59.071125" y="19.576566" style="stroke: #000000"/>
      </g>
     </g>
     <g id="line2d_94">
      <g>
       <use xlink:href="#m0a1f4d1e7a" x="793.471125" y="19.576566" style="stroke: #000000"/>
      </g>
     </g>
    </g>
    <g id="ytick_23">
     <g id="line2d_95">
      <g>
       <use xlink:href="#m93d07a652a" x="59.071125" y="13.867814" style="stroke: #000000"/>
      </g>
     </g>
     <g id="line2d_96">
      <g>
       <use xlink:href="#m0a1f4d1e7a" x="793.471125" y="13.867814" style="stroke: #000000"/>
      </g>
     </g>
    </g>
    <g id="text_6">
     <!-- Plasma Speed -->
     <g transform="translate(12.718125 113.49566) rotate(-90) scale(0.12 -0.12)">
      <defs>
       <path id="DejaVuSans-50" d="M 1259 4147 
L 1259 2394 
L 2053 2394 
Q 2494 2394 2734 2622 
Q 2975 2850 2975 3272 
Q 2975 3691 2734 3919 
Q 2494 4147 2053 4147 
L 1259 4147 
z
M 628 4666 
L 2053 4666 
Q 2838 4666 3239 4311 
Q 3641 3956 3641 3272 
Q 3641 2581 3239 2228 
Q 2838 1875 2053 1875 
L 1259 1875 
L 1259 0 
L 628 0 
L 628 4666 
z
" transform="scale(0.015625)"/>
       <path id="DejaVuSans-6c" d="M 603 4863 
L 1178 4863 
L 1178 0 
L 603 0 
L 603 4863 
z
" transform="scale(0.015625)"/>
       <path id="DejaVuSans-61" d="M 2194 1759 
Q 1497 1759 1228 1600 
Q 959 1441 959 1056 
Q 959 750 1161 570 
Q 1363 391 1709 391 
Q 2188 391 2477 730 
Q 2766 1069 2766 1631 
L 2766 1759 
L 2194 1759 
z
M 3341 1997 
L 3341 0 
L 2766 0 
L 2766 531 
Q 2569 213 2275 61 
Q 1981 -91 1556 -91 
Q 1019 -91 701 211 
Q 384 513 384 1019 
Q 384 1609 779 1909 
Q 1175 2209 1959 2209 
L 2766 2209 
L 2766 2266 
Q 2766 2663 2505 2880 
Q 2244 3097 1772 3097 
Q 1472 3097 1187 3025 
Q 903 2953 641 2809 
L 641 3341 
Q 956 3463 1253 3523 
Q 1550 3584 1831 3584 
Q 2591 3584 2966 3190 
Q 3341 2797 3341 1997 
z
" transform="scale(0.015625)"/>
       <path id="DejaVuSans-73" d="M 2834 3397 
L 2834 2853 
Q 2591 2978 2328 3040 
Q 2066 3103 1784 3103 
Q 1356 3103 1142 2972 
Q 928 2841 928 2578 
Q 928 2378 1081 2264 
Q 1234 2150 1697 2047 
L 1894 2003 
Q 2506 1872 2764 1633 
Q 3022 1394 3022 966 
Q 3022 478 2636 193 
Q 2250 -91 1575 -91 
Q 1294 -91 989 -36 
Q 684 19 347 128 
L 347 722 
Q 666 556 975 473 
Q 1284 391 1588 391 
Q 1994 391 2212 530 
Q 2431 669 2431 922 
Q 2431 1156 2273 1281 
Q 2116 1406 1581 1522 
L 1381 1569 
Q 847 1681 609 1914 
Q 372 2147 372 2553 
Q 372 3047 722 3315 
Q 1072 3584 1716 3584 
Q 2034 3584 2315 3537 
Q 2597 3491 2834 3397 
z
" transform="scale(0.015625)"/>
       <path id="DejaVuSans-6d" d="M 3328 2828 
Q 3544 3216 3844 3400 
Q 4144 3584 4550 3584 
Q 5097 3584 5394 3201 
Q 5691 2819 5691 2113 
L 5691 0 
L 5113 0 
L 5113 2094 
Q 5113 2597 4934 2840 
Q 4756 3084 4391 3084 
Q 3944 3084 3684 2787 
Q 3425 2491 3425 1978 
L 3425 0 
L 2847 0 
L 2847 2094 
Q 2847 2600 2669 2842 
Q 2491 3084 2119 3084 
Q 1678 3084 1418 2786 
Q 1159 2488 1159 1978 
L 1159 0 
L 581 0 
L 581 3500 
L 1159 3500 
L 1159 2956 
Q 1356 3278 1631 3431 
Q 1906 3584 2284 3584 
Q 2666 3584 2933 3390 
Q 3200 3197 3328 2828 
z
" transform="scale(0.015625)"/>
       <path id="DejaVuSans-20" transform="scale(0.015625)"/>
       <path id="DejaVuSans-53" d="M 3425 4513 
L 3425 3897 
Q 3066 4069 2747 4153 
Q 2428 4238 2131 4238 
Q 1616 4238 1336 4038 
Q 1056 3838 1056 3469 
Q 1056 3159 1242 3001 
Q 1428 2844 1947 2747 
L 2328 2669 
Q 3034 2534 3370 2195 
Q 3706 1856 3706 1288 
Q 3706 609 3251 259 
Q 2797 -91 1919 -91 
Q 1588 -91 1214 -16 
Q 841 59 441 206 
L 441 856 
Q 825 641 1194 531 
Q 1563 422 1919 422 
Q 2459 422 2753 634 
Q 3047 847 3047 1241 
Q 3047 1584 2836 1778 
Q 2625 1972 2144 2069 
L 1759 2144 
Q 1053 2284 737 2584 
Q 422 2884 422 3419 
Q 422 4038 858 4394 
Q 1294 4750 2059 4750 
Q 2388 4750 2728 4690 
Q 3069 4631 3425 4513 
z
" transform="scale(0.015625)"/>
       <path id="DejaVuSans-70" d="M 1159 525 
L 1159 -1331 
L 581 -1331 
L 581 3500 
L 1159 3500 
L 1159 2969 
Q 1341 3281 1617 3432 
Q 1894 3584 2278 3584 
Q 2916 3584 3314 3078 
Q 3713 2572 3713 1747 
Q 3713 922 3314 415 
Q 2916 -91 2278 -91 
Q 1894 -91 1617 61 
Q 1341 213 1159 525 
z
M 3116 1747 
Q 3116 2381 2855 2742 
Q 2594 3103 2138 3103 
Q 1681 3103 1420 2742 
Q 1159 2381 1159 1747 
Q 1159 1113 1420 752 
Q 1681 391 2138 391 
Q 2594 391 2855 752 
Q 3116 1113 3116 1747 
z
" transform="scale(0.015625)"/>
       <path id="DejaVuSans-65" d="M 3597 1894 
L 3597 1613 
L 953 1613 
Q 991 1019 1311 708 
Q 1631 397 2203 397 
Q 2534 397 2845 478 
Q 3156 559 3463 722 
L 3463 178 
Q 3153 47 2828 -22 
Q 2503 -91 2169 -91 
Q 1331 -91 842 396 
Q 353 884 353 1716 
Q 353 2575 817 3079 
Q 1281 3584 2069 3584 
Q 2775 3584 3186 3129 
Q 3597 2675 3597 1894 
z
M 3022 2063 
Q 3016 2534 2758 2815 
Q 2500 3097 2075 3097 
Q 1594 3097 1305 2825 
Q 1016 2553 972 2059 
L 3022 2063 
z
" transform="scale(0.015625)"/>
       <path id="DejaVuSans-64" d="M 2906 2969 
L 2906 4863 
L 3481 4863 
L 3481 0 
L 2906 0 
L 2906 525 
Q 2725 213 2448 61 
Q 2172 -91 1784 -91 
Q 1150 -91 751 415 
Q 353 922 353 1747 
Q 353 2572 751 3078 
Q 1150 3584 1784 3584 
Q 2172 3584 2448 3432 
Q 2725 3281 2906 2969 
z
M 947 1747 
Q 947 1113 1208 752 
Q 1469 391 1925 391 
Q 2381 391 2643 752 
Q 2906 1113 2906 1747 
Q 2906 2381 2643 2742 
Q 2381 3103 1925 3103 
Q 1469 3103 1208 2742 
Q 947 2381 947 1747 
z
" transform="scale(0.015625)"/>
      </defs>
      <use xlink:href="#DejaVuSans-50"/>
      <use xlink:href="#DejaVuSans-6c" x="60.302734"/>
      <use xlink:href="#DejaVuSans-61" x="88.085938"/>
      <use xlink:href="#DejaVuSans-73" x="149.365234"/>
      <use xlink:href="#DejaVuSans-6d" x="201.464844"/>
      <use xlink:href="#DejaVuSans-61" x="298.876953"/>
      <use xlink:href="#DejaVuSans-20" x="360.15625"/>
      <use xlink:href="#DejaVuSans-53" x="391.943359"/>
      <use xlink:href="#DejaVuSans-70" x="455.419922"/>
      <use xlink:href="#DejaVuSans-65" x="518.896484"/>
      <use xlink:href="#DejaVuSans-65" x="580.419922"/>
      <use xlink:href="#DejaVuSans-64" x="641.943359"/>
     </g>
     <!-- [km/s] -->
     <g transform="translate(26.1555 90.31691) rotate(-90) scale(0.12 -0.12)">
      <defs>
       <path id="DejaVuSans-5b" d="M 550 4863 
L 1875 4863 
L 1875 4416 
L 1125 4416 
L 1125 -397 
L 1875 -397 
L 1875 -844 
L 550 -844 
L 550 4863 
z
" transform="scale(0.015625)"/>
       <path id="DejaVuSans-6b" d="M 581 4863 
L 1159 4863 
L 1159 1991 
L 2875 3500 
L 3609 3500 
L 1753 1863 
L 3688 0 
L 2938 0 
L 1159 1709 
L 1159 0 
L 581 0 
L 581 4863 
z
" transform="scale(0.015625)"/>
       <path id="DejaVuSans-2f" d="M 1625 4666 
L 2156 4666 
L 531 -594 
L 0 -594 
L 1625 4666 
z
" transform="scale(0.015625)"/>
       <path id="DejaVuSans-5d" d="M 1947 4863 
L 1947 -844 
L 622 -844 
L 622 -397 
L 1369 -397 
L 1369 4416 
L 622 4416 
L 622 4863 
L 1947 4863 
z
" transform="scale(0.015625)"/>
      </defs>
      <use xlink:href="#DejaVuSans-5b"/>
      <use xlink:href="#DejaVuSans-6b" x="39.013672"/>
      <use xlink:href="#DejaVuSans-6d" x="96.923828"/>
      <use xlink:href="#DejaVuSans-2f" x="194.335938"/>
      <use xlink:href="#DejaVuSans-73" x="228.027344"/>
      <use xlink:href="#DejaVuSans-5d" x="280.126953"/>
     </g>
    </g>
   </g>
   <g id="line2d_97">
    <path d="M 92.452943 55.226525 
L 93.197242 104.149341 
L 93.941542 66.959205 
L 94.685841 52.883564 
L 95.43014 47.507829 
L 96.174439 89.663384 
L 96.918738 99.986715 
L 97.663037 74.380582 
L 98.407337 91.923104 
L 99.151636 100.64679 
M 100.640234 72.097082 
L 101.384533 87.552341 
L 102.128833 93.035115 
L 102.873132 79.143822 
L 103.617431 111.255551 
L 104.36173 115.691724 
L 105.850328 91.25113 
L 106.594628 100.533801 
L 107.338927 52.580287 
L 108.083226 37.309376 
L 108.827525 68.7313 
L 109.571824 81.790069 
L 110.316123 86.190563 
L 111.060423 97.608066 
L 111.804722 99.076883 
L 112.549021 111.433949 
L 113.29332 55.821199 
L 114.037619 61.684551 
L 114.781919 72.650117 
L 115.526218 81.468952 
L 116.270517 96.781483 
L 117.014816 100.884649 
L 117.759115 110.405187 
L 118.503414 107.092916 
L 119.247714 100.789509 
L 119.992013 90.323458 
L 120.736312 85.536438 
L 121.480611 99.320692 
L 122.22491 102.989751 
L 122.96921 120.020866 
L 123.713509 86.470051 
L 124.457808 87.992387 
L 125.202107 117.344889 
L 125.946406 106.522041 
L 126.690705 99.588289 
L 128.179304 121.477784 
L 128.923603 105.641948 
L 129.667902 105.33867 
L 130.412201 93.707089 
L 131.1565 100.081856 
L 131.9008 93.62978 
L 132.645099 93.635729 
L 133.389398 114.490513 
L 134.133697 118.552049 
L 134.877996 97.310738 
L 135.622296 95.051018 
L 136.366595 97.512917 
L 137.110894 83.00912 
L 137.855193 82.575023 
L 138.599492 84.822844 
L 139.343791 110.643046 
L 140.088091 121.299386 
L 140.83239 108.353605 
L 141.576689 77.264688 
L 142.320988 83.627574 
L 143.065287 110.13759 
L 143.809587 129.422467 
L 144.553886 111.100941 
L 145.298185 101.657712 
L 146.042484 102.644853 
L 146.786783 110.298148 
L 147.531082 132.038975 
L 148.275382 102.288056 
L 149.019681 103.923373 
L 149.76398 100.307833 
L 150.508279 112.46866 
L 151.252578 87.475032 
L 151.996878 85.26884 
L 152.741177 77.651224 
L 153.485476 77.948552 
L 154.229775 99.719118 
L 154.974074 84.341168 
L 155.718373 100.343512 
L 156.462673 113.324973 
L 157.206972 91.114361 
L 157.951271 57.926301 
L 158.69557 68.505323 
L 159.439869 82.90803 
L 160.184168 102.002618 
L 160.928468 95.473234 
L 161.672767 87.213383 
L 162.417066 91.245189 
L 163.161365 77.264688 
L 163.905664 86.327332 
L 164.649964 104.3099 
L 165.394263 100.284043 
L 166.138562 100.177004 
L 166.882861 115.317087 
L 167.62716 72.114922 
L 168.371459 74.975247 
L 169.115759 85.988375 
L 169.860058 88.587052 
L 170.604357 80.440182 
L 171.348656 78.929744 
L 172.837255 101.509043 
L 173.581554 86.351121 
L 174.325853 26.712506 
L 175.070152 71.448898 
L 175.814451 44.641554 
L 176.55875 46.752597 
L 177.30305 19.09489 
L 178.791648 87.998337 
L 179.535947 99.742898 
L 180.280246 91.536568 
L 181.024545 106.712339 
L 181.768845 98.155152 
L 182.513144 103.483326 
L 183.257443 109.988921 
L 184.001742 113.509321 
L 184.746041 110.654945 
L 185.490341 108.752022 
L 186.23464 112.890867 
L 186.978939 99.326641 
L 187.723238 44.522616 
L 188.467537 87.73668 
L 189.956136 109.067199 
L 190.700435 115.929591 
L 191.444734 88.028067 
L 192.189033 34.020903 
L 192.933332 76.366755 
L 193.677632 102.460505 
L 194.421931 122.619534 
L 195.16623 120.895019 
L 195.910529 121.251816 
L 196.654828 117.529228 
L 197.399127 48.798239 
L 198.143427 47.174813 
L 198.887726 77.193329 
L 199.632025 94.331483 
L 200.376324 98.071902 
L 201.120623 95.526753 
L 201.864923 102.621064 
L 202.609222 45.206488 
L 203.353521 84.198449 
L 204.09782 105.52301 
L 204.842119 93.207573 
L 205.586418 98.999574 
L 206.330718 110.767925 
L 207.075017 43.725781 
L 207.819316 16.74003 
L 208.563615 59.751906 
L 209.307914 88.807071 
L 210.052213 98.30382 
L 210.796513 109.982972 
L 211.540812 92.220432 
L 212.285111 82.117127 
L 213.02941 104.952134 
L 213.773709 91.340329 
L 214.518009 101.051157 
L 215.262308 87.992387 
L 216.006607 89.033048 
L 216.750906 37.333157 
L 217.495205 36.155727 
L 218.239504 62.213805 
L 218.983804 78.477798 
L 219.728103 88.93195 
L 220.472402 71.900843 
L 221.216701 94.176865 
L 221.961 69.082147 
L 222.7053 77.829623 
L 223.449599 85.025023 
L 224.193898 82.693952 
L 225.682496 68.517222 
L 226.426795 106.159303 
L 227.171095 105.873866 
L 227.915394 93.903327 
L 228.659693 92.33342 
L 229.403992 86.285711 
L 230.148291 107.87787 
L 230.89259 96.942042 
L 231.63689 113.985048 
L 232.381189 109.977031 
L 233.125488 78.28156 
L 233.869787 74.606551 
L 234.614086 93.5941 
L 235.358386 61.476431 
L 236.102685 90.067759 
L 236.846984 95.853811 
L 237.591283 54.643769 
L 238.335582 54.072893 
L 239.079881 75.593692 
L 239.824181 112.730309 
L 240.56848 110.809554 
L 241.312779 76.051579 
L 242.057078 95.282936 
L 242.801377 104.25638 
L 243.545677 116.345857 
L 244.289976 112.201063 
L 245.034275 85.387769 
L 245.778574 90.614845 
L 246.522873 98.773606 
L 247.267172 66.275341 
L 248.011472 92.018244 
L 248.755771 110.684675 
L 249.50007 96.811222 
L 250.244369 114.96029 
L 250.988668 112.331891 
L 251.732968 115.596583 
L 252.477267 120.228995 
L 253.221566 114.966239 
L 253.965865 95.187796 
L 254.710164 69.385425 
L 255.454463 62.766841 
L 256.198763 70.479605 
L 256.943062 89.746642 
L 257.687361 61.60131 
L 258.43166 105.980905 
L 259.175959 105.130533 
L 259.920258 111.404219 
L 260.664558 115.531165 
L 261.408857 117.677896 
L 262.153156 124.891145 
L 262.897455 114.276435 
L 263.641754 118.772077 
M 265.130353 83.901112 
L 265.874652 112.230793 
L 266.618951 122.714683 
L 267.36325 94.325534 
L 268.107549 86.333281 
L 268.851849 91.857685 
L 269.596148 94.212545 
L 270.340447 98.202731 
L 271.084746 106.230663 
L 271.829045 80.119064 
L 272.573345 91.988514 
L 273.317644 109.911612 
L 274.061943 115.441966 
L 274.806242 103.566576 
L 275.550541 111.451789 
L 276.29484 127.418454 
L 277.03914 120.88312 
L 277.783439 125.349031 
L 278.527738 120.912858 
L 279.272037 104.577498 
L 280.016336 78.846494 
L 280.760635 75.914809 
L 281.504935 89.895302 
L 282.249234 115.97122 
L 282.993533 119.087244 
L 283.737832 125.194422 
L 284.482131 112.700578 
L 285.226431 102.186958 
L 285.97073 121.013948 
L 286.715029 118.498529 
L 287.459328 111.992934 
L 288.203627 112.944387 
L 288.947926 118.896956 
L 289.692226 95.550534 
L 290.436525 67.107874 
L 291.180824 93.362182 
L 291.925123 87.439352 
L 292.669422 96.430636 
L 293.413722 119.53919 
L 294.158021 120.217104 
L 294.90232 75.028767 
L 295.646619 97.655636 
L 296.390918 115.400345 
L 297.135217 95.788401 
L 297.879517 92.095553 
L 298.623816 112.165383 
L 299.368115 97.275058 
L 300.112414 94.908299 
L 300.856713 105.933326 
L 301.601013 101.88963 
L 303.089611 110.714406 
L 303.83391 104.410998 
L 304.578209 95.045077 
L 305.322508 107.063186 
L 306.066808 113.479582 
L 306.811107 114.234805 
L 307.555406 54.810268 
L 308.299705 78.287509 
L 309.044004 110.417078 
L 309.788303 116.220978 
L 310.532603 113.485532 
L 311.276902 118.742338 
L 312.021201 116.797794 
L 313.509799 46.978574 
L 314.254099 71.811644 
L 314.998398 86.737648 
L 315.742697 96.091679 
L 316.486996 100.623001 
L 317.975594 64.08699 
L 318.719894 77.163599 
L 319.464193 113.152524 
L 320.208492 126.615661 
L 320.952791 113.081165 
L 321.69709 110.387348 
L 322.44139 97.150179 
L 323.185689 86.166773 
L 323.929988 81.445163 
L 324.674287 106.266342 
L 325.418586 124.201332 
L 326.162885 125.134953 
L 326.907185 127.84661 
L 328.395783 58.675574 
L 329.140082 90.900283 
L 329.884381 94.182815 
L 330.62868 84.501726 
L 331.37298 102.192907 
L 332.117279 65.419029 
L 332.861578 66.971096 
L 333.605877 90.347247 
L 334.350176 108.621202 
L 335.094476 100.860868 
L 335.838775 96.525785 
L 336.583074 94.521772 
L 337.327373 94.71801 
L 338.071672 83.562155 
L 338.815971 58.0155 
L 339.560271 18.196957 
L 340.30457 31.089209 
L 341.048869 99.849937 
L 341.793168 27.22392 
L 342.537467 27.31312 
L 343.281767 67.405201 
L 344.026066 88.129157 
L 344.770365 98.565468 
L 345.514664 92.38694 
L 346.258963 104.690486 
L 347.003262 113.872059 
L 347.747562 125.039804 
L 348.491861 116.316118 
L 349.23616 53.793397 
L 349.980459 43.065706 
L 350.724758 70.669894 
L 351.469058 93.873588 
L 352.213357 76.093208 
L 352.957656 76.396485 
L 353.701955 103.435747 
L 354.446254 108.323866 
L 355.190553 119.509451 
L 356.679152 85.155851 
L 357.423451 89.163868 
L 358.16775 101.568513 
L 358.912049 97.501027 
L 359.656348 51.081739 
L 360.400648 95.794351 
L 361.144947 106.837218 
L 361.889246 80.565061 
L 362.633545 79.964455 
L 363.377844 97.251269 
L 364.122144 105.142432 
L 364.866443 115.822552 
L 365.610742 81.195405 
L 366.355041 82.86046 
L 367.09934 97.857824 
L 367.843639 88.729771 
L 368.587939 103.929322 
L 369.332238 70.955331 
L 370.076537 11.875692 
L 370.820836 61.202875 
L 371.565135 84.793105 
L 372.309435 61.101794 
L 373.798033 105.017553 
L 374.542332 91.643607 
L 375.286631 94.75369 
L 376.03093 76.194298 
L 376.77523 86.125153 
L 377.519529 89.526614 
L 378.263828 103.608205 
L 379.008127 109.733214 
L 379.752426 98.791446 
L 380.496725 64.223759 
L 381.241025 97.774574 
L 381.985324 93.326502 
L 382.729623 64.907623 
L 383.473922 92.458299 
L 384.218221 100.985747 
L 384.962521 99.641809 
L 385.70682 123.820754 
L 386.451119 131.557299 
L 387.195418 82.331206 
L 387.939717 86.957676 
L 388.684016 115.305196 
L 389.428316 117.558967 
L 390.172615 63.670723 
L 390.916914 97.738894 
L 391.661213 99.201762 
L 392.405512 63.611263 
L 393.149812 92.33342 
L 393.894111 116.01879 
L 394.63841 118.706658 
L 395.382709 111.826426 
L 396.127008 120.722561 
L 396.871307 127.127067 
L 397.615607 114.621333 
L 398.359906 104.101771 
L 399.104205 109.435886 
L 399.848504 109.067199 
L 400.592803 108.8888 
L 401.337103 80.517491 
L 402.081402 57.165128 
L 402.825701 93.837908 
L 403.57 107.705421 
L 404.314299 76.687873 
L 405.058598 96.727964 
L 405.802898 104.167181 
L 406.547197 115.769032 
L 407.291496 118.569889 
L 408.035795 123.035801 
L 408.780094 125.384711 
L 409.524393 82.140917 
L 410.268693 92.357201 
L 411.012992 106.748018 
L 411.757291 112.55191 
L 412.50159 63.052278 
L 413.245889 99.713168 
L 413.990189 122.292468 
L 414.734488 75.89697 
L 415.478787 87.599911 
L 416.223086 105.534909 
L 416.967385 109.203968 
L 417.711684 118.849377 
L 418.455984 123.838594 
L 419.200283 127.763361 
L 419.944582 115.519275 
L 420.688881 105.760877 
L 421.43318 64.509196 
L 422.17748 60.852036 
L 422.921779 91.072732 
L 423.666078 107.253475 
L 424.410377 94.069826 
L 425.154676 75.902919 
L 425.898975 10.299844 
L 426.643275 77.460927 
L 427.387574 110.220839 
L 428.131873 122.655214 
L 428.876172 83.544315 
L 430.36477 106.420951 
L 431.10907 112.242692 
L 431.853369 90.460236 
L 432.597668 111.457738 
L 433.341967 100.361352 
L 434.086266 107.092916 
L 434.830566 100.182954 
L 435.574865 86.113254 
L 436.319164 74.297333 
L 437.063463 92.844826 
L 437.807762 105.772767 
L 438.552061 98.589258 
L 439.296361 84.900144 
L 440.04066 52.901404 
L 440.784959 77.621485 
L 441.529258 78.519427 
L 442.273557 102.466454 
L 443.017857 90.912173 
L 443.762156 105.463549 
L 445.250754 80.921858 
L 445.995053 104.749955 
L 446.739352 119.717589 
L 447.483652 114.347794 
L 448.227951 86.987406 
L 448.97225 112.974126 
L 449.716549 119.50351 
L 450.460848 113.759079 
L 451.205147 78.751345 
L 451.949447 89.021149 
L 452.693746 91.506838 
L 453.438045 88.028067 
L 454.182344 90.252099 
L 454.926643 90.484017 
L 455.670943 92.4464 
L 456.415242 89.865571 
L 457.159541 95.146167 
L 457.90384 88.575153 
L 458.648139 106.355542 
L 459.392438 105.861967 
L 460.136738 113.901798 
L 460.881037 91.768486 
L 461.625336 52.770584 
L 462.369635 56.041218 
L 463.113934 86.244082 
L 463.858234 94.212545 
L 464.602533 116.369638 
L 465.346832 124.754367 
L 466.091131 109.941351 
L 466.83543 112.147543 
L 467.579729 104.862935 
L 468.324029 110.393288 
L 469.068328 102.169118 
L 469.812627 91.459268 
L 470.556926 108.561733 
L 471.301225 111.838316 
L 472.045525 112.189172 
L 472.789824 111.154461 
L 473.534123 115.192208 
L 474.278422 77.353888 
L 475.76702 117.618427 
L 476.51132 111.761016 
L 477.255619 118.141732 
L 477.999918 119.580811 
L 479.488516 105.957115 
L 480.232815 58.485277 
L 480.977115 69.771952 
L 481.721414 93.064854 
L 482.465713 100.069965 
L 483.210012 103.620095 
L 483.954311 84.198449 
L 484.698611 84.13898 
L 485.44291 103.364388 
L 486.187209 115.656044 
L 486.931508 112.224852 
L 487.675807 114.002887 
L 488.420106 111.992934 
L 489.164406 117.856295 
L 489.908705 120.645261 
L 490.653004 127.674161 
L 492.141602 99.814258 
L 492.885902 107.366463 
L 493.630201 96.840953 
L 494.3745 93.802229 
L 495.118799 117.303259 
L 495.863098 127.144907 
L 496.607397 115.572794 
L 498.095996 106.819378 
L 498.840295 100.884649 
L 499.584594 115.792822 
L 500.328893 101.372274 
L 501.073192 93.029174 
L 501.817492 78.602677 
L 502.561791 100.230524 
L 503.30609 110.559796 
L 504.050389 84.347109 
L 504.794688 93.927108 
L 505.538988 116.904833 
L 506.283287 123.25582 
L 507.027586 106.129564 
L 507.771885 111.761016 
L 508.516184 122.994171 
L 509.260483 130.362029 
L 510.004783 118.052533 
L 510.749082 91.114361 
L 511.493381 86.713868 
L 512.23768 91.25113 
L 512.981979 97.102601 
L 513.726279 104.833205 
L 514.470578 96.965831 
L 515.214877 104.922404 
L 515.959176 44.332336 
L 516.703475 73.238832 
L 517.447774 94.563401 
L 518.192074 94.533662 
L 518.936373 63.385286 
L 519.680672 86.838747 
L 520.424971 85.435339 
L 521.16927 85.720777 
L 521.91357 97.649695 
L 523.402168 105.743037 
L 524.146467 101.306864 
L 524.890766 99.54666 
L 525.635065 109.251538 
L 526.379365 112.641109 
L 527.123664 110.619266 
L 527.867963 88.94979 
L 528.612262 88.295665 
L 529.356561 84.513617 
L 530.10086 55.743881 
L 530.84516 77.437146 
L 531.589459 90.870553 
L 532.333758 98.934164 
L 533.078057 95.734882 
L 533.822356 100.373243 
L 534.566656 72.382519 
L 535.310955 87.558281 
L 536.055254 68.469643 
L 536.799553 76.004009 
L 537.543852 78.329139 
L 538.288151 61.761868 
L 539.032451 71.157519 
L 539.77675 49.273974 
L 540.521049 78.959474 
L 541.265348 93.183783 
L 542.009647 100.581371 
L 542.753947 97.215589 
L 543.498246 110.000812 
L 544.242545 106.040365 
L 544.986844 97.810254 
L 545.731143 68.095006 
L 546.475442 74.570871 
L 547.219742 70.753144 
L 547.964041 10.674481 
L 548.70834 57.224588 
L 549.452639 76.033739 
L 550.196938 66.590518 
L 550.941237 78.2994 
L 551.685537 98.506008 
L 552.429836 107.735151 
L 553.174135 97.952973 
L 553.918434 77.889083 
L 554.662733 77.187388 
L 555.407033 90.06181 
L 556.151332 36.702821 
L 557.63993 84.299539 
L 559.128528 73.845387 
L 559.872828 75.81372 
L 560.617127 78.329139 
L 561.361426 85.435339 
L 562.850024 103.834173 
L 563.594324 117.844404 
L 564.338623 111.154461 
L 565.082922 81.790069 
L 565.827221 105.142432 
L 566.57152 92.43451 
L 567.315819 88.319454 
L 568.060119 89.764482 
L 568.804418 36.637403 
L 569.548717 54.69133 
L 570.293016 88.581102 
L 571.037315 79.613608 
L 572.525914 105.38624 
L 573.270213 114.900829 
L 574.014512 113.449852 
L 574.758811 93.296772 
L 575.50311 102.169118 
L 576.24741 114.657012 
L 576.991709 86.244082 
L 577.736008 82.396624 
L 578.480307 104.755896 
L 579.224606 52.538666 
L 579.968905 70.568804 
L 580.713205 77.312267 
L 581.457504 51.569356 
L 582.201803 88.88438 
L 583.690401 102.430775 
L 584.434701 108.341706 
L 585.179 47.055874 
L 585.923299 40.871405 
L 586.667598 28.193213 
L 588.156196 65.757986 
L 588.900496 92.511819 
L 589.644795 107.194015 
L 590.389094 96.840953 
L 591.133393 72.037613 
L 591.877692 55.131385 
L 593.366291 107.003717 
L 594.11059 98.149211 
L 594.854889 111.118781 
L 595.599188 94.938038 
L 596.343487 30.203175 
L 597.087787 69.575714 
L 597.832086 71.383488 
L 598.576385 68.636151 
L 599.320684 104.993764 
L 600.064983 119.723529 
L 600.809282 120.900959 
L 602.297881 94.77748 
L 603.04218 102.377255 
L 603.786479 85.869445 
L 604.530778 98.155152 
L 605.275078 104.732115 
L 606.019377 65.014662 
L 606.763676 37.684013 
L 607.507975 89.098458 
L 608.252274 81.064576 
L 608.996573 85.036922 
L 609.740873 107.301054 
L 610.485172 115.001919 
L 611.229471 121.216136 
L 611.97377 107.027506 
L 612.718069 100.349453 
L 614.206668 123.321238 
L 614.950967 124.254851 
L 615.695266 81.825749 
L 616.439565 27.925615 
L 617.183864 58.009542 
L 617.928164 63.539904 
L 618.672463 54.59619 
L 619.416762 78.26372 
L 620.161061 113.200094 
L 620.90536 99.344481 
L 621.64966 30.595652 
L 622.393959 48.132224 
L 623.138258 60.632 
L 623.882557 96.567405 
L 624.626856 100.194844 
L 625.371155 109.180179 
L 626.115455 65.698525 
L 626.859754 88.557313 
L 627.604053 107.134545 
L 628.348352 40.984385 
L 629.092651 65.454708 
L 629.83695 64.08104 
L 630.58125 99.873727 
L 631.325549 122.893082 
L 632.069848 104.803475 
L 632.814147 83.918952 
L 633.558446 88.569212 
L 634.302746 77.437146 
L 635.047045 101.271185 
L 635.791344 58.407977 
L 636.535643 54.851888 
L 637.279942 88.973579 
L 638.024241 64.830314 
L 638.768541 64.235658 
L 639.51284 76.788962 
L 640.257139 97.643746 
L 641.001438 98.500058 
L 641.745737 55.065967 
L 642.490037 72.013832 
L 643.234336 73.684828 
L 643.978635 83.508636 
L 644.722934 85.126121 
L 645.467233 100.052125 
L 646.211532 92.202592 
L 646.955832 92.38694 
L 647.700131 102.383196 
L 648.44443 80.731569 
L 649.188729 75.361774 
L 649.933028 60.917437 
L 650.677327 89.027099 
L 651.421627 50.891442 
L 652.165926 75.326094 
L 652.910225 69.099987 
L 653.654524 83.330237 
L 654.398823 75.563962 
L 655.143123 48.774458 
L 655.887422 69.296225 
L 656.631721 78.668096 
L 658.120319 113.985048 
L 658.864618 111.576668 
L 659.608918 89.865571 
L 660.353217 85.899175 
L 661.097516 27.527198 
L 661.841815 27.075243 
L 662.586114 72.834465 
L 663.330414 60.322781 
L 664.074713 87.427462 
L 664.819012 98.434649 
L 665.563311 98.726027 
L 666.30761 90.834873 
L 667.051909 80.214213 
L 667.796209 81.338124 
L 668.540508 109.739163 
L 669.284807 118.867217 
L 670.029106 110.393288 
L 670.773405 85.607797 
L 671.517705 36.072486 
L 672.262004 55.018405 
L 673.006303 65.787725 
L 673.750602 18.440756 
L 674.494901 78.055591 
L 675.2392 84.418468 
L 675.9835 101.455524 
L 676.727799 89.948821 
L 677.472098 97.566437 
L 678.960696 126.865419 
L 679.704995 129.178649 
L 680.449295 105.618158 
L 681.193594 66.917576 
L 681.937893 89.693123 
L 682.682192 96.799323 
L 683.426491 51.1412 
L 684.170791 63.218786 
L 684.91509 35.935708 
L 686.403688 71.615406 
L 687.147987 72.055453 
L 687.892286 92.41072 
L 688.636586 92.077713 
L 689.380885 80.660209 
L 690.125184 64.729224 
L 690.869483 55.256264 
L 691.613782 88.557313 
L 692.358082 93.207573 
L 693.102381 80.862397 
L 693.84668 82.010088 
L 694.590979 64.330798 
L 695.335278 54.168033 
L 696.079577 80.321252 
L 696.823877 58.485277 
L 697.568176 60.57848 
L 698.312475 98.862805 
L 699.056774 117.011872 
L 699.801073 105.606268 
L 700.545372 68.493432 
L 701.289672 69.159456 
L 702.033971 96.145198 
L 702.77827 108.311975 
L 703.522569 123.642355 
L 704.266868 125.081434 
L 705.011168 112.599489 
L 705.755467 80.987276 
L 706.499766 88.099426 
L 707.244065 93.290823 
L 707.988364 106.807479 
L 708.732663 101.85395 
L 709.476963 94.194705 
L 710.221262 52.366209 
L 710.965561 40.193491 
L 711.70986 90.121279 
L 712.454159 107.485393 
L 713.198459 114.91272 
L 713.942758 98.844965 
L 714.687057 106.058205 
L 715.431356 95.598113 
L 716.175655 90.787294 
L 716.919954 100.343512 
L 717.664254 62.671692 
L 718.408553 105.065123 
L 719.152852 79.39953 
L 719.897151 86.636559 
L 720.64145 62.624122 
L 721.38575 67.898768 
L 722.130049 89.247126 
L 722.874348 91.013271 
L 723.618647 81.159725 
L 725.107245 81.8198 
L 725.851545 59.555668 
L 726.595844 88.747611 
L 727.340143 91.863635 
L 728.084442 98.595207 
L 728.828741 99.183922 
L 729.57304 110.268409 
L 730.31734 106.432842 
L 731.061639 72.608488 
L 731.805938 89.722853 
L 732.550237 91.078681 
L 733.294536 101.95504 
L 734.038836 102.216697 
L 734.783135 75.712622 
L 735.527434 60.994755 
L 737.016032 95.621893 
L 737.760331 99.802367 
L 738.504631 63.902641 
L 739.24893 89.865571 
L 739.993229 84.995293 
L 740.737528 36.280606 
L 741.481827 54.46537 
L 742.226127 100.474332 
L 742.970426 101.015477 
L 743.714725 65.306049 
L 744.459024 77.199279 
L 745.203323 76.890052 
L 745.947622 55.054085 
L 746.691922 92.601018 
L 747.436221 99.576399 
L 748.18052 71.431058 
L 748.924819 68.546952 
L 749.669118 90.924072 
L 750.413417 121.840531 
L 751.157717 66.893795 
L 751.902016 75.86129 
L 752.646315 104.202861 
L 753.390614 75.100126 
L 754.134913 64.473517 
L 754.879213 43.8685 
L 755.623512 43.041908 
L 756.367811 66.37644 
L 757.11211 99.968876 
L 757.856409 78.691876 
L 758.600708 72.858246 
L 759.345008 76.099157 
L 760.089307 103.727134 
L 760.089307 103.727134 
" clip-path="url(#pcf7a425ba0)" style="fill: none; stroke: #000000; stroke-width: 0.5; stroke-linecap: square"/>
   </g>
   <g id="patch_3">
    <path d="M 59.071125 138.125931 
L 59.071125 4.212888 
" style="fill: none; stroke: #000000; stroke-linejoin: miter; stroke-linecap: square"/>
   </g>
   <g id="patch_4">
    <path d="M 793.471125 138.125931 
L 793.471125 4.212888 
" style="fill: none; stroke: #000000; stroke-linejoin: miter; stroke-linecap: square"/>
   </g>
   <g id="patch_5">
    <path d="M 59.071125 138.125931 
L 793.471125 138.125931 
" style="fill: none; stroke: #000000; stroke-linejoin: miter; stroke-linecap: square"/>
   </g>
   <g id="patch_6">
    <path d="M 59.071125 4.212888 
L 793.471125 4.212888 
" style="fill: none; stroke: #000000; stroke-linejoin: miter; stroke-linecap: square"/>
   </g>
  </g>
  <g id="axes_2">
   <g id="patch_7">
    <path d="M 59.071125 281.412888 
L 793.471125 281.412888 
L 793.471125 147.499844 
L 59.071125 147.499844 
z
" style="fill: #ffffff"/>
   </g>
   <g id="matplotlib.axis_3">
    <g id="xtick_26">
     <g id="line2d_98">
      <g>
       <use xlink:href="#m8e0b89c85d" x="149.019681" y="281.412888" style="stroke: #000000"/>
      </g>
     </g>
     <g id="line2d_99">
      <g>
       <use xlink:href="#m9f08b7a02f" x="149.019681" y="147.499844" style="stroke: #000000"/>
      </g>
     </g>
     <g id="text_7">
      <!-- 2012 -->
      <g transform="translate(133.749681 294.031013) scale(0.12 -0.12)">
       <defs>
        <path id="DejaVuSans-32" d="M 1228 531 
L 3431 531 
L 3431 0 
L 469 0 
L 469 531 
Q 828 903 1448 1529 
Q 2069 2156 2228 2338 
Q 2531 2678 2651 2914 
Q 2772 3150 2772 3378 
Q 2772 3750 2511 3984 
Q 2250 4219 1831 4219 
Q 1534 4219 1204 4116 
Q 875 4013 500 3803 
L 500 4441 
Q 881 4594 1212 4672 
Q 1544 4750 1819 4750 
Q 2544 4750 2975 4387 
Q 3406 4025 3406 3419 
Q 3406 3131 3298 2873 
Q 3191 2616 2906 2266 
Q 2828 2175 2409 1742 
Q 1991 1309 1228 531 
z
" transform="scale(0.015625)"/>
        <path id="DejaVuSans-31" d="M 794 531 
L 1825 531 
L 1825 4091 
L 703 3866 
L 703 4441 
L 1819 4666 
L 2450 4666 
L 2450 531 
L 3481 531 
L 3481 0 
L 794 0 
L 794 531 
z
" transform="scale(0.015625)"/>
       </defs>
       <use xlink:href="#DejaVuSans-32"/>
       <use xlink:href="#DejaVuSans-30" x="63.623047"/>
       <use xlink:href="#DejaVuSans-31" x="127.246094"/>
       <use xlink:href="#DejaVuSans-32" x="190.869141"/>
      </g>
     </g>
    </g>
    <g id="xtick_27">
     <g id="line2d_100">
      <g>
       <use xlink:href="#m8e0b89c85d" x="285.226431" y="281.412888" style="stroke: #000000"/>
      </g>
     </g>
     <g id="line2d_101">
      <g>
       <use xlink:href="#m9f08b7a02f" x="285.226431" y="147.499844" style="stroke: #000000"/>
      </g>
     </g>
     <g id="text_8">
      <!-- 2013 -->
      <g transform="translate(269.956431 294.031013) scale(0.12 -0.12)">
       <use xlink:href="#DejaVuSans-32"/>
       <use xlink:href="#DejaVuSans-30" x="63.623047"/>
       <use xlink:href="#DejaVuSans-31" x="127.246094"/>
       <use xlink:href="#DejaVuSans-33" x="190.869141"/>
      </g>
     </g>
    </g>
    <g id="xtick_28">
     <g id="line2d_102">
      <g>
       <use xlink:href="#m8e0b89c85d" x="421.061031" y="281.412888" style="stroke: #000000"/>
      </g>
     </g>
     <g id="line2d_103">
      <g>
       <use xlink:href="#m9f08b7a02f" x="421.061031" y="147.499844" style="stroke: #000000"/>
      </g>
     </g>
     <g id="text_9">
      <!-- 2014 -->
      <g transform="translate(405.791031 294.031013) scale(0.12 -0.12)">
       <use xlink:href="#DejaVuSans-32"/>
       <use xlink:href="#DejaVuSans-30" x="63.623047"/>
       <use xlink:href="#DejaVuSans-31" x="127.246094"/>
       <use xlink:href="#DejaVuSans-34" x="190.869141"/>
      </g>
     </g>
    </g>
    <g id="xtick_29">
     <g id="line2d_104">
      <g>
       <use xlink:href="#m8e0b89c85d" x="556.895631" y="281.412888" style="stroke: #000000"/>
      </g>
     </g>
     <g id="line2d_105">
      <g>
       <use xlink:href="#m9f08b7a02f" x="556.895631" y="147.499844" style="stroke: #000000"/>
      </g>
     </g>
     <g id="text_10">
      <!-- 2015 -->
      <g transform="translate(541.625631 294.031013) scale(0.12 -0.12)">
       <use xlink:href="#DejaVuSans-32"/>
       <use xlink:href="#DejaVuSans-30" x="63.623047"/>
       <use xlink:href="#DejaVuSans-31" x="127.246094"/>
       <use xlink:href="#DejaVuSans-35" x="190.869141"/>
      </g>
     </g>
    </g>
    <g id="xtick_30">
     <g id="line2d_106">
      <g>
       <use xlink:href="#m8e0b89c85d" x="692.730231" y="281.412888" style="stroke: #000000"/>
      </g>
     </g>
     <g id="line2d_107">
      <g>
       <use xlink:href="#m9f08b7a02f" x="692.730231" y="147.499844" style="stroke: #000000"/>
      </g>
     </g>
     <g id="text_11">
      <!-- 2016 -->
      <g transform="translate(677.460231 294.031013) scale(0.12 -0.12)">
       <use xlink:href="#DejaVuSans-32"/>
       <use xlink:href="#DejaVuSans-30" x="63.623047"/>
       <use xlink:href="#DejaVuSans-31" x="127.246094"/>
       <use xlink:href="#DejaVuSans-36" x="190.869141"/>
      </g>
     </g>
    </g>
    <g id="xtick_31">
     <g id="line2d_108">
      <g>
       <use xlink:href="#me87bfcd85d" x="81.102381" y="281.412888" style="stroke: #000000"/>
      </g>
     </g>
     <g id="line2d_109">
      <g>
       <use xlink:href="#mbd4d75787d" x="81.102381" y="147.499844" style="stroke: #000000"/>
      </g>
     </g>
    </g>
    <g id="xtick_32">
     <g id="line2d_110">
      <g>
       <use xlink:href="#me87bfcd85d" x="115.061031" y="281.412888" style="stroke: #000000"/>
      </g>
     </g>
     <g id="line2d_111">
      <g>
       <use xlink:href="#mbd4d75787d" x="115.061031" y="147.499844" style="stroke: #000000"/>
      </g>
     </g>
    </g>
    <g id="xtick_33">
     <g id="line2d_112">
      <g>
       <use xlink:href="#me87bfcd85d" x="182.978331" y="281.412888" style="stroke: #000000"/>
      </g>
     </g>
     <g id="line2d_113">
      <g>
       <use xlink:href="#mbd4d75787d" x="182.978331" y="147.499844" style="stroke: #000000"/>
      </g>
     </g>
    </g>
    <g id="xtick_34">
     <g id="line2d_114">
      <g>
       <use xlink:href="#me87bfcd85d" x="216.936981" y="281.412888" style="stroke: #000000"/>
      </g>
     </g>
     <g id="line2d_115">
      <g>
       <use xlink:href="#mbd4d75787d" x="216.936981" y="147.499844" style="stroke: #000000"/>
      </g>
     </g>
    </g>
    <g id="xtick_35">
     <g id="line2d_116">
      <g>
       <use xlink:href="#me87bfcd85d" x="250.895631" y="281.412888" style="stroke: #000000"/>
      </g>
     </g>
     <g id="line2d_117">
      <g>
       <use xlink:href="#mbd4d75787d" x="250.895631" y="147.499844" style="stroke: #000000"/>
      </g>
     </g>
    </g>
    <g id="xtick_36">
     <g id="line2d_118">
      <g>
       <use xlink:href="#me87bfcd85d" x="284.854281" y="281.412888" style="stroke: #000000"/>
      </g>
     </g>
     <g id="line2d_119">
      <g>
       <use xlink:href="#mbd4d75787d" x="284.854281" y="147.499844" style="stroke: #000000"/>
      </g>
     </g>
    </g>
    <g id="xtick_37">
     <g id="line2d_120">
      <g>
       <use xlink:href="#me87bfcd85d" x="318.812931" y="281.412888" style="stroke: #000000"/>
      </g>
     </g>
     <g id="line2d_121">
      <g>
       <use xlink:href="#mbd4d75787d" x="318.812931" y="147.499844" style="stroke: #000000"/>
      </g>
     </g>
    </g>
    <g id="xtick_38">
     <g id="line2d_122">
      <g>
       <use xlink:href="#me87bfcd85d" x="352.771581" y="281.412888" style="stroke: #000000"/>
      </g>
     </g>
     <g id="line2d_123">
      <g>
       <use xlink:href="#mbd4d75787d" x="352.771581" y="147.499844" style="stroke: #000000"/>
      </g>
     </g>
    </g>
    <g id="xtick_39">
     <g id="line2d_124">
      <g>
       <use xlink:href="#me87bfcd85d" x="386.730231" y="281.412888" style="stroke: #000000"/>
      </g>
     </g>
     <g id="line2d_125">
      <g>
       <use xlink:href="#mbd4d75787d" x="386.730231" y="147.499844" style="stroke: #000000"/>
      </g>
     </g>
    </g>
    <g id="xtick_40">
     <g id="line2d_126">
      <g>
       <use xlink:href="#me87bfcd85d" x="420.688881" y="281.412888" style="stroke: #000000"/>
      </g>
     </g>
     <g id="line2d_127">
      <g>
       <use xlink:href="#mbd4d75787d" x="420.688881" y="147.499844" style="stroke: #000000"/>
      </g>
     </g>
    </g>
    <g id="xtick_41">
     <g id="line2d_128">
      <g>
       <use xlink:href="#me87bfcd85d" x="454.647531" y="281.412888" style="stroke: #000000"/>
      </g>
     </g>
     <g id="line2d_129">
      <g>
       <use xlink:href="#mbd4d75787d" x="454.647531" y="147.499844" style="stroke: #000000"/>
      </g>
     </g>
    </g>
    <g id="xtick_42">
     <g id="line2d_130">
      <g>
       <use xlink:href="#me87bfcd85d" x="488.606181" y="281.412888" style="stroke: #000000"/>
      </g>
     </g>
     <g id="line2d_131">
      <g>
       <use xlink:href="#mbd4d75787d" x="488.606181" y="147.499844" style="stroke: #000000"/>
      </g>
     </g>
    </g>
    <g id="xtick_43">
     <g id="line2d_132">
      <g>
       <use xlink:href="#me87bfcd85d" x="522.564831" y="281.412888" style="stroke: #000000"/>
      </g>
     </g>
     <g id="line2d_133">
      <g>
       <use xlink:href="#mbd4d75787d" x="522.564831" y="147.499844" style="stroke: #000000"/>
      </g>
     </g>
    </g>
    <g id="xtick_44">
     <g id="line2d_134">
      <g>
       <use xlink:href="#me87bfcd85d" x="556.523481" y="281.412888" style="stroke: #000000"/>
      </g>
     </g>
     <g id="line2d_135">
      <g>
       <use xlink:href="#mbd4d75787d" x="556.523481" y="147.499844" style="stroke: #000000"/>
      </g>
     </g>
    </g>
    <g id="xtick_45">
     <g id="line2d_136">
      <g>
       <use xlink:href="#me87bfcd85d" x="590.482131" y="281.412888" style="stroke: #000000"/>
      </g>
     </g>
     <g id="line2d_137">
      <g>
       <use xlink:href="#mbd4d75787d" x="590.482131" y="147.499844" style="stroke: #000000"/>
      </g>
     </g>
    </g>
    <g id="xtick_46">
     <g id="line2d_138">
      <g>
       <use xlink:href="#me87bfcd85d" x="624.440781" y="281.412888" style="stroke: #000000"/>
      </g>
     </g>
     <g id="line2d_139">
      <g>
       <use xlink:href="#mbd4d75787d" x="624.440781" y="147.499844" style="stroke: #000000"/>
      </g>
     </g>
    </g>
    <g id="xtick_47">
     <g id="line2d_140">
      <g>
       <use xlink:href="#me87bfcd85d" x="658.399431" y="281.412888" style="stroke: #000000"/>
      </g>
     </g>
     <g id="line2d_141">
      <g>
       <use xlink:href="#mbd4d75787d" x="658.399431" y="147.499844" style="stroke: #000000"/>
      </g>
     </g>
    </g>
    <g id="xtick_48">
     <g id="line2d_142">
      <g>
       <use xlink:href="#me87bfcd85d" x="692.358082" y="281.412888" style="stroke: #000000"/>
      </g>
     </g>
     <g id="line2d_143">
      <g>
       <use xlink:href="#mbd4d75787d" x="692.358082" y="147.499844" style="stroke: #000000"/>
      </g>
     </g>
    </g>
    <g id="xtick_49">
     <g id="line2d_144">
      <g>
       <use xlink:href="#me87bfcd85d" x="726.316732" y="281.412888" style="stroke: #000000"/>
      </g>
     </g>
     <g id="line2d_145">
      <g>
       <use xlink:href="#mbd4d75787d" x="726.316732" y="147.499844" style="stroke: #000000"/>
      </g>
     </g>
    </g>
    <g id="xtick_50">
     <g id="line2d_146">
      <g>
       <use xlink:href="#me87bfcd85d" x="760.275382" y="281.412888" style="stroke: #000000"/>
      </g>
     </g>
     <g id="line2d_147">
      <g>
       <use xlink:href="#mbd4d75787d" x="760.275382" y="147.499844" style="stroke: #000000"/>
      </g>
     </g>
    </g>
   </g>
   <g id="matplotlib.axis_4">
    <g id="ytick_24">
     <g id="line2d_148">
      <g>
       <use xlink:href="#m7953b85ad8" x="59.071125" y="278.63494" style="stroke: #000000"/>
      </g>
     </g>
     <g id="line2d_149">
      <g>
       <use xlink:href="#m3528f083a5" x="793.471125" y="278.63494" style="stroke: #000000"/>
      </g>
     </g>
     <g id="text_12">
      <!-- $\mathdefault{0}$ -->
      <g transform="translate(47.891125 283.194002) scale(0.12 -0.12)">
       <use xlink:href="#DejaVuSans-30" transform="translate(0 0.78125)"/>
      </g>
     </g>
    </g>
    <g id="ytick_25">
     <g id="line2d_150">
      <g>
       <use xlink:href="#m7953b85ad8" x="59.071125" y="250.867035" style="stroke: #000000"/>
      </g>
     </g>
     <g id="line2d_151">
      <g>
       <use xlink:href="#m3528f083a5" x="793.471125" y="250.867035" style="stroke: #000000"/>
      </g>
     </g>
     <g id="text_13">
      <!-- $\mathdefault{5}$ -->
      <g transform="translate(47.891125 255.426098) scale(0.12 -0.12)">
       <use xlink:href="#DejaVuSans-35" transform="translate(0 0.09375)"/>
      </g>
     </g>
    </g>
    <g id="ytick_26">
     <g id="line2d_152">
      <g>
       <use xlink:href="#m7953b85ad8" x="59.071125" y="223.099131" style="stroke: #000000"/>
      </g>
     </g>
     <g id="line2d_153">
      <g>
       <use xlink:href="#m3528f083a5" x="793.471125" y="223.099131" style="stroke: #000000"/>
      </g>
     </g>
     <g id="text_14">
      <!-- $\mathdefault{10}$ -->
      <g transform="translate(40.211125 227.658193) scale(0.12 -0.12)">
       <use xlink:href="#DejaVuSans-31" transform="translate(0 0.78125)"/>
       <use xlink:href="#DejaVuSans-30" transform="translate(63.623047 0.78125)"/>
      </g>
     </g>
    </g>
    <g id="ytick_27">
     <g id="line2d_154">
      <g>
       <use xlink:href="#m7953b85ad8" x="59.071125" y="195.331226" style="stroke: #000000"/>
      </g>
     </g>
     <g id="line2d_155">
      <g>
       <use xlink:href="#m3528f083a5" x="793.471125" y="195.331226" style="stroke: #000000"/>
      </g>
     </g>
     <g id="text_15">
      <!-- $\mathdefault{15}$ -->
      <g transform="translate(40.211125 199.890289) scale(0.12 -0.12)">
       <use xlink:href="#DejaVuSans-31" transform="translate(0 0.09375)"/>
       <use xlink:href="#DejaVuSans-35" transform="translate(63.623047 0.09375)"/>
      </g>
     </g>
    </g>
    <g id="ytick_28">
     <g id="line2d_156">
      <g>
       <use xlink:href="#m7953b85ad8" x="59.071125" y="167.563322" style="stroke: #000000"/>
      </g>
     </g>
     <g id="line2d_157">
      <g>
       <use xlink:href="#m3528f083a5" x="793.471125" y="167.563322" style="stroke: #000000"/>
      </g>
     </g>
     <g id="text_16">
      <!-- $\mathdefault{20}$ -->
      <g transform="translate(40.211125 172.122385) scale(0.12 -0.12)">
       <use xlink:href="#DejaVuSans-32" transform="translate(0 0.78125)"/>
       <use xlink:href="#DejaVuSans-30" transform="translate(63.623047 0.78125)"/>
      </g>
     </g>
    </g>
    <g id="ytick_29">
     <g id="line2d_158">
      <g>
       <use xlink:href="#m93d07a652a" x="59.071125" y="273.081359" style="stroke: #000000"/>
      </g>
     </g>
     <g id="line2d_159">
      <g>
       <use xlink:href="#m0a1f4d1e7a" x="793.471125" y="273.081359" style="stroke: #000000"/>
      </g>
     </g>
    </g>
    <g id="ytick_30">
     <g id="line2d_160">
      <g>
       <use xlink:href="#m93d07a652a" x="59.071125" y="267.527778" style="stroke: #000000"/>
      </g>
     </g>
     <g id="line2d_161">
      <g>
       <use xlink:href="#m0a1f4d1e7a" x="793.471125" y="267.527778" style="stroke: #000000"/>
      </g>
     </g>
    </g>
    <g id="ytick_31">
     <g id="line2d_162">
      <g>
       <use xlink:href="#m93d07a652a" x="59.071125" y="261.974197" style="stroke: #000000"/>
      </g>
     </g>
     <g id="line2d_163">
      <g>
       <use xlink:href="#m0a1f4d1e7a" x="793.471125" y="261.974197" style="stroke: #000000"/>
      </g>
     </g>
    </g>
    <g id="ytick_32">
     <g id="line2d_164">
      <g>
       <use xlink:href="#m93d07a652a" x="59.071125" y="256.420616" style="stroke: #000000"/>
      </g>
     </g>
     <g id="line2d_165">
      <g>
       <use xlink:href="#m0a1f4d1e7a" x="793.471125" y="256.420616" style="stroke: #000000"/>
      </g>
     </g>
    </g>
    <g id="ytick_33">
     <g id="line2d_166">
      <g>
       <use xlink:href="#m93d07a652a" x="59.071125" y="245.313454" style="stroke: #000000"/>
      </g>
     </g>
     <g id="line2d_167">
      <g>
       <use xlink:href="#m0a1f4d1e7a" x="793.471125" y="245.313454" style="stroke: #000000"/>
      </g>
     </g>
    </g>
    <g id="ytick_34">
     <g id="line2d_168">
      <g>
       <use xlink:href="#m93d07a652a" x="59.071125" y="239.759874" style="stroke: #000000"/>
      </g>
     </g>
     <g id="line2d_169">
      <g>
       <use xlink:href="#m0a1f4d1e7a" x="793.471125" y="239.759874" style="stroke: #000000"/>
      </g>
     </g>
    </g>
    <g id="ytick_35">
     <g id="line2d_170">
      <g>
       <use xlink:href="#m93d07a652a" x="59.071125" y="234.206293" style="stroke: #000000"/>
      </g>
     </g>
     <g id="line2d_171">
      <g>
       <use xlink:href="#m0a1f4d1e7a" x="793.471125" y="234.206293" style="stroke: #000000"/>
      </g>
     </g>
    </g>
    <g id="ytick_36">
     <g id="line2d_172">
      <g>
       <use xlink:href="#m93d07a652a" x="59.071125" y="228.652712" style="stroke: #000000"/>
      </g>
     </g>
     <g id="line2d_173">
      <g>
       <use xlink:href="#m0a1f4d1e7a" x="793.471125" y="228.652712" style="stroke: #000000"/>
      </g>
     </g>
    </g>
    <g id="ytick_37">
     <g id="line2d_174">
      <g>
       <use xlink:href="#m93d07a652a" x="59.071125" y="217.54555" style="stroke: #000000"/>
      </g>
     </g>
     <g id="line2d_175">
      <g>
       <use xlink:href="#m0a1f4d1e7a" x="793.471125" y="217.54555" style="stroke: #000000"/>
      </g>
     </g>
    </g>
    <g id="ytick_38">
     <g id="line2d_176">
      <g>
       <use xlink:href="#m93d07a652a" x="59.071125" y="211.991969" style="stroke: #000000"/>
      </g>
     </g>
     <g id="line2d_177">
      <g>
       <use xlink:href="#m0a1f4d1e7a" x="793.471125" y="211.991969" style="stroke: #000000"/>
      </g>
     </g>
    </g>
    <g id="ytick_39">
     <g id="line2d_178">
      <g>
       <use xlink:href="#m93d07a652a" x="59.071125" y="206.438388" style="stroke: #000000"/>
      </g>
     </g>
     <g id="line2d_179">
      <g>
       <use xlink:href="#m0a1f4d1e7a" x="793.471125" y="206.438388" style="stroke: #000000"/>
      </g>
     </g>
    </g>
    <g id="ytick_40">
     <g id="line2d_180">
      <g>
       <use xlink:href="#m93d07a652a" x="59.071125" y="200.884807" style="stroke: #000000"/>
      </g>
     </g>
     <g id="line2d_181">
      <g>
       <use xlink:href="#m0a1f4d1e7a" x="793.471125" y="200.884807" style="stroke: #000000"/>
      </g>
     </g>
    </g>
    <g id="ytick_41">
     <g id="line2d_182">
      <g>
       <use xlink:href="#m93d07a652a" x="59.071125" y="189.777646" style="stroke: #000000"/>
      </g>
     </g>
     <g id="line2d_183">
      <g>
       <use xlink:href="#m0a1f4d1e7a" x="793.471125" y="189.777646" style="stroke: #000000"/>
      </g>
     </g>
    </g>
    <g id="ytick_42">
     <g id="line2d_184">
      <g>
       <use xlink:href="#m93d07a652a" x="59.071125" y="184.224065" style="stroke: #000000"/>
      </g>
     </g>
     <g id="line2d_185">
      <g>
       <use xlink:href="#m0a1f4d1e7a" x="793.471125" y="184.224065" style="stroke: #000000"/>
      </g>
     </g>
    </g>
    <g id="ytick_43">
     <g id="line2d_186">
      <g>
       <use xlink:href="#m93d07a652a" x="59.071125" y="178.670484" style="stroke: #000000"/>
      </g>
     </g>
     <g id="line2d_187">
      <g>
       <use xlink:href="#m0a1f4d1e7a" x="793.471125" y="178.670484" style="stroke: #000000"/>
      </g>
     </g>
    </g>
    <g id="ytick_44">
     <g id="line2d_188">
      <g>
       <use xlink:href="#m93d07a652a" x="59.071125" y="173.116903" style="stroke: #000000"/>
      </g>
     </g>
     <g id="line2d_189">
      <g>
       <use xlink:href="#m0a1f4d1e7a" x="793.471125" y="173.116903" style="stroke: #000000"/>
      </g>
     </g>
    </g>
    <g id="ytick_45">
     <g id="line2d_190">
      <g>
       <use xlink:href="#m93d07a652a" x="59.071125" y="162.009741" style="stroke: #000000"/>
      </g>
     </g>
     <g id="line2d_191">
      <g>
       <use xlink:href="#m0a1f4d1e7a" x="793.471125" y="162.009741" style="stroke: #000000"/>
      </g>
     </g>
    </g>
    <g id="ytick_46">
     <g id="line2d_192">
      <g>
       <use xlink:href="#m93d07a652a" x="59.071125" y="156.45616" style="stroke: #000000"/>
      </g>
     </g>
     <g id="line2d_193">
      <g>
       <use xlink:href="#m0a1f4d1e7a" x="793.471125" y="156.45616" style="stroke: #000000"/>
      </g>
     </g>
    </g>
    <g id="ytick_47">
     <g id="line2d_194">
      <g>
       <use xlink:href="#m93d07a652a" x="59.071125" y="150.902579" style="stroke: #000000"/>
      </g>
     </g>
     <g id="line2d_195">
      <g>
       <use xlink:href="#m0a1f4d1e7a" x="793.471125" y="150.902579" style="stroke: #000000"/>
      </g>
     </g>
    </g>
    <g id="text_17">
     <!-- Ion number density -->
     <g transform="translate(20.278125 272.930116) rotate(-90) scale(0.12 -0.12)">
      <defs>
       <path id="DejaVuSans-49" d="M 628 4666 
L 1259 4666 
L 1259 0 
L 628 0 
L 628 4666 
z
" transform="scale(0.015625)"/>
       <path id="DejaVuSans-6f" d="M 1959 3097 
Q 1497 3097 1228 2736 
Q 959 2375 959 1747 
Q 959 1119 1226 758 
Q 1494 397 1959 397 
Q 2419 397 2687 759 
Q 2956 1122 2956 1747 
Q 2956 2369 2687 2733 
Q 2419 3097 1959 3097 
z
M 1959 3584 
Q 2709 3584 3137 3096 
Q 3566 2609 3566 1747 
Q 3566 888 3137 398 
Q 2709 -91 1959 -91 
Q 1206 -91 779 398 
Q 353 888 353 1747 
Q 353 2609 779 3096 
Q 1206 3584 1959 3584 
z
" transform="scale(0.015625)"/>
       <path id="DejaVuSans-6e" d="M 3513 2113 
L 3513 0 
L 2938 0 
L 2938 2094 
Q 2938 2591 2744 2837 
Q 2550 3084 2163 3084 
Q 1697 3084 1428 2787 
Q 1159 2491 1159 1978 
L 1159 0 
L 581 0 
L 581 3500 
L 1159 3500 
L 1159 2956 
Q 1366 3272 1645 3428 
Q 1925 3584 2291 3584 
Q 2894 3584 3203 3211 
Q 3513 2838 3513 2113 
z
" transform="scale(0.015625)"/>
       <path id="DejaVuSans-75" d="M 544 1381 
L 544 3500 
L 1119 3500 
L 1119 1403 
Q 1119 906 1312 657 
Q 1506 409 1894 409 
Q 2359 409 2629 706 
Q 2900 1003 2900 1516 
L 2900 3500 
L 3475 3500 
L 3475 0 
L 2900 0 
L 2900 538 
Q 2691 219 2414 64 
Q 2138 -91 1772 -91 
Q 1169 -91 856 284 
Q 544 659 544 1381 
z
M 1991 3584 
L 1991 3584 
z
" transform="scale(0.015625)"/>
       <path id="DejaVuSans-62" d="M 3116 1747 
Q 3116 2381 2855 2742 
Q 2594 3103 2138 3103 
Q 1681 3103 1420 2742 
Q 1159 2381 1159 1747 
Q 1159 1113 1420 752 
Q 1681 391 2138 391 
Q 2594 391 2855 752 
Q 3116 1113 3116 1747 
z
M 1159 2969 
Q 1341 3281 1617 3432 
Q 1894 3584 2278 3584 
Q 2916 3584 3314 3078 
Q 3713 2572 3713 1747 
Q 3713 922 3314 415 
Q 2916 -91 2278 -91 
Q 1894 -91 1617 61 
Q 1341 213 1159 525 
L 1159 0 
L 581 0 
L 581 4863 
L 1159 4863 
L 1159 2969 
z
" transform="scale(0.015625)"/>
       <path id="DejaVuSans-72" d="M 2631 2963 
Q 2534 3019 2420 3045 
Q 2306 3072 2169 3072 
Q 1681 3072 1420 2755 
Q 1159 2438 1159 1844 
L 1159 0 
L 581 0 
L 581 3500 
L 1159 3500 
L 1159 2956 
Q 1341 3275 1631 3429 
Q 1922 3584 2338 3584 
Q 2397 3584 2469 3576 
Q 2541 3569 2628 3553 
L 2631 2963 
z
" transform="scale(0.015625)"/>
       <path id="DejaVuSans-69" d="M 603 3500 
L 1178 3500 
L 1178 0 
L 603 0 
L 603 3500 
z
M 603 4863 
L 1178 4863 
L 1178 4134 
L 603 4134 
L 603 4863 
z
" transform="scale(0.015625)"/>
       <path id="DejaVuSans-74" d="M 1172 4494 
L 1172 3500 
L 2356 3500 
L 2356 3053 
L 1172 3053 
L 1172 1153 
Q 1172 725 1289 603 
Q 1406 481 1766 481 
L 2356 481 
L 2356 0 
L 1766 0 
Q 1100 0 847 248 
Q 594 497 594 1153 
L 594 3053 
L 172 3053 
L 172 3500 
L 594 3500 
L 594 4494 
L 1172 4494 
z
" transform="scale(0.015625)"/>
       <path id="DejaVuSans-79" d="M 2059 -325 
Q 1816 -950 1584 -1140 
Q 1353 -1331 966 -1331 
L 506 -1331 
L 506 -850 
L 844 -850 
Q 1081 -850 1212 -737 
Q 1344 -625 1503 -206 
L 1606 56 
L 191 3500 
L 800 3500 
L 1894 763 
L 2988 3500 
L 3597 3500 
L 2059 -325 
z
" transform="scale(0.015625)"/>
      </defs>
      <use xlink:href="#DejaVuSans-49"/>
      <use xlink:href="#DejaVuSans-6f" x="29.492188"/>
      <use xlink:href="#DejaVuSans-6e" x="90.673828"/>
      <use xlink:href="#DejaVuSans-20" x="154.052734"/>
      <use xlink:href="#DejaVuSans-6e" x="185.839844"/>
      <use xlink:href="#DejaVuSans-75" x="249.21875"/>
      <use xlink:href="#DejaVuSans-6d" x="312.597656"/>
      <use xlink:href="#DejaVuSans-62" x="410.009766"/>
      <use xlink:href="#DejaVuSans-65" x="473.486328"/>
      <use xlink:href="#DejaVuSans-72" x="535.009766"/>
      <use xlink:href="#DejaVuSans-20" x="576.123047"/>
      <use xlink:href="#DejaVuSans-64" x="607.910156"/>
      <use xlink:href="#DejaVuSans-65" x="671.386719"/>
      <use xlink:href="#DejaVuSans-6e" x="732.910156"/>
      <use xlink:href="#DejaVuSans-73" x="796.289062"/>
      <use xlink:href="#DejaVuSans-69" x="848.388672"/>
      <use xlink:href="#DejaVuSans-74" x="876.171875"/>
      <use xlink:href="#DejaVuSans-79" x="915.380859"/>
     </g>
     <!-- [cm$^{}$-3] -->
     <g transform="translate(33.7155 234.496366) rotate(-90) scale(0.12 -0.12)">
      <defs>
       <path id="DejaVuSans-63" d="M 3122 3366 
L 3122 2828 
Q 2878 2963 2633 3030 
Q 2388 3097 2138 3097 
Q 1578 3097 1268 2742 
Q 959 2388 959 1747 
Q 959 1106 1268 751 
Q 1578 397 2138 397 
Q 2388 397 2633 464 
Q 2878 531 3122 666 
L 3122 134 
Q 2881 22 2623 -34 
Q 2366 -91 2075 -91 
Q 1284 -91 818 406 
Q 353 903 353 1747 
Q 353 2603 823 3093 
Q 1294 3584 2113 3584 
Q 2378 3584 2631 3529 
Q 2884 3475 3122 3366 
z
" transform="scale(0.015625)"/>
       <path id="DejaVuSans-2d" d="M 313 2009 
L 1997 2009 
L 1997 1497 
L 313 1497 
L 313 2009 
z
" transform="scale(0.015625)"/>
      </defs>
      <use xlink:href="#DejaVuSans-5b" transform="translate(0 0.015625)"/>
      <use xlink:href="#DejaVuSans-63" transform="translate(39.013672 0.015625)"/>
      <use xlink:href="#DejaVuSans-6d" transform="translate(93.994141 0.015625)"/>
      <use xlink:href="#DejaVuSans-2d" transform="translate(195.097656 0.015625)"/>
      <use xlink:href="#DejaVuSans-33" transform="translate(231.181641 0.015625)"/>
      <use xlink:href="#DejaVuSans-5d" transform="translate(294.804688 0.015625)"/>
     </g>
    </g>
   </g>
   <g id="line2d_196">
    <path d="M 92.452943 270.848356 
L 93.197242 264.473309 
L 93.941542 249.235675 
L 94.685841 270.651667 
L 95.43014 268.684774 
L 96.174439 258.248669 
L 96.918738 229.439468 
L 97.663037 254.9628 
L 99.151636 251.156285 
M 102.128833 252.42898 
L 102.873132 262.286585 
L 103.617431 256.177645 
L 104.36173 225.667665 
L 105.106029 252.8455 
L 105.850328 259.764334 
L 106.594628 240.778028 
M 108.083226 255.992526 
L 108.827525 263.258463 
L 109.571824 251.052155 
L 110.316123 264.403889 
L 111.060423 259.799045 
L 111.804722 259.266825 
M 115.526218 262.228736 
L 116.270517 245.463862 
L 117.014816 225.320561 
L 117.759115 201.926104 
L 118.503414 235.826086 
L 119.247714 248.772873 
L 120.736312 260.632082 
L 121.480611 257.774301 
L 122.22491 265.132796 
L 122.96921 240.268952 
L 123.713509 224.475954 
M 125.202107 260.308123 
L 125.946406 210.927533 
L 126.690705 247.754716 
L 127.435005 262.529553 
L 128.179304 239.493766 
L 128.923603 230.816296 
L 129.667902 259.984163 
L 130.412201 264.554297 
L 131.1565 263.131193 
L 131.9008 259.359388 
L 132.645099 263.038634 
L 133.389398 252.741369 
L 134.133697 212.790297 
L 134.877996 254.812392 
L 135.622296 253.701675 
L 136.366595 256.108227 
L 137.110894 242.606085 
L 137.855193 258.734609 
L 138.599492 249.686899 
L 139.343791 251.607512 
L 140.088091 227.183325 
L 140.83239 241.611068 
L 141.576689 261.18744 
L 142.320988 262.795665 
L 143.065287 256.409046 
L 143.809587 226.894078 
L 144.553886 232.644348 
L 145.298185 247.477038 
L 146.042484 253.528125 
L 146.786783 254.476863 
L 147.531082 195.296509 
L 148.275382 193.71143 
L 149.019681 242.258981 
L 149.76398 248.981129 
M 151.252578 248.275364 
L 151.996878 250.265396 
L 152.741177 255.36775 
L 153.485476 248.414201 
L 154.229775 247.696867 
L 154.974074 243.496969 
L 155.718373 254.419012 
L 157.206972 205.998726 
L 157.951271 254.129765 
L 158.69557 264.797268 
L 159.439869 260.146143 
M 160.928468 238.02438 
L 161.672767 247.615878 
L 162.417066 253.944645 
M 164.649964 238.151647 
L 165.394263 217.626541 
L 166.138562 240.072263 
L 166.882861 229.728715 
L 167.62716 246.655571 
L 168.371459 248.090245 
L 169.115759 256.628876 
L 169.860058 248.62246 
L 170.604357 230.793156 
L 171.348656 241.020999 
L 172.092955 258.08669 
L 172.837255 250.230687 
L 173.581554 227.727113 
L 174.325853 250.242259 
L 175.070152 256.999115 
L 175.814451 249.548061 
L 176.55875 264.924537 
L 177.30305 263.686552 
L 178.047349 265.965833 
L 178.791648 256.513176 
L 179.535947 237.83926 
L 180.280246 245.834103 
L 181.024545 214.548926 
L 181.768845 244.723385 
L 182.513144 244.653966 
L 183.257443 249.143111 
L 184.746041 230.422913 
L 186.23464 240.673902 
L 186.978939 219.755413 
L 187.723238 264.658428 
M 191.444734 216.307565 
L 192.189033 263.732831 
L 192.933332 264.959248 
L 193.677632 266.417063 
M 195.16623 223.203262 
L 195.910529 245.579565 
L 196.654828 215.6018 
L 197.399127 250.716628 
L 198.143427 268.407095 
L 198.887726 263.663412 
L 199.632025 251.237274 
L 200.376324 249.825739 
L 201.120623 251.376114 
L 201.864923 231.036124 
L 202.609222 262.205597 
L 203.353521 267.307948 
L 204.09782 245.463862 
L 204.842119 247.11837 
L 205.586418 239.748304 
L 206.330718 220.692579 
L 207.075017 256.004096 
L 207.819316 269.691361 
L 208.563615 265.676585 
L 209.307914 259.799045 
L 210.052213 261.708088 
L 210.796513 262.714674 
L 211.540812 196.846887 
L 212.285111 272.641701 
L 213.02941 272.74583 
L 213.773709 268.626924 
L 214.518009 239.736737 
L 215.262308 246.343181 
L 216.006607 254.407445 
L 216.750906 242.305266 
L 217.495205 265.641874 
L 218.239504 259.463516 
L 218.983804 252.29014 
L 219.728103 234.206293 
L 220.472402 253.643826 
L 221.216701 255.969389 
L 221.961 243.7168 
L 222.7053 272.977229 
L 223.449599 268.939313 
L 224.193898 247.546454 
L 224.938197 247.430759 
L 225.682496 259.370956 
L 226.426795 248.518335 
L 227.171095 234.287284 
L 227.915394 255.737988 
L 228.659693 247.12994 
L 229.403992 262.934504 
L 230.148291 239.250795 
L 230.89259 246.852257 
L 231.63689 250.057137 
L 232.381189 238.417757 
L 233.125488 258.977578 
L 233.869787 254.580994 
L 234.614086 239.320216 
L 235.358386 249.987719 
L 236.102685 257.519763 
L 236.846984 246.088641 
L 237.591283 255.298329 
L 238.335582 272.76897 
L 239.079881 271.357434 
L 239.824181 247.939838 
L 240.56848 218.505861 
L 242.057078 258.445359 
L 242.801377 259.185836 
L 243.545677 250.276966 
L 244.289976 227.692407 
L 245.034275 250.635637 
L 245.778574 252.243861 
L 246.522873 241.067278 
L 247.267172 257.866862 
L 248.011472 264.808838 
L 248.755771 250.311678 
L 249.50007 251.318265 
L 250.244369 249.814169 
L 250.988668 214.305963 
L 251.732968 243.948201 
L 252.477267 246.574582 
L 253.221566 245.359736 
L 253.965865 236.774824 
L 254.710164 260.87505 
L 255.454463 254.268602 
L 256.198763 258.757748 
L 256.943062 250.751335 
L 257.687361 271.692964 
L 258.43166 262.656824 
L 259.175959 249.710038 
L 259.920258 256.848705 
L 261.408857 259.197407 
L 262.153156 220.34548 
L 262.897455 223.191689 
M 265.130353 243.647382 
L 265.874652 248.159666 
L 266.618951 219.038071 
L 267.36325 230.851002 
L 268.107549 269.564091 
L 268.851849 253.597547 
L 269.596148 255.784268 
L 270.340447 265.503035 
L 271.084746 229.960116 
L 271.829045 251.167855 
L 272.573345 267.770747 
L 273.317644 249.409219 
M 274.806242 240.627621 
L 275.550541 259.856896 
L 276.29484 231.452642 
L 277.03914 216.631519 
L 277.783439 218.205041 
L 278.527738 224.869332 
L 279.272037 242.825914 
L 280.016336 254.407445 
L 280.760635 258.0057 
L 281.504935 265.364195 
L 282.249234 243.45069 
L 282.993533 237.943388 
L 283.737832 218.933945 
L 285.226431 266.636891 
L 285.97073 228.178348 
M 287.459328 230.399773 
L 288.203627 238.903696 
L 288.947926 236.832676 
L 289.692226 247.014239 
L 290.436525 265.676585 
L 291.180824 218.448004 
L 291.925123 226.905645 
L 292.669422 257.438772 
L 293.413722 249.443931 
L 294.158021 224.973468 
L 294.90232 245.891952 
L 295.646619 262.321296 
L 296.390918 244.873795 
L 297.135217 232.27411 
L 297.879517 239.621036 
L 298.623816 241.252397 
L 299.368115 229.682441 
L 300.112414 242.849053 
L 300.856713 244.2953 
L 301.601013 222.590055 
L 302.345312 242.548231 
L 303.089611 239.887141 
L 303.83391 238.244208 
L 304.578209 237.85083 
L 305.322508 247.870416 
L 306.066808 212.038243 
L 306.811107 207.502819 
L 307.555406 243.982908 
L 308.299705 263.686552 
L 309.044004 239.817722 
L 309.788303 226.570119 
L 310.532603 216.411695 
L 311.276902 200.549276 
L 312.021201 220.831416 
L 312.7655 252.29014 
L 313.509799 257.161093 
L 314.254099 265.815424 
L 314.998398 262.344435 
L 315.742697 231.036119 
L 316.486996 244.943213 
L 317.231295 237.364891 
L 317.975594 252.71823 
L 318.719894 263.640272 
L 319.464193 262.425425 
L 320.208492 249.17782 
L 320.952791 238.799566 
L 321.69709 258.60734 
L 322.44139 245.510146 
L 323.185689 261.268428 
L 323.929988 239.759874 
L 324.674287 261.997337 
L 325.418586 248.622463 
L 326.162885 223.909026 
L 326.907185 181.192734 
L 327.651484 201.659996 
L 328.395783 263.142764 
L 329.140082 258.017269 
L 329.884381 248.784443 
L 330.62868 262.205597 
L 331.37298 257.126385 
L 332.117279 244.827516 
L 332.861578 264.565867 
L 333.605877 264.693137 
L 334.350176 256.015669 
L 335.094476 225.79493 
L 335.838775 238.822705 
M 337.327373 252.01246 
L 338.071672 239.887144 
L 338.815971 247.627446 
L 339.560271 268.684774 
L 340.30457 275.325931 
L 341.048869 244.526699 
L 341.793168 245.706832 
L 342.537467 269.73764 
L 343.281767 259.463514 
L 344.770365 218.274454 
L 345.514664 258.109831 
L 346.258963 258.896587 
L 347.003262 247.731576 
L 347.747562 248.055536 
L 348.491861 199.727813 
L 349.23616 255.159491 
L 349.980459 264.797268 
L 350.724758 270.212008 
L 351.469058 242.849053 
L 352.213357 240.292092 
L 352.957656 266.463342 
L 353.701955 255.599148 
L 354.446254 238.082228 
L 355.190553 227.518857 
L 355.934853 236.612842 
L 356.679152 263.293172 
L 357.423451 256.617305 
L 358.16775 244.410998 
L 358.912049 226.570119 
L 359.656348 267.585628 
M 361.144947 258.491638 
L 361.889246 232.331956 
L 362.633545 259.313105 
L 363.377844 264.658428 
L 364.122144 258.352799 
L 364.866443 240.303664 
L 365.610742 229.913837 
L 366.355041 272.225182 
L 367.09934 253.192599 
L 367.843639 252.232288 
L 368.587939 225.713944 
L 369.332238 243.057312 
L 370.076537 269.853339 
L 370.820836 269.92276 
L 371.565135 237.931821 
L 372.309435 258.595769 
L 373.053734 264.299759 
L 373.798033 246.4126 
L 374.542332 256.154506 
L 375.286631 238.533458 
L 376.03093 260.342832 
L 376.77523 254.268602 
L 377.519529 264.750988 
L 379.008127 251.619082 
L 379.752426 238.730147 
L 380.496725 259.868463 
L 381.241025 263.640271 
L 381.985324 239.968132 
L 382.729623 265.873274 
L 383.473922 258.850308 
L 384.218221 241.044135 
L 384.962521 258.977578 
L 385.70682 251.098434 
L 386.451119 229.75186 
L 387.195418 217.672815 
L 387.939717 270.605388 
L 388.684016 263.790681 
M 390.172615 252.787649 
L 390.916914 261.661806 
L 391.661213 241.495368 
L 392.405512 261.731228 
L 393.149812 267.400508 
L 393.894111 266.77573 
L 394.63841 231.024552 
L 395.382709 256.848705 
L 396.127008 256.547886 
L 396.871307 234.079028 
L 397.615607 227.218037 
L 398.359906 250.06871 
L 399.104205 248.796012 
L 399.848504 268.291396 
L 400.592803 239.030967 
L 401.337103 240.789603 
L 402.081402 263.883242 
L 402.825701 269.274842 
L 403.57 247.604306 
L 404.314299 245.186184 
L 405.058598 264.438599 
L 405.802898 262.888223 
L 406.547197 253.620684 
L 407.291496 263.073344 
L 408.035795 251.989323 
L 408.780094 217.707532 
L 409.524393 247.951405 
L 410.268693 268.569074 
L 411.012992 262.379146 
L 411.757291 235.675679 
L 412.50159 251.433965 
L 413.245889 259.255257 
L 413.990189 220.276061 
L 414.734488 234.750078 
L 415.478787 268.198836 
L 416.223086 261.580819 
L 416.967385 261.453549 
L 417.711684 250.172838 
L 418.455984 230.122098 
L 419.200283 225.656093 
L 419.944582 236.797959 
L 420.688881 258.1214 
L 421.43318 243.76308 
L 422.17748 264.13778 
L 422.921779 264.484879 
L 423.666078 237.642571 
L 424.410377 254.210753 
L 425.154676 264.866687 
L 425.898975 270.501258 
L 426.643275 269.99218 
L 427.387574 254.523143 
L 428.131873 235.594688 
L 428.876172 233.234415 
L 429.620471 259.671776 
L 430.36477 257.184234 
L 431.10907 253.458707 
L 431.853369 266.660031 
L 432.597668 249.374512 
L 433.341967 243.057312 
L 434.086266 248.414201 
L 434.830566 259.509795 
L 435.574865 224.626369 
L 436.319164 258.908158 
L 437.063463 260.736212 
L 437.807762 221.444623 
L 438.552061 232.389808 
L 440.04066 263.455151 
L 440.784959 243.138303 
L 441.529258 261.17587 
L 442.273557 232.308816 
L 443.017857 245.498571 
L 443.762156 245.972943 
L 444.506455 254.268605 
L 445.250754 268.846754 
L 445.995053 260.863482 
L 446.739352 238.163217 
L 447.483652 229.416328 
L 448.227951 265.595595 
L 448.97225 256.200788 
L 449.716549 235.49056 
L 450.460848 219.593436 
L 451.205147 260.389112 
L 451.949447 255.749558 
L 452.693746 250.207547 
L 453.438045 264.727848 
L 454.182344 253.782666 
L 454.926643 259.706484 
L 455.670943 254.488433 
L 456.415242 227.067628 
L 457.159541 250.010858 
M 458.648139 237.538441 
L 459.392438 251.005875 
L 460.136738 245.232463 
L 460.881037 238.059089 
L 461.625336 242.849053 
L 462.369635 258.780889 
L 463.113934 262.645255 
L 463.858234 263.235322 
L 464.602533 247.893553 
L 465.346832 216.261285 
L 466.091131 245.741544 
L 466.83543 209.851525 
L 467.579729 254.93966 
L 468.324029 232.169979 
L 469.068328 243.832501 
L 469.812627 249.108402 
L 470.556926 238.533458 
L 471.301225 243.844068 
L 472.045525 252.54468 
L 472.789824 248.807585 
L 473.534123 232.088988 
L 474.278422 259.683347 
L 475.022721 264.13778 
L 475.76702 242.594513 
L 476.51132 233.454243 
L 477.255619 217.036469 
L 477.999918 214.398521 
L 478.744217 230.110526 
L 480.232815 238.776426 
L 480.977115 264.496448 
L 481.721414 253.343006 
L 482.465713 249.316661 
L 483.210012 240.91687 
L 483.954311 253.967782 
L 484.698611 252.313279 
L 485.44291 264.11464 
L 486.187209 222.208244 
L 486.931508 249.571201 
L 487.675807 229.925409 
L 488.420106 238.336769 
L 489.164406 226.998209 
L 489.908705 235.849228 
L 490.653004 221.710736 
L 491.397303 238.359909 
L 492.141602 252.336419 
L 492.885902 253.840517 
L 493.630201 227.970087 
L 494.3745 260.539523 
L 495.118799 260.169283 
L 495.863098 221.143803 
L 496.607397 235.513697 
L 497.351697 239.054106 
L 498.095996 245.452292 
L 498.840295 233.523667 
L 499.584594 239.609466 
L 500.328893 244.700245 
L 501.073192 246.66714 
L 501.817492 257.137955 
L 502.561791 255.853689 
L 503.30609 245.544853 
M 505.538988 250.948024 
L 506.283287 195.898159 
L 507.027586 219.674427 
L 507.771885 249.270379 
L 509.260483 206.32269 
L 510.004783 215.462957 
L 510.749082 236.601275 
L 511.493381 249.015843 
L 512.23768 254.280174 
L 512.981979 246.354751 
L 513.726279 225.308994 
L 514.470578 262.078326 
L 515.214877 232.158407 
L 515.959176 230.527049 
L 516.703475 272.988799 
L 517.447774 247.812567 
L 518.192074 213.357225 
L 518.936373 263.061773 
L 519.680672 253.956215 
L 520.424971 239.065676 
L 521.16927 243.531681 
L 521.91357 252.463689 
L 522.657869 247.870416 
L 523.402168 238.880557 
L 524.146467 220.171931 
L 524.890766 250.323248 
L 525.635065 229.231212 
L 526.379365 221.433056 
L 527.123664 181.215879 
L 527.867963 217.082753 
L 528.612262 246.82912 
L 529.356561 240.488781 
L 530.10086 256.050378 
L 530.84516 253.967785 
L 531.589459 254.661983 
L 532.333758 245.880382 
M 541.265348 242.444106 
L 542.009647 249.374509 
M 544.986844 211.957252 
L 545.731143 230.723737 
L 546.475442 240.211106 
L 547.219742 223.793329 
L 547.964041 258.746178 
L 548.70834 251.260413 
L 549.452639 236.543426 
L 550.196938 261.661806 
L 550.941237 247.974544 
L 551.685537 252.371131 
L 552.429836 253.759526 
L 553.174135 214.537359 
L 553.918434 247.280347 
L 554.662733 256.756144 
L 555.407033 238.672298 
L 556.151332 243.543251 
L 556.895631 253.551268 
L 557.63993 222.752032 
L 558.384229 242.571373 
L 559.128528 223.064424 
L 559.872828 250.716628 
L 560.617127 260.169283 
L 561.361426 252.752939 
L 562.105725 251.376114 
L 562.850024 248.483625 
L 563.594324 243.75151 
M 565.082922 243.4854 
L 565.827221 237.179775 
L 566.57152 206.797054 
L 567.315819 225.227998 
M 568.804418 240.92844 
L 569.548717 261.23372 
L 570.293016 242.582943 
M 573.270213 236.057487 
L 574.014512 222.173532 
L 574.758811 231.198101 
L 575.50311 245.325024 
L 576.991709 201.382316 
L 577.736008 256.571026 
L 578.480307 203.129382 
L 579.224606 241.680487 
L 579.968905 247.708437 
L 580.713205 242.895333 
L 581.457504 251.260413 
L 582.201803 255.055361 
L 582.946102 234.622808 
L 583.690401 226.338718 
L 584.434701 161.616363 
L 585.179 217.614969 
L 585.923299 261.53454 
L 586.667598 259.081708 
L 587.411897 260.678361 
L 588.156196 247.615876 
L 588.900496 231.174962 
L 589.644795 228.363465 
L 590.389094 218.980219 
L 591.133393 231.903871 
L 591.877692 258.804029 
L 592.621992 259.556074 
L 594.11059 203.337639 
L 594.854889 208.937499 
L 595.599188 167.181511 
L 596.343487 257.033823 
L 597.087787 253.134747 
L 597.832086 222.532204 
L 598.576385 255.402457 
L 599.320684 253.794233 
L 600.064983 227.958514 
L 600.809282 228.328753 
L 601.553582 237.792981 
L 602.297881 255.402459 
L 603.04218 255.043791 
L 603.786479 213.970431 
L 604.530778 227.032916 
L 605.275078 228.097357 
L 606.019377 213.970431 
L 606.763676 266.79887 
L 607.507975 245.67212 
L 608.252274 238.105371 
L 608.996573 269.425251 
L 609.740873 258.352801 
L 611.229471 219.223192 
L 611.97377 227.414726 
L 612.718069 246.377888 
L 613.462369 246.146492 
L 614.206668 244.46885 
L 614.950967 208.648246 
L 615.695266 205.721051 
L 616.439565 261.927918 
L 617.183864 249.675332 
L 617.928164 242.906905 
L 618.672463 259.822184 
L 619.416762 261.777508 
L 620.161061 262.946074 
L 620.90536 180.290275 
L 621.64966 262.841944 
L 622.393959 262.043617 
L 623.138258 267.759177 
L 623.882557 241.657347 
L 624.626856 249.987719 
L 625.371155 208.532548 
L 626.115455 259.359388 
L 626.859754 264.13778 
L 627.604053 232.181551 
L 628.348352 249.61748 
L 629.092651 256.235497 
L 629.83695 266.347643 
L 630.58125 263.339453 
L 631.325549 207.051595 
L 632.069848 206.762353 
M 633.558446 258.861879 
L 634.302746 248.414201 
L 635.047045 226.130462 
L 635.791344 252.336422 
L 636.535643 264.531159 
L 637.279942 255.437169 
L 638.024241 249.825739 
L 638.768541 249.200963 
L 639.51284 252.741369 
L 640.257139 246.181201 
L 641.001438 223.862747 
L 641.745737 250.774474 
L 642.490037 257.728022 
L 643.234336 258.618908 
L 643.978635 235.20131 
L 644.722934 255.055363 
L 645.467233 217.163744 
L 646.211532 218.424864 
L 646.955832 256.247067 
L 647.700131 239.088813 
L 648.44443 240.731749 
L 649.188729 251.885192 
L 649.933028 224.394963 
L 650.677327 201.486447 
L 651.421627 242.513522 
L 652.165926 249.90673 
L 652.910225 253.204169 
L 653.654524 248.981134 
L 654.398823 238.371478 
L 655.143123 259.012286 
L 655.887422 254.442151 
L 656.631721 252.336419 
L 657.37602 253.909933 
L 658.120319 242.837481 
L 658.864618 219.535585 
L 659.608918 248.911713 
L 660.353217 244.815943 
L 661.097516 234.079022 
L 661.841815 268.765763 
L 662.586114 249.65219 
L 663.330414 260.180853 
L 664.074713 245.614274 
L 664.819012 211.054803 
L 665.563311 238.336766 
L 666.30761 227.912235 
L 667.051909 243.161446 
L 667.796209 244.399428 
L 668.540508 255.726419 
L 669.284807 220.276056 
L 670.029106 230.816296 
L 670.773405 153.586801 
L 671.517705 258.942866 
L 672.262004 260.80563 
L 673.006303 259.359388 
L 673.750602 264.334469 
L 674.494901 246.81755 
L 675.2392 243.786219 
L 676.727799 228.317185 
L 677.472098 232.146839 
L 678.216397 244.873797 
L 678.960696 233.003019 
L 679.704995 189.557817 
L 680.449295 184.536451 
L 681.193594 235.03933 
L 681.937893 262.656824 
L 682.682192 245.834103 
L 683.426491 251.271983 
L 684.170791 259.336245 
L 684.91509 251.133143 
L 685.659389 265.213786 
L 686.403688 237.503731 
L 687.147987 263.674983 
L 687.892286 226.755235 
L 688.636586 177.143251 
L 689.380885 235.64097 
L 690.125184 241.599496 
L 690.869483 249.409219 
L 691.613782 242.918472 
L 692.358082 220.77357 
L 693.102381 254.245462 
L 693.84668 252.151303 
L 694.590979 238.047522 
L 695.335278 258.22553 
L 696.079577 247.592739 
L 696.823877 258.08669 
L 697.568176 262.980786 
L 698.312475 253.747954 
L 699.056774 242.652364 
L 699.801073 188.909899 
L 700.545372 232.979874 
L 701.289672 245.487004 
L 702.033971 240.870591 
L 702.77827 233.003019 
L 703.522569 232.250965 
L 704.266868 195.215529 
L 705.011168 180.255573 
L 705.755467 244.480417 
L 706.499766 243.485402 
L 707.244065 232.609641 
L 707.988364 246.285335 
L 708.732663 196.048564 
L 709.476963 232.574929 
L 710.221262 223.480942 
L 710.965561 261.013891 
L 711.70986 252.359559 
L 712.454159 233.118717 
L 713.198459 209.076336 
L 713.942758 247.639018 
L 714.687057 229.902264 
L 715.431356 226.014764 
L 716.175655 257.681741 
L 716.919954 207.259851 
L 717.664254 252.081881 
L 718.408553 236.554993 
L 719.152852 203.673165 
L 719.897151 229.925409 
L 720.64145 251.619082 
L 721.38575 258.572629 
L 722.130049 254.858672 
L 722.874348 237.792981 
L 723.618647 239.482196 
L 724.362946 251.225704 
L 725.107245 231.082403 
L 725.851545 258.52635 
L 726.595844 258.445359 
L 727.340143 233.014586 
L 728.084442 254.696692 
L 728.828741 223.203262 
L 729.57304 215.000161 
L 730.31734 223.261108 
L 731.061639 236.034345 
L 731.805938 242.582946 
L 732.550237 213.692756 
L 733.294536 246.030789 
L 734.038836 236.242604 
L 734.783135 238.452469 
L 735.527434 256.432185 
L 736.271733 255.92311 
L 737.016032 250.06871 
L 737.760331 222.393366 
L 738.504631 250.635637 
M 740.737528 248.691882 
L 741.481827 268.742624 
L 742.226127 259.174267 
L 742.970426 210.349033 
L 743.714725 250.149696 
L 744.459024 249.03898 
L 745.203323 241.819329 
L 745.947622 269.228563 
L 746.691922 260.817202 
L 747.436221 229.103941 
L 748.18052 251.630654 
L 748.924819 252.44055 
L 749.669118 260.817202 
L 750.413417 239.227658 
L 751.157717 195.527915 
L 751.902016 257.080106 
L 752.646315 235.397996 
L 754.134913 246.065501 
L 754.879213 257.323071 
L 755.623512 263.709691 
L 756.367811 263.165903 
L 757.11211 239.748306 
L 757.856409 241.148269 
L 758.600708 255.402459 
L 759.345008 256.050378 
L 760.089307 235.062473 
L 760.089307 235.062473 
" clip-path="url(#p1b1ee82c36)" style="fill: none; stroke: #000000; stroke-width: 0.5; stroke-linecap: square"/>
   </g>
   <g id="patch_8">
    <path d="M 59.071125 281.412888 
L 59.071125 147.499844 
" style="fill: none; stroke: #000000; stroke-linejoin: miter; stroke-linecap: square"/>
   </g>
   <g id="patch_9">
    <path d="M 793.471125 281.412888 
L 793.471125 147.499844 
" style="fill: none; stroke: #000000; stroke-linejoin: miter; stroke-linecap: square"/>
   </g>
   <g id="patch_10">
    <path d="M 59.071125 281.412888 
L 793.471125 281.412888 
" style="fill: none; stroke: #000000; stroke-linejoin: miter; stroke-linecap: square"/>
   </g>
   <g id="patch_11">
    <path d="M 59.071125 147.499844 
L 793.471125 147.499844 
" style="fill: none; stroke: #000000; stroke-linejoin: miter; stroke-linecap: square"/>
   </g>
  </g>
 </g>
 <defs>
  <clipPath id="pcf7a425ba0">
   <rect x="59.071125" y="4.212888" width="734.4" height="133.913043"/>
  </clipPath>
  <clipPath id="p1b1ee82c36">
   <rect x="59.071125" y="147.499844" width="734.4" height="133.913043"/>
  </clipPath>
 </defs>
</svg>
